# Blender 4.5.3 LTS
# www.blender.org
mtllib escalera.mtl
o Ladder.006
v -13.135226 2.003867 14.494048
v -13.135226 4.003867 14.494047
v -13.135236 4.003867 14.294047
v -11.135226 4.003867 14.493950
v -11.135236 4.003867 14.293950
v -11.401903 2.003867 14.293963
v -12.868569 2.003867 14.294035
v -12.868569 4.003867 14.294035
v -11.401903 4.003867 14.293963
v -12.868560 2.003867 14.494035
v -11.401893 4.003867 14.493963
v -12.868560 4.003867 14.494035
v -13.135226 2.253867 14.494048
v -13.135226 2.503867 14.494048
v -13.135226 2.753867 14.494047
v -13.135226 3.003867 14.494047
v -13.135226 3.253867 14.494047
v -13.135226 3.503867 14.494047
v -13.135226 3.753867 14.494047
v -13.135236 3.753867 14.294047
v -13.135236 3.503867 14.294047
v -13.135236 3.253867 14.294047
v -13.135236 3.003867 14.294047
v -13.135236 2.753867 14.294047
v -13.135236 2.503867 14.294047
v -13.135236 2.253867 14.294047
v -11.135236 3.753867 14.293950
v -11.135236 3.503867 14.293950
v -11.135236 3.253867 14.293950
v -11.135236 3.003867 14.293950
v -11.135236 2.753867 14.293950
v -11.135236 2.503867 14.293950
v -11.135236 2.253867 14.293950
v -11.135226 3.753867 14.493950
v -11.135226 3.503867 14.493950
v -11.135226 3.253867 14.493950
v -11.135226 3.003867 14.493950
v -11.135226 2.753867 14.493950
v -11.135226 2.503867 14.493951
v -11.135226 2.253867 14.493951
v -11.401893 3.753867 14.493963
v -11.401893 3.503867 14.493963
v -11.401893 3.253867 14.493963
v -11.401893 3.003867 14.493963
v -11.401893 2.753867 14.493963
v -11.401893 2.503867 14.493963
v -11.401893 2.253867 14.493963
v -12.868560 3.753867 14.494035
v -12.868560 3.503867 14.494035
v -12.868560 3.253867 14.494035
v -12.868560 3.003867 14.494035
v -12.868560 2.753867 14.494035
v -12.868560 2.503867 14.494035
v -12.868560 2.253867 14.494035
v -12.868569 3.753867 14.294035
v -12.868569 3.503867 14.294035
v -12.868569 3.253867 14.294035
v -12.868569 3.003867 14.294035
v -12.868569 2.753867 14.294035
v -12.868569 2.503867 14.294035
v -12.868569 2.253867 14.294035
v -11.401903 3.753867 14.293963
v -11.401903 3.503867 14.293963
v -11.401903 3.253867 14.293963
v -11.401903 3.003867 14.293963
v -11.401903 2.753867 14.293963
v -11.401903 2.503867 14.293963
v -11.401903 2.253867 14.293963
v -13.135226 0.003867 14.494048
v -13.135236 0.003867 14.294048
v -13.135236 2.003867 14.294047
v -11.135226 0.003867 14.493951
v -11.135226 2.003867 14.493951
v -11.135236 0.003867 14.293951
v -11.135236 2.003867 14.293950
v -11.401903 0.003867 14.293963
v -12.868569 0.003867 14.294035
v -12.868560 0.003867 14.494035
v -11.401893 0.003867 14.493964
v -11.401893 2.003867 14.493963
v -13.135226 0.253867 14.494048
v -13.135226 0.503867 14.494048
v -13.135226 0.753867 14.494048
v -13.135226 1.003867 14.494048
v -13.135226 1.253867 14.494048
v -13.135226 1.503867 14.494048
v -13.135226 1.753867 14.494048
v -13.135236 1.753867 14.294048
v -13.135236 1.503867 14.294048
v -13.135236 1.253867 14.294048
v -13.135236 1.003867 14.294048
v -13.135236 0.753867 14.294048
v -13.135236 0.503867 14.294048
v -13.135236 0.253867 14.294048
v -11.135236 1.753867 14.293951
v -11.135236 1.503867 14.293951
v -11.135236 1.253867 14.293951
v -11.135236 1.003867 14.293951
v -11.135236 0.753867 14.293951
v -11.135236 0.503867 14.293951
v -11.135236 0.253867 14.293951
v -11.135226 1.753867 14.493951
v -11.135226 1.503867 14.493951
v -11.135226 1.253867 14.493951
v -11.135226 1.003867 14.493951
v -11.135226 0.753867 14.493951
v -11.135226 0.503867 14.493951
v -11.135226 0.253867 14.493951
v -11.401893 1.753867 14.493963
v -11.401893 1.503867 14.493963
v -11.401893 1.253867 14.493963
v -11.401893 1.003867 14.493963
v -11.401893 0.753867 14.493963
v -11.401893 0.503867 14.493963
v -11.401893 0.253867 14.493964
v -12.868560 1.753867 14.494035
v -12.868560 1.503867 14.494035
v -12.868560 1.253867 14.494035
v -12.868560 1.003867 14.494035
v -12.868560 0.753867 14.494035
v -12.868560 0.503867 14.494035
v -12.868560 0.253867 14.494035
v -12.868569 1.753867 14.294035
v -12.868569 1.503867 14.294035
v -12.868569 1.253867 14.294035
v -12.868569 1.003867 14.294035
v -12.868569 0.753867 14.294035
v -12.868569 0.503867 14.294035
v -12.868569 0.253867 14.294035
v -11.401903 1.753867 14.293963
v -11.401903 1.503867 14.293963
v -11.401903 1.253867 14.293963
v -11.401903 1.003867 14.293963
v -11.401903 0.753867 14.293963
v -11.401903 0.503867 14.293963
v -11.401903 0.253867 14.293963
v -13.135226 6.003867 14.494048
v -13.135226 8.003867 14.494048
v -13.135236 8.003867 14.294047
v -11.135226 8.003867 14.493951
v -11.135236 8.003867 14.293950
v -11.401903 6.003867 14.293963
v -12.868569 6.003867 14.294035
v -12.868569 8.003867 14.294035
v -11.401903 8.003867 14.293963
v -12.868560 6.003867 14.494035
v -11.401893 8.003867 14.493963
v -12.868560 8.003867 14.494035
v -13.135226 6.253867 14.494048
v -13.135226 6.503867 14.494048
v -13.135226 6.753867 14.494048
v -13.135226 7.003867 14.494048
v -13.135226 7.253867 14.494048
v -13.135226 7.503867 14.494048
v -13.135226 7.753867 14.494048
v -13.135236 7.753867 14.294048
v -13.135236 7.503867 14.294048
v -13.135236 7.253867 14.294048
v -13.135236 7.003867 14.294048
v -13.135236 6.753867 14.294048
v -13.135236 6.503867 14.294048
v -13.135236 6.253867 14.294048
v -11.135236 7.753867 14.293951
v -11.135236 7.503867 14.293951
v -11.135236 7.253867 14.293951
v -11.135236 7.003867 14.293951
v -11.135236 6.753867 14.293951
v -11.135236 6.503867 14.293951
v -11.135236 6.253867 14.293951
v -11.135226 7.753867 14.493951
v -11.135226 7.503867 14.493951
v -11.135226 7.253867 14.493951
v -11.135226 7.003867 14.493951
v -11.135226 6.753867 14.493951
v -11.135226 6.503867 14.493951
v -11.135226 6.253867 14.493951
v -11.401893 7.753867 14.493963
v -11.401893 7.503867 14.493963
v -11.401893 7.253867 14.493963
v -11.401893 7.003867 14.493963
v -11.401893 6.753867 14.493963
v -11.401893 6.503867 14.493963
v -11.401893 6.253867 14.493963
v -12.868560 7.753867 14.494035
v -12.868560 7.503867 14.494035
v -12.868560 7.253867 14.494035
v -12.868560 7.003867 14.494035
v -12.868560 6.753867 14.494035
v -12.868560 6.503867 14.494035
v -12.868560 6.253867 14.494035
v -12.868569 7.753867 14.294035
v -12.868569 7.503867 14.294035
v -12.868569 7.253867 14.294035
v -12.868569 7.003867 14.294035
v -12.868569 6.753867 14.294035
v -12.868569 6.503867 14.294035
v -12.868569 6.253867 14.294035
v -11.401903 7.753867 14.293963
v -11.401903 7.503867 14.293963
v -11.401903 7.253867 14.293963
v -11.401903 7.003867 14.293963
v -11.401903 6.753867 14.293963
v -11.401903 6.503867 14.293963
v -11.401903 6.253867 14.293963
v -13.135226 4.003867 14.494048
v -13.135236 4.003867 14.294048
v -13.135236 6.003867 14.294048
v -11.135226 4.003867 14.493951
v -11.135226 6.003867 14.493951
v -11.135236 4.003867 14.293951
v -11.135236 6.003867 14.293951
v -11.401903 4.003867 14.293964
v -12.868569 4.003867 14.294036
v -12.868560 4.003867 14.494036
v -11.401893 4.003867 14.493964
v -11.401893 6.003867 14.493964
v -13.135226 4.253867 14.494048
v -13.135226 4.503867 14.494048
v -13.135226 4.753867 14.494048
v -13.135226 5.003867 14.494048
v -13.135226 5.253867 14.494048
v -13.135226 5.503867 14.494048
v -13.135226 5.753867 14.494048
v -13.135236 5.753867 14.294048
v -13.135236 5.503867 14.294048
v -13.135236 5.253867 14.294048
v -13.135236 5.003867 14.294048
v -13.135236 4.753867 14.294048
v -13.135236 4.503867 14.294048
v -13.135236 4.253867 14.294048
v -11.135236 5.753867 14.293951
v -11.135236 5.503867 14.293951
v -11.135236 5.253867 14.293951
v -11.135236 5.003867 14.293951
v -11.135236 4.753867 14.293951
v -11.135236 4.503867 14.293951
v -11.135236 4.253867 14.293951
v -11.135226 5.753867 14.493951
v -11.135226 5.503867 14.493951
v -11.135226 5.253867 14.493951
v -11.135226 5.003867 14.493951
v -11.135226 4.753867 14.493951
v -11.135226 4.503867 14.493951
v -11.135226 4.253867 14.493951
v -11.401893 5.753867 14.493964
v -11.401893 5.503867 14.493964
v -11.401893 5.253867 14.493964
v -11.401893 5.003867 14.493964
v -11.401893 4.753867 14.493964
v -11.401893 4.503867 14.493964
v -11.401893 4.253867 14.493964
v -12.868560 5.753867 14.494035
v -12.868560 5.503867 14.494035
v -12.868560 5.253867 14.494035
v -12.868560 5.003867 14.494035
v -12.868560 4.753867 14.494036
v -12.868560 4.503867 14.494036
v -12.868560 4.253867 14.494036
v -12.868569 5.753867 14.294035
v -12.868569 5.503867 14.294035
v -12.868569 5.253867 14.294035
v -12.868569 5.003867 14.294035
v -12.868569 4.753867 14.294035
v -12.868569 4.503867 14.294035
v -12.868569 4.253867 14.294036
v -11.401903 5.753867 14.293963
v -11.401903 5.503867 14.293963
v -11.401903 5.253867 14.293964
v -11.401903 5.003867 14.293964
v -11.401903 4.753867 14.293964
v -11.401903 4.503867 14.293964
v -11.401903 4.253867 14.293964
v -13.135226 8.003882 14.494048
v -13.135226 10.003882 14.494047
v -13.135236 8.003882 14.294047
v -13.135236 10.003882 14.294047
v -11.135226 8.003882 14.493951
v -11.135226 10.003882 14.493950
v -11.135236 8.003882 14.293950
v -11.135236 10.003882 14.293950
v -11.401903 8.003882 14.293963
v -12.868569 8.003882 14.294035
v -12.868569 10.003882 14.294035
v -11.401903 10.003882 14.293963
v -12.868560 8.003882 14.494035
v -11.401893 8.003882 14.493963
v -11.401893 10.003882 14.493963
v -12.868560 10.003882 14.494035
v -13.135226 8.253882 14.494048
v -13.135226 8.503882 14.494048
v -13.135226 8.753882 14.494047
v -13.135226 9.003882 14.494047
v -13.135226 9.253882 14.494047
v -13.135226 9.503882 14.494047
v -13.135226 9.753882 14.494047
v -13.135236 9.753882 14.294047
v -13.135236 9.503882 14.294047
v -13.135236 9.253882 14.294047
v -13.135236 9.003882 14.294047
v -13.135236 8.753882 14.294047
v -13.135236 8.503882 14.294047
v -13.135236 8.253882 14.294047
v -11.135236 9.753882 14.293950
v -11.135236 9.503882 14.293950
v -11.135236 9.253882 14.293950
v -11.135236 9.003882 14.293950
v -11.135236 8.753882 14.293950
v -11.135236 8.503882 14.293950
v -11.135236 8.253882 14.293950
v -11.135226 9.753882 14.493950
v -11.135226 9.503882 14.493950
v -11.135226 9.253882 14.493950
v -11.135226 9.003882 14.493950
v -11.135226 8.753882 14.493950
v -11.135226 8.503882 14.493951
v -11.135226 8.253882 14.493951
v -11.401893 9.753882 14.493963
v -11.401893 9.503882 14.493963
v -11.401893 9.253882 14.493963
v -11.401893 9.003882 14.493963
v -11.401893 8.753882 14.493963
v -11.401893 8.503882 14.493963
v -11.401893 8.253882 14.493963
v -12.868560 9.753882 14.494035
v -12.868560 9.503882 14.494035
v -12.868560 9.253882 14.494035
v -12.868560 9.003882 14.494035
v -12.868560 8.753882 14.494035
v -12.868560 8.503882 14.494035
v -12.868560 8.253882 14.494035
v -12.868569 9.753882 14.294035
v -12.868569 9.503882 14.294035
v -12.868569 9.253882 14.294035
v -12.868569 9.003882 14.294035
v -12.868569 8.753882 14.294035
v -12.868569 8.503882 14.294035
v -12.868569 8.253882 14.294035
v -11.401903 9.753882 14.293963
v -11.401903 9.503882 14.293963
v -11.401903 9.253882 14.293963
v -11.401903 9.003882 14.293963
v -11.401903 8.753882 14.293963
v -11.401903 8.503882 14.293963
v -11.401903 8.253882 14.293963
vn -1.0000 -0.0000 -0.0000
vn -0.0000 -0.0000 -1.0000
vn 1.0000 -0.0000 -0.0000
vn -0.0000 -0.0000 1.0000
vn -0.0000 1.0000 -0.0000
vn -0.0000 -1.0000 -0.0000
vt 0.061981 0.187981
vt 0.061981 0.187981
s 1
usemtl Material.001
f 19/1/1 2/1/1 3/1/1 20/1/1
f 62/1/2 9/1/2 5/1/2 27/1/2
f 27/1/3 5/1/3 4/1/3 34/1/3
f 48/1/4 12/1/4 2/1/4 19/1/4
f 8/1/5 3/1/5 2/1/5 12/1/5
f 5/1/5 9/1/5 11/1/5 4/1/5
f 9/1/5 8/1/5 12/1/5 11/1/5
f 54/1/3 10/1/3 7/1/3 61/1/3
f 34/1/4 4/1/4 11/1/4 41/1/4
f 41/1/4 11/1/4 12/1/4 48/1/4
f 20/1/2 3/1/2 8/1/2 55/1/2
f 55/1/2 8/1/2 9/1/2 62/1/2
f 61/1/2 60/1/2 67/1/2 68/1/2
f 59/2/2 58/2/2 65/2/2 66/2/2
f 57/1/2 56/1/2 63/1/2 64/1/2
f 71/1/2 26/1/2 61/1/2 7/1/2
f 26/1/2 25/1/2 60/1/2 61/1/2
f 25/1/2 24/2/2 59/2/2 60/1/2
f 24/2/2 23/2/2 58/2/2 59/2/2
f 23/2/2 22/1/2 57/1/2 58/2/2
f 22/1/2 21/1/2 56/1/2 57/1/2
f 21/1/2 20/1/2 55/1/2 56/1/2
f 47/1/4 46/1/4 53/1/4 54/1/4
f 45/2/4 44/2/4 51/2/4 52/2/4
f 43/1/4 42/1/4 49/1/4 50/1/4
f 73/1/4 40/1/4 47/1/4 80/1/4
f 40/1/4 39/1/4 46/1/4 47/1/4
f 39/1/4 38/2/4 45/2/4 46/1/4
f 38/2/4 37/2/4 44/2/4 45/2/4
f 37/2/4 36/1/4 43/1/4 44/2/4
f 36/1/4 35/1/4 42/1/4 43/1/4
f 35/1/4 34/1/4 41/1/4 42/1/4
f 10/1/4 54/1/4 13/1/4 1/1/4
f 54/1/4 53/1/4 14/1/4 13/1/4
f 53/1/4 52/2/4 15/1/4 14/1/4
f 52/2/4 51/2/4 16/2/4 15/1/4
f 51/2/4 50/1/4 17/2/4 16/2/4
f 50/1/4 49/1/4 18/1/4 17/2/4
f 49/1/4 48/1/4 19/1/4 18/1/4
f 75/1/3 33/1/3 40/1/3 73/1/3
f 33/1/3 32/1/3 39/1/3 40/1/3
f 32/1/3 31/2/3 38/2/3 39/1/3
f 31/2/3 30/2/3 37/2/3 38/2/3
f 30/2/3 29/1/3 36/1/3 37/2/3
f 29/1/3 28/1/3 35/1/3 36/1/3
f 28/1/3 27/1/3 34/1/3 35/1/3
f 6/1/2 68/1/2 33/1/2 75/1/2
f 68/1/2 67/1/2 32/1/2 33/1/2
f 67/1/2 66/2/2 31/2/2 32/1/2
f 66/2/2 65/2/2 30/2/2 31/2/2
f 65/2/2 64/1/2 29/1/2 30/2/2
f 64/1/2 63/1/2 28/1/2 29/1/2
f 63/1/2 62/1/2 27/1/2 28/1/2
f 1/1/1 13/1/1 26/1/1 71/1/1
f 13/1/1 14/1/1 25/1/1 26/1/1
f 14/1/1 15/1/1 24/2/1 25/1/1
f 15/1/1 16/2/1 23/2/1 24/2/1
f 16/2/1 17/2/1 22/1/1 23/2/1
f 17/2/1 18/1/1 21/1/1 22/1/1
f 18/1/1 19/1/1 20/1/1 21/1/1
f 68/1/6 47/1/6 54/1/6 61/1/6
f 47/1/1 68/1/1 6/1/1 80/1/1
f 60/1/5 53/1/5 46/1/5 67/1/5
f 46/1/1 45/2/1 66/2/1 67/1/1
f 59/2/6 66/2/6 45/2/6 52/2/6
f 53/1/3 60/1/3 59/2/3 52/2/3
f 58/2/5 51/2/5 44/2/5 65/2/5
f 44/2/1 43/1/1 64/1/1 65/2/1
f 57/1/6 64/1/6 43/1/6 50/1/6
f 51/2/3 58/2/3 57/1/3 50/1/3
f 56/1/5 49/1/5 42/1/5 63/1/5
f 42/1/1 41/1/1 62/1/1 63/1/1
f 55/1/6 62/1/6 41/1/6 48/1/6
f 49/1/3 56/1/3 55/1/3 48/1/3
f 87/1/1 1/1/1 71/1/1 88/1/1
f 130/1/2 6/1/2 75/1/2 95/1/2
f 95/1/3 75/1/3 73/1/3 102/1/3
f 116/1/4 10/1/4 1/1/4 87/1/4
f 76/1/6 74/1/6 72/1/6 79/1/6
f 6/1/5 7/1/5 10/1/5 80/1/5
f 70/1/6 77/1/6 78/1/6 69/1/6
f 122/1/3 78/1/3 77/1/3 129/1/3
f 102/1/4 73/1/4 80/1/4 109/1/4
f 109/1/4 80/1/4 10/1/4 116/1/4
f 88/1/2 71/1/2 7/1/2 123/1/2
f 123/1/2 7/1/2 6/1/2 130/1/2
f 129/1/2 128/1/2 135/1/2 136/1/2
f 127/2/2 126/2/2 133/2/2 134/2/2
f 125/1/2 124/1/2 131/1/2 132/1/2
f 70/1/2 94/1/2 129/1/2 77/1/2
f 94/1/2 93/1/2 128/1/2 129/1/2
f 93/1/2 92/2/2 127/2/2 128/1/2
f 92/2/2 91/2/2 126/2/2 127/2/2
f 91/2/2 90/1/2 125/1/2 126/2/2
f 90/1/2 89/1/2 124/1/2 125/1/2
f 89/1/2 88/1/2 123/1/2 124/1/2
f 115/1/4 114/1/4 121/1/4 122/1/4
f 113/2/4 112/2/4 119/2/4 120/2/4
f 111/1/4 110/1/4 117/1/4 118/1/4
f 72/1/4 108/1/4 115/1/4 79/1/4
f 108/1/4 107/1/4 114/1/4 115/1/4
f 107/1/4 106/2/4 113/2/4 114/1/4
f 106/2/4 105/2/4 112/2/4 113/2/4
f 105/2/4 104/1/4 111/1/4 112/2/4
f 104/1/4 103/1/4 110/1/4 111/1/4
f 103/1/4 102/1/4 109/1/4 110/1/4
f 78/1/4 122/1/4 81/1/4 69/1/4
f 122/1/4 121/1/4 82/1/4 81/1/4
f 121/1/4 120/2/4 83/1/4 82/1/4
f 120/2/4 119/2/4 84/2/4 83/1/4
f 119/2/4 118/1/4 85/2/4 84/2/4
f 118/1/4 117/1/4 86/1/4 85/2/4
f 117/1/4 116/1/4 87/1/4 86/1/4
f 74/1/3 101/1/3 108/1/3 72/1/3
f 101/1/3 100/1/3 107/1/3 108/1/3
f 100/1/3 99/2/3 106/2/3 107/1/3
f 99/2/3 98/2/3 105/2/3 106/2/3
f 98/2/3 97/1/3 104/1/3 105/2/3
f 97/1/3 96/1/3 103/1/3 104/1/3
f 96/1/3 95/1/3 102/1/3 103/1/3
f 76/1/2 136/1/2 101/1/2 74/1/2
f 136/1/2 135/1/2 100/1/2 101/1/2
f 135/1/2 134/2/2 99/2/2 100/1/2
f 134/2/2 133/2/2 98/2/2 99/2/2
f 133/2/2 132/1/2 97/1/2 98/2/2
f 132/1/2 131/1/2 96/1/2 97/1/2
f 131/1/2 130/1/2 95/1/2 96/1/2
f 69/1/1 81/1/1 94/1/1 70/1/1
f 81/1/1 82/1/1 93/1/1 94/1/1
f 82/1/1 83/1/1 92/2/1 93/1/1
f 83/1/1 84/2/1 91/2/1 92/2/1
f 84/2/1 85/2/1 90/1/1 91/2/1
f 85/2/1 86/1/1 89/1/1 90/1/1
f 86/1/1 87/1/1 88/1/1 89/1/1
f 136/1/6 115/1/6 122/1/6 129/1/6
f 115/1/1 136/1/1 76/1/1 79/1/1
f 128/1/5 121/1/5 114/1/5 135/1/5
f 114/1/1 113/2/1 134/2/1 135/1/1
f 127/2/6 134/2/6 113/2/6 120/2/6
f 121/1/3 128/1/3 127/2/3 120/2/3
f 126/2/5 119/2/5 112/2/5 133/2/5
f 112/2/1 111/1/1 132/1/1 133/2/1
f 125/1/6 132/1/6 111/1/6 118/1/6
f 119/2/3 126/2/3 125/1/3 118/1/3
f 124/1/5 117/1/5 110/1/5 131/1/5
f 110/1/1 109/1/1 130/1/1 131/1/1
f 123/1/6 130/1/6 109/1/6 116/1/6
f 117/1/3 124/1/3 123/1/3 116/1/3
f 155/1/1 138/1/1 139/1/1 156/1/1
f 198/1/2 145/1/2 141/1/2 163/1/2
f 163/1/3 141/1/3 140/1/3 170/1/3
f 184/1/4 148/1/4 138/1/4 155/1/4
f 144/1/5 139/1/5 138/1/5 148/1/5
f 141/1/5 145/1/5 147/1/5 140/1/5
f 145/1/5 144/1/5 148/1/5 147/1/5
f 190/1/3 146/1/3 143/1/3 197/1/3
f 170/1/4 140/1/4 147/1/4 177/1/4
f 177/1/4 147/1/4 148/1/4 184/1/4
f 156/1/2 139/1/2 144/1/2 191/1/2
f 191/1/2 144/1/2 145/1/2 198/1/2
f 197/1/2 196/1/2 203/1/2 204/1/2
f 195/2/2 194/2/2 201/2/2 202/2/2
f 193/1/2 192/1/2 199/1/2 200/1/2
f 207/1/2 162/1/2 197/1/2 143/1/2
f 162/1/2 161/1/2 196/1/2 197/1/2
f 161/1/2 160/2/2 195/2/2 196/1/2
f 160/2/2 159/2/2 194/2/2 195/2/2
f 159/2/2 158/1/2 193/1/2 194/2/2
f 158/1/2 157/1/2 192/1/2 193/1/2
f 157/1/2 156/1/2 191/1/2 192/1/2
f 183/1/4 182/1/4 189/1/4 190/1/4
f 181/2/4 180/2/4 187/2/4 188/2/4
f 179/1/4 178/1/4 185/1/4 186/1/4
f 209/1/4 176/1/4 183/1/4 216/1/4
f 176/1/4 175/1/4 182/1/4 183/1/4
f 175/1/4 174/2/4 181/2/4 182/1/4
f 174/2/4 173/2/4 180/2/4 181/2/4
f 173/2/4 172/1/4 179/1/4 180/2/4
f 172/1/4 171/1/4 178/1/4 179/1/4
f 171/1/4 170/1/4 177/1/4 178/1/4
f 146/1/4 190/1/4 149/1/4 137/1/4
f 190/1/4 189/1/4 150/1/4 149/1/4
f 189/1/4 188/2/4 151/1/4 150/1/4
f 188/2/4 187/2/4 152/2/4 151/1/4
f 187/2/4 186/1/4 153/2/4 152/2/4
f 186/1/4 185/1/4 154/1/4 153/2/4
f 185/1/4 184/1/4 155/1/4 154/1/4
f 211/1/3 169/1/3 176/1/3 209/1/3
f 169/1/3 168/1/3 175/1/3 176/1/3
f 168/1/3 167/2/3 174/2/3 175/1/3
f 167/2/3 166/2/3 173/2/3 174/2/3
f 166/2/3 165/1/3 172/1/3 173/2/3
f 165/1/3 164/1/3 171/1/3 172/1/3
f 164/1/3 163/1/3 170/1/3 171/1/3
f 142/1/2 204/1/2 169/1/2 211/1/2
f 204/1/2 203/1/2 168/1/2 169/1/2
f 203/1/2 202/2/2 167/2/2 168/1/2
f 202/2/2 201/2/2 166/2/2 167/2/2
f 201/2/2 200/1/2 165/1/2 166/2/2
f 200/1/2 199/1/2 164/1/2 165/1/2
f 199/1/2 198/1/2 163/1/2 164/1/2
f 137/1/1 149/1/1 162/1/1 207/1/1
f 149/1/1 150/1/1 161/1/1 162/1/1
f 150/1/1 151/1/1 160/2/1 161/1/1
f 151/1/1 152/2/1 159/2/1 160/2/1
f 152/2/1 153/2/1 158/1/1 159/2/1
f 153/2/1 154/1/1 157/1/1 158/1/1
f 154/1/1 155/1/1 156/1/1 157/1/1
f 204/1/6 183/1/6 190/1/6 197/1/6
f 183/1/1 204/1/1 142/1/1 216/1/1
f 196/1/5 189/1/5 182/1/5 203/1/5
f 182/1/1 181/2/1 202/2/1 203/1/1
f 195/2/6 202/2/6 181/2/6 188/2/6
f 189/1/3 196/1/3 195/2/3 188/2/3
f 194/2/5 187/2/5 180/2/5 201/2/5
f 180/2/1 179/1/1 200/1/1 201/2/1
f 193/1/6 200/1/6 179/1/6 186/1/6
f 187/2/3 194/2/3 193/1/3 186/1/3
f 192/1/5 185/1/5 178/1/5 199/1/5
f 178/1/1 177/1/1 198/1/1 199/1/1
f 191/1/6 198/1/6 177/1/6 184/1/6
f 185/1/3 192/1/3 191/1/3 184/1/3
f 223/1/1 137/1/1 207/1/1 224/1/1
f 266/1/2 142/1/2 211/1/2 231/1/2
f 231/1/3 211/1/3 209/1/3 238/1/3
f 252/1/4 146/1/4 137/1/4 223/1/4
f 212/1/6 210/1/6 208/1/6 215/1/6
f 142/1/5 143/1/5 146/1/5 216/1/5
f 206/1/6 213/1/6 214/1/6 205/1/6
f 258/1/3 214/1/3 213/1/3 265/1/3
f 238/1/4 209/1/4 216/1/4 245/1/4
f 245/1/4 216/1/4 146/1/4 252/1/4
f 224/1/2 207/1/2 143/1/2 259/1/2
f 259/1/2 143/1/2 142/1/2 266/1/2
f 265/1/2 264/1/2 271/1/2 272/1/2
f 263/2/2 262/2/2 269/2/2 270/2/2
f 261/1/2 260/1/2 267/1/2 268/1/2
f 206/1/2 230/1/2 265/1/2 213/1/2
f 230/1/2 229/1/2 264/1/2 265/1/2
f 229/1/2 228/2/2 263/2/2 264/1/2
f 228/2/2 227/2/2 262/2/2 263/2/2
f 227/2/2 226/1/2 261/1/2 262/2/2
f 226/1/2 225/1/2 260/1/2 261/1/2
f 225/1/2 224/1/2 259/1/2 260/1/2
f 251/1/4 250/1/4 257/1/4 258/1/4
f 249/2/4 248/2/4 255/2/4 256/2/4
f 247/1/4 246/1/4 253/1/4 254/1/4
f 208/1/4 244/1/4 251/1/4 215/1/4
f 244/1/4 243/1/4 250/1/4 251/1/4
f 243/1/4 242/2/4 249/2/4 250/1/4
f 242/2/4 241/2/4 248/2/4 249/2/4
f 241/2/4 240/1/4 247/1/4 248/2/4
f 240/1/4 239/1/4 246/1/4 247/1/4
f 239/1/4 238/1/4 245/1/4 246/1/4
f 214/1/4 258/1/4 217/1/4 205/1/4
f 258/1/4 257/1/4 218/1/4 217/1/4
f 257/1/4 256/2/4 219/1/4 218/1/4
f 256/2/4 255/2/4 220/2/4 219/1/4
f 255/2/4 254/1/4 221/2/4 220/2/4
f 254/1/4 253/1/4 222/1/4 221/2/4
f 253/1/4 252/1/4 223/1/4 222/1/4
f 210/1/3 237/1/3 244/1/3 208/1/3
f 237/1/3 236/1/3 243/1/3 244/1/3
f 236/1/3 235/2/3 242/2/3 243/1/3
f 235/2/3 234/2/3 241/2/3 242/2/3
f 234/2/3 233/1/3 240/1/3 241/2/3
f 233/1/3 232/1/3 239/1/3 240/1/3
f 232/1/3 231/1/3 238/1/3 239/1/3
f 212/1/2 272/1/2 237/1/2 210/1/2
f 272/1/2 271/1/2 236/1/2 237/1/2
f 271/1/2 270/2/2 235/2/2 236/1/2
f 270/2/2 269/2/2 234/2/2 235/2/2
f 269/2/2 268/1/2 233/1/2 234/2/2
f 268/1/2 267/1/2 232/1/2 233/1/2
f 267/1/2 266/1/2 231/1/2 232/1/2
f 205/1/1 217/1/1 230/1/1 206/1/1
f 217/1/1 218/1/1 229/1/1 230/1/1
f 218/1/1 219/1/1 228/2/1 229/1/1
f 219/1/1 220/2/1 227/2/1 228/2/1
f 220/2/1 221/2/1 226/1/1 227/2/1
f 221/2/1 222/1/1 225/1/1 226/1/1
f 222/1/1 223/1/1 224/1/1 225/1/1
f 272/1/6 251/1/6 258/1/6 265/1/6
f 251/1/1 272/1/1 212/1/1 215/1/1
f 264/1/5 257/1/5 250/1/5 271/1/5
f 250/1/1 249/2/1 270/2/1 271/1/1
f 263/2/6 270/2/6 249/2/6 256/2/6
f 257/1/3 264/1/3 263/2/3 256/2/3
f 262/2/5 255/2/5 248/2/5 269/2/5
f 248/2/1 247/1/1 268/1/1 269/2/1
f 261/1/6 268/1/6 247/1/6 254/1/6
f 255/2/3 262/2/3 261/1/3 254/1/3
f 260/1/5 253/1/5 246/1/5 267/1/5
f 246/1/1 245/1/1 266/1/1 267/1/1
f 259/1/6 266/1/6 245/1/6 252/1/6
f 253/1/3 260/1/3 259/1/3 252/1/3
f 295/1/1 274/1/1 276/1/1 296/1/1
f 338/1/2 284/1/2 280/1/2 303/1/2
f 303/1/3 280/1/3 278/1/3 310/1/3
f 324/1/4 288/1/4 274/1/4 295/1/4
f 281/1/6 279/1/6 277/1/6 286/1/6
f 283/1/5 276/1/5 274/1/5 288/1/5
f 280/1/5 284/1/5 287/1/5 278/1/5
f 284/1/5 283/1/5 288/1/5 287/1/5
f 275/1/6 282/1/6 285/1/6 273/1/6
f 330/1/3 285/1/3 282/1/3 337/1/3
f 310/1/4 278/1/4 287/1/4 317/1/4
f 317/1/4 287/1/4 288/1/4 324/1/4
f 296/1/2 276/1/2 283/1/2 331/1/2
f 331/1/2 283/1/2 284/1/2 338/1/2
f 337/1/2 336/1/2 343/1/2 344/1/2
f 335/2/2 334/2/2 341/2/2 342/2/2
f 333/1/2 332/1/2 339/1/2 340/1/2
f 275/1/2 302/1/2 337/1/2 282/1/2
f 302/1/2 301/1/2 336/1/2 337/1/2
f 301/1/2 300/2/2 335/2/2 336/1/2
f 300/2/2 299/2/2 334/2/2 335/2/2
f 299/2/2 298/1/2 333/1/2 334/2/2
f 298/1/2 297/1/2 332/1/2 333/1/2
f 297/1/2 296/1/2 331/1/2 332/1/2
f 323/1/4 322/1/4 329/1/4 330/1/4
f 321/2/4 320/2/4 327/2/4 328/2/4
f 319/1/4 318/1/4 325/1/4 326/1/4
f 277/1/4 316/1/4 323/1/4 286/1/4
f 316/1/4 315/1/4 322/1/4 323/1/4
f 315/1/4 314/2/4 321/2/4 322/1/4
f 314/2/4 313/2/4 320/2/4 321/2/4
f 313/2/4 312/1/4 319/1/4 320/2/4
f 312/1/4 311/1/4 318/1/4 319/1/4
f 311/1/4 310/1/4 317/1/4 318/1/4
f 285/1/4 330/1/4 289/1/4 273/1/4
f 330/1/4 329/1/4 290/1/4 289/1/4
f 329/1/4 328/2/4 291/1/4 290/1/4
f 328/2/4 327/2/4 292/2/4 291/1/4
f 327/2/4 326/1/4 293/2/4 292/2/4
f 326/1/4 325/1/4 294/1/4 293/2/4
f 325/1/4 324/1/4 295/1/4 294/1/4
f 279/1/3 309/1/3 316/1/3 277/1/3
f 309/1/3 308/1/3 315/1/3 316/1/3
f 308/1/3 307/2/3 314/2/3 315/1/3
f 307/2/3 306/2/3 313/2/3 314/2/3
f 306/2/3 305/1/3 312/1/3 313/2/3
f 305/1/3 304/1/3 311/1/3 312/1/3
f 304/1/3 303/1/3 310/1/3 311/1/3
f 281/1/2 344/1/2 309/1/2 279/1/2
f 344/1/2 343/1/2 308/1/2 309/1/2
f 343/1/2 342/2/2 307/2/2 308/1/2
f 342/2/2 341/2/2 306/2/2 307/2/2
f 341/2/2 340/1/2 305/1/2 306/2/2
f 340/1/2 339/1/2 304/1/2 305/1/2
f 339/1/2 338/1/2 303/1/2 304/1/2
f 273/1/1 289/1/1 302/1/1 275/1/1
f 289/1/1 290/1/1 301/1/1 302/1/1
f 290/1/1 291/1/1 300/2/1 301/1/1
f 291/1/1 292/2/1 299/2/1 300/2/1
f 292/2/1 293/2/1 298/1/1 299/2/1
f 293/2/1 294/1/1 297/1/1 298/1/1
f 294/1/1 295/1/1 296/1/1 297/1/1
f 344/1/6 323/1/6 330/1/6 337/1/6
f 323/1/1 344/1/1 281/1/1 286/1/1
f 336/1/5 329/1/5 322/1/5 343/1/5
f 322/1/1 321/2/1 342/2/1 343/1/1
f 335/2/6 342/2/6 321/2/6 328/2/6
f 329/1/3 336/1/3 335/2/3 328/2/3
f 334/2/5 327/2/5 320/2/5 341/2/5
f 320/2/1 319/1/1 340/1/1 341/2/1
f 333/1/6 340/1/6 319/1/6 326/1/6
f 327/2/3 334/2/3 333/1/3 326/1/3
f 332/1/5 325/1/5 318/1/5 339/1/5
f 318/1/1 317/1/1 338/1/1 339/1/1
f 331/1/6 338/1/6 317/1/6 324/1/6
f 325/1/3 332/1/3 331/1/3 324/1/3
