# Blender 4.5.3 LTS
# www.blender.org
mtllib pared1a.mtl
o Wall.070
v 3.864765 4.003867 14.294121
v 0.864765 4.003867 14.294266
v 3.864717 4.003867 13.294121
v 0.864717 4.003867 13.294266
v 3.864765 8.003866 14.294121
v 0.864765 8.003866 14.294266
v 3.864717 8.003866 13.294121
v 0.864717 8.003866 13.294266
v -11.135287 4.003867 13.293943
v -7.135287 4.003867 13.293750
v -11.135239 4.003867 14.293943
v -7.135239 4.003867 14.293750
v -11.135287 8.003866 13.293943
v -7.135287 8.003866 13.293750
v -11.135239 8.003866 14.293943
v -7.135239 8.003866 14.293750
v -7.135285 4.003867 13.293750
v -3.135285 4.003867 13.293557
v -7.135237 4.003867 14.293750
v -3.135237 4.003867 14.293557
v -7.135285 8.003866 13.293750
v -3.135285 8.003866 13.293557
v -7.135237 8.003866 14.293750
v -3.135237 8.003866 14.293557
v -3.135283 4.003867 13.293557
v 0.864717 4.003867 13.293364
v -3.135235 4.003867 14.293557
v 0.864765 4.003867 14.293364
v -3.135283 8.003866 13.293557
v 0.864717 8.003866 13.293364
v -3.135235 8.003866 14.293557
v 0.864765 8.003866 14.293364
v -11.135238 4.003866 14.294845
v -14.135238 4.003867 14.294990
v -11.135286 4.003866 13.294845
v -14.135286 4.003867 13.294990
v -11.135238 8.003866 14.294845
v -14.135238 8.003866 14.294990
v -11.135286 8.003866 13.294845
v -14.135286 8.003866 13.294990
vn 1.0000 -0.0000 -0.0000
vn -1.0000 -0.0000 -0.0000
vn -0.0000 -0.0000 1.0000
vn -0.0000 1.0000 -0.0000
vn -0.0000 -0.0000 -1.0000
vn -0.0000 -1.0000 -0.0000
vt 0.061981 0.187981
vt 0.061981 0.187981
s 1
usemtl Material.176
f 3/1/1 7/1/1 5/1/1 1/1/1
f 8/1/2 4/1/2 2/1/2 6/1/2
f 5/1/3 6/1/3 2/1/3 1/1/3
f 7/1/4 8/2/4 6/1/4 5/1/4
f 3/1/5 4/2/5 8/2/5 7/1/5
f 1/1/6 2/1/6 4/2/6 3/1/6
usemtl Material.118
f 11/1/2 15/1/2 13/1/2 9/1/2
f 16/1/1 12/1/1 10/1/1 14/1/1
f 13/1/5 14/1/5 10/1/5 9/1/5
f 15/1/4 16/2/4 14/1/4 13/1/4
f 11/1/3 12/2/3 16/2/3 15/1/3
f 9/1/6 10/1/6 12/2/6 11/1/6
usemtl Material.119
f 19/1/2 23/1/2 21/1/2 17/1/2
f 24/1/1 20/1/1 18/1/1 22/1/1
f 21/1/5 22/1/5 18/1/5 17/1/5
f 23/1/4 24/2/4 22/1/4 21/1/4
f 19/1/3 20/2/3 24/2/3 23/1/3
f 17/1/6 18/1/6 20/2/6 19/1/6
usemtl Material.120
f 27/1/2 31/1/2 29/1/2 25/1/2
f 32/1/1 28/1/1 26/1/1 30/1/1
f 29/1/5 30/1/5 26/1/5 25/1/5
f 31/1/4 32/2/4 30/1/4 29/1/4
f 27/1/3 28/2/3 32/2/3 31/1/3
f 25/1/6 26/1/6 28/2/6 27/1/6
usemtl Material.177
f 35/1/1 39/1/1 37/1/1 33/1/1
f 40/1/2 36/1/2 34/1/2 38/1/2
f 37/1/3 38/1/3 34/1/3 33/1/3
f 39/1/4 40/2/4 38/1/4 37/1/4
f 35/1/5 36/2/5 40/2/5 39/1/5
f 33/1/6 34/1/6 36/2/6 35/1/6
