# Blender 4.5.3 LTS
# www.blender.org
mtllib pared1c.mtl
o Wall.063
v 3.864765 0.003870 14.294121
v 0.864765 0.003871 14.294266
v 3.864717 0.003870 13.294121
v 0.864717 0.003871 13.294266
v 3.864765 4.003870 14.294121
v 0.864765 4.003870 14.294266
v 3.864717 4.003870 13.294121
v 0.864717 4.003870 13.294266
v -3.135283 0.003870 13.293557
v 0.864717 0.003871 13.293364
v -3.135235 0.003870 14.293557
v 0.864765 0.003871 14.293364
v -3.135283 4.003870 13.293557
v 0.864717 4.003870 13.293364
v -3.135235 4.003870 14.293557
v 0.864765 4.003870 14.293364
vn 1.0000 -0.0000 -0.0000
vn -1.0000 -0.0000 -0.0000
vn -0.0000 -0.0000 1.0000
vn -0.0000 1.0000 -0.0000
vn -0.0000 -0.0000 -1.0000
vn -0.0000 -1.0000 -0.0000
vt 0.061981 0.187981
vt 0.061981 0.187981
s 1
usemtl Material.168
f 3/1/1 7/1/1 5/1/1 1/1/1
f 8/1/2 4/1/2 2/1/2 6/1/2
f 5/1/3 6/1/3 2/1/3 1/1/3
f 7/1/4 8/2/4 6/1/4 5/1/4
f 3/1/5 4/2/5 8/2/5 7/1/5
f 1/1/6 2/1/6 4/2/6 3/1/6
usemtl Material.116
f 11/1/2 15/1/2 13/1/2 9/1/2
f 16/1/1 12/1/1 10/1/1 14/1/1
f 13/1/5 14/1/5 10/1/5 9/1/5
f 15/1/4 16/2/4 14/1/4 13/1/4
f 11/1/3 12/2/3 16/2/3 15/1/3
f 9/1/6 10/1/6 12/2/6 11/1/6
