# Blender 4.5.3 LTS
# www.blender.org
mtllib puerta1.mtl
o Wall_door.005
v -6.135283 0.003867 13.293706
v -4.135283 0.003867 13.293609
v -6.135235 0.003867 14.293706
v -4.135235 0.003868 14.293609
v -6.135283 3.003867 13.293706
v -4.135283 3.003867 13.293609
v -6.135235 3.003867 14.293705
v -4.135235 3.003867 14.293608
v -7.135235 4.003867 14.293754
v -7.135235 0.003867 14.293755
v -3.135235 0.003868 14.293560
v -3.135235 4.003867 14.293559
v -7.135283 0.003867 13.293755
v -7.135283 4.003867 13.293754
v -3.135284 4.003867 13.293559
v -3.135283 0.003867 13.293560
vn -1.0000 -0.0000 -0.0000
vn 1.0000 -0.0000 -0.0000
vn -0.0000 1.0000 -0.0000
vn -0.0000 -1.0000 -0.0000
vn -0.0000 -0.0000 1.0000
vn -0.0000 -0.0000 -1.0000
vt 0.061981 0.187981
vt 0.061981 0.187981
vt 0.061981 0.187981
vt 0.061981 0.187981
vt 0.061981 0.187980
vt 0.061981 0.187981
s 1
usemtl Material.001
f 10/1/1 9/1/1 14/1/1 13/1/1
f 12/1/2 11/1/2 16/1/2 15/1/2
f 6/2/1 2/3/1 4/4/1 8/3/1
f 9/1/3 12/3/3 15/1/3 14/1/3
f 5/5/4 6/2/4 8/3/4 7/3/4
f 3/6/5 7/3/5 9/1/5 10/1/5
f 8/3/5 4/4/5 11/3/5 12/3/5
f 5/5/6 1/1/6 13/1/6 14/1/6
f 2/3/6 6/2/6 15/1/6 16/1/6
f 10/1/4 13/1/4 1/1/4 3/6/4
f 6/2/6 5/5/6 14/1/6 15/1/6
f 7/3/5 8/3/5 12/3/5 9/1/5
f 11/3/4 4/4/4 2/3/4 16/1/4
f 1/1/2 5/5/2 7/3/2 3/6/2
