# Blender 4.5.3 LTS
# www.blender.org
mtllib techo1.mtl
o Pillar.006
v -3.135187 5.003867 15.293564
v -7.135187 5.003868 15.293758
v -3.135187 4.003867 15.293564
v -7.135187 4.003868 15.293758
v -3.135235 5.003867 14.293564
v -7.135235 5.003868 14.293758
v -3.135235 4.003867 14.293564
v -7.135235 4.003868 14.293758
vn -0.0000 -0.0000 1.0000
vn -0.0000 -1.0000 -0.0000
vn -0.0000 -0.0000 -1.0000
vn -0.0000 1.0000 -0.0000
vn 1.0000 -0.0000 -0.0000
vn -1.0000 -0.0000 -0.0000
vt 0.061981 0.187981
s 1
usemtl Material.208
f 1/1/1 2/1/1 4/1/1 3/1/1
f 3/1/2 4/1/2 8/1/2 7/1/2
f 7/1/3 8/1/3 6/1/3 5/1/3
f 5/1/4 6/1/4 2/1/4 1/1/4
f 3/1/5 7/1/5 5/1/5 1/1/5
f 8/1/6 4/1/6 2/1/6 6/1/6
