# Blender 4.5.3 LTS
# www.blender.org
mtllib paredB.mtl
o Railing.004
v 0.510000 0.252292 -3.872159
v 0.510000 1.747708 -3.872159
v 0.615793 0.252292 -3.811080
v 0.615793 1.747708 -3.811080
v 0.615793 0.252292 -3.688920
v 0.615793 1.747708 -3.688920
v 0.510000 0.252292 -3.627841
v 0.510000 1.747708 -3.627841
v 0.404207 0.252292 -3.688920
v 0.404207 1.747708 -3.688920
v 0.404207 0.252292 -3.811080
v 0.404207 1.747708 -3.811080
v 1.510000 0.252292 -3.872159
v 1.510000 1.747708 -3.872159
v 1.615793 0.252292 -3.811080
v 1.615793 1.747708 -3.811080
v 1.615793 0.252292 -3.688920
v 1.615793 1.747708 -3.688920
v 1.510000 0.252292 -3.627841
v 1.510000 1.747708 -3.627841
v 1.404207 0.252292 -3.688920
v 1.404207 1.747708 -3.688920
v 1.404207 0.252292 -3.811080
v 1.404207 1.747708 -3.811080
v 2.510000 0.252292 -3.872159
v 2.510000 1.747708 -3.872159
v 2.615793 0.252292 -3.811080
v 2.615793 1.747708 -3.811080
v 2.615793 0.252292 -3.688920
v 2.615793 1.747708 -3.688920
v 2.510000 0.252292 -3.627841
v 2.510000 1.747708 -3.627841
v 2.404207 0.252292 -3.688920
v 2.404207 1.747708 -3.688920
v 2.404207 0.252292 -3.811080
v 2.404207 1.747708 -3.811080
v 3.510000 0.252292 -3.872159
v 3.510000 1.747708 -3.872159
v 3.615793 0.252292 -3.811080
v 3.615793 1.747708 -3.811080
v 3.615793 0.252292 -3.688920
v 3.615793 1.747708 -3.688920
v 3.510000 0.252292 -3.627841
v 3.510000 1.747708 -3.627841
v 3.404207 0.252292 -3.688920
v 3.404207 1.747708 -3.688920
v 3.404207 0.252292 -3.811080
v 3.404207 1.747708 -3.811080
v 0.000000 0.000000 -4.000000
v 0.000000 0.000000 -3.500000
v 0.000000 2.000000 -4.000000
v 0.000000 2.000000 -3.500000
v 4.000000 0.000000 -4.000000
v 4.000000 0.000000 -3.500000
v 4.000000 2.000000 -4.000000
v 4.000000 2.000000 -3.500000
v 0.000000 1.593998 -4.000000
v 0.000000 0.406002 -4.000000
v 0.000000 0.406002 -3.500000
v 0.000000 1.593998 -3.500000
v 4.000000 0.406002 -4.000000
v 4.000000 1.593998 -4.000000
v 4.000000 1.593998 -3.500000
v 4.000000 0.406002 -3.500000
v -3.490000 4.252292 -3.872159
v -3.490000 5.747708 -3.872159
v -3.384207 4.252292 -3.811079
v -3.384207 5.747708 -3.811079
v -3.384207 4.252292 -3.688920
v -3.384207 5.747708 -3.688920
v -3.490000 4.252292 -3.627840
v -3.490000 5.747708 -3.627840
v -3.595793 4.252292 -3.688920
v -3.595793 5.747708 -3.688920
v -3.595793 4.252292 -3.811079
v -3.595793 5.747708 -3.811079
v -2.490000 4.252292 -3.872159
v -2.490000 5.747708 -3.872159
v -2.384207 4.252292 -3.811079
v -2.384207 5.747708 -3.811079
v -2.384207 4.252292 -3.688920
v -2.384207 5.747708 -3.688920
v -2.490000 4.252292 -3.627840
v -2.490000 5.747708 -3.627840
v -2.595793 4.252292 -3.688920
v -2.595793 5.747708 -3.688920
v -2.595793 4.252292 -3.811079
v -2.595793 5.747708 -3.811079
v -1.490000 4.252292 -3.872159
v -1.490000 5.747708 -3.872159
v -1.384207 4.252292 -3.811079
v -1.384207 5.747708 -3.811079
v -1.384207 4.252292 -3.688920
v -1.384207 5.747708 -3.688920
v -1.490000 4.252292 -3.627840
v -1.490000 5.747708 -3.627840
v -1.595793 4.252292 -3.688920
v -1.595793 5.747708 -3.688920
v -1.595793 4.252292 -3.811079
v -1.595793 5.747708 -3.811079
v -0.490000 4.252292 -3.872159
v -0.490000 5.747708 -3.872159
v -0.384207 4.252292 -3.811079
v -0.384207 5.747708 -3.811079
v -0.384207 4.252292 -3.688920
v -0.384207 5.747708 -3.688920
v -0.490000 4.252292 -3.627840
v -0.490000 5.747708 -3.627840
v -0.595793 4.252292 -3.688920
v -0.595793 5.747708 -3.688920
v -0.595793 4.252292 -3.811079
v -0.595793 5.747708 -3.811079
v -4.000000 4.000000 -3.999999
v -4.000000 4.000000 -3.499999
v -4.000000 6.000000 -3.999999
v -4.000000 6.000000 -3.499999
v 0.000000 4.000000 -3.999999
v 0.000000 4.000000 -3.499999
v 0.000000 6.000000 -3.999999
v 0.000000 6.000000 -3.499999
v -4.000000 5.593998 -3.999999
v -4.000000 4.406002 -3.999999
v -4.000000 4.406002 -3.499999
v -4.000000 5.593998 -3.499999
v 0.000000 4.406002 -3.999999
v 0.000000 5.593998 -3.999999
v 0.000000 5.593998 -3.499999
v 0.000000 4.406002 -3.499999
v -3.490000 0.252292 -3.872159
v -3.490000 1.747708 -3.872159
v -3.384207 0.252292 -3.811080
v -3.384207 1.747708 -3.811080
v -3.384207 0.252292 -3.688920
v -3.384207 1.747708 -3.688920
v -3.490000 0.252292 -3.627841
v -3.490000 1.747708 -3.627841
v -3.595793 0.252292 -3.688920
v -3.595793 1.747708 -3.688920
v -3.595793 0.252292 -3.811080
v -3.595793 1.747708 -3.811080
v -2.490000 0.252292 -3.872159
v -2.490000 1.747708 -3.872159
v -2.384207 0.252292 -3.811080
v -2.384207 1.747708 -3.811080
v -2.384207 0.252292 -3.688920
v -2.384207 1.747708 -3.688920
v -2.490000 0.252292 -3.627841
v -2.490000 1.747708 -3.627841
v -2.595793 0.252292 -3.688920
v -2.595793 1.747708 -3.688920
v -2.595793 0.252292 -3.811080
v -2.595793 1.747708 -3.811080
v -1.490000 0.252292 -3.872159
v -1.490000 1.747708 -3.872159
v -1.384207 0.252292 -3.811080
v -1.384207 1.747708 -3.811080
v -1.384207 0.252292 -3.688920
v -1.384207 1.747708 -3.688920
v -1.490000 0.252292 -3.627841
v -1.490000 1.747708 -3.627841
v -1.595793 0.252292 -3.688920
v -1.595793 1.747708 -3.688920
v -1.595793 0.252292 -3.811080
v -1.595793 1.747708 -3.811080
v -0.490000 0.252292 -3.872159
v -0.490000 1.747708 -3.872159
v -0.384207 0.252292 -3.811080
v -0.384207 1.747708 -3.811080
v -0.384207 0.252292 -3.688920
v -0.384207 1.747708 -3.688920
v -0.490000 0.252292 -3.627841
v -0.490000 1.747708 -3.627841
v -0.595793 0.252292 -3.688920
v -0.595793 1.747708 -3.688920
v -0.595793 0.252292 -3.811080
v -0.595793 1.747708 -3.811080
v -4.000000 0.000000 -4.000000
v -4.000000 0.000000 -3.500000
v -4.000000 2.000000 -4.000000
v -4.000000 2.000000 -3.500000
v 0.000000 0.000000 -4.000000
v 0.000000 0.000000 -3.500000
v 0.000000 2.000000 -4.000000
v 0.000000 2.000000 -3.500000
v -4.000000 1.593998 -4.000000
v -4.000000 0.406002 -4.000000
v -4.000000 0.406002 -3.500000
v -4.000000 1.593998 -3.500000
v 0.000000 0.406002 -4.000000
v 0.000000 1.593998 -4.000000
v 0.000000 1.593998 -3.500000
v 0.000000 0.406002 -3.500000
v 0.510000 4.252292 -3.872159
v 0.510000 5.747708 -3.872159
v 0.615793 4.252292 -3.811079
v 0.615793 5.747708 -3.811079
v 0.615793 4.252292 -3.688920
v 0.615793 5.747708 -3.688920
v 0.510000 4.252292 -3.627840
v 0.510000 5.747708 -3.627840
v 0.404207 4.252292 -3.688920
v 0.404207 5.747708 -3.688920
v 0.404207 4.252292 -3.811079
v 0.404207 5.747708 -3.811079
v 1.510000 4.252292 -3.872159
v 1.510000 5.747708 -3.872159
v 1.615793 4.252292 -3.811079
v 1.615793 5.747708 -3.811079
v 1.615793 4.252292 -3.688920
v 1.615793 5.747708 -3.688920
v 1.510000 4.252292 -3.627840
v 1.510000 5.747708 -3.627840
v 1.404207 4.252292 -3.688920
v 1.404207 5.747708 -3.688920
v 1.404207 4.252292 -3.811079
v 1.404207 5.747708 -3.811079
v 2.510000 4.252292 -3.872159
v 2.510000 5.747708 -3.872159
v 2.615793 4.252292 -3.811079
v 2.615793 5.747708 -3.811079
v 2.615793 4.252292 -3.688920
v 2.615793 5.747708 -3.688920
v 2.510000 4.252292 -3.627840
v 2.510000 5.747708 -3.627840
v 2.404207 4.252292 -3.688920
v 2.404207 5.747708 -3.688920
v 2.404207 4.252292 -3.811079
v 2.404207 5.747708 -3.811079
v 3.510000 4.252292 -3.872159
v 3.510000 5.747708 -3.872159
v 3.615793 4.252292 -3.811079
v 3.615793 5.747708 -3.811079
v 3.615793 4.252292 -3.688920
v 3.615793 5.747708 -3.688920
v 3.510000 4.252292 -3.627840
v 3.510000 5.747708 -3.627840
v 3.404207 4.252292 -3.688920
v 3.404207 5.747708 -3.688920
v 3.404207 4.252292 -3.811079
v 3.404207 5.747708 -3.811079
v 0.000000 4.000000 -3.999999
v 0.000000 4.000000 -3.499999
v 0.000000 6.000000 -3.999999
v 0.000000 6.000000 -3.499999
v 4.000000 4.000000 -3.999999
v 4.000000 4.000000 -3.499999
v 4.000000 6.000000 -3.999999
v 4.000000 6.000000 -3.499999
v 0.000000 5.593998 -3.999999
v 0.000000 4.406002 -3.999999
v 0.000000 4.406002 -3.499999
v 0.000000 5.593998 -3.499999
v 4.000000 4.406002 -3.999999
v 4.000000 5.593998 -3.999999
v 4.000000 5.593998 -3.499999
v 4.000000 4.406002 -3.499999
v 0.510000 2.252292 -3.872159
v 0.510000 3.747708 -3.872159
v 0.615793 2.252292 -3.811079
v 0.615793 3.747708 -3.811079
v 0.615793 2.252292 -3.688920
v 0.615793 3.747708 -3.688920
v 0.510000 2.252292 -3.627840
v 0.510000 3.747708 -3.627840
v 0.404207 2.252292 -3.688920
v 0.404207 3.747708 -3.688920
v 0.404207 2.252292 -3.811079
v 0.404207 3.747708 -3.811079
v 1.510000 2.252292 -3.872159
v 1.510000 3.747708 -3.872159
v 1.615793 2.252292 -3.811079
v 1.615793 3.747708 -3.811079
v 1.615793 2.252292 -3.688920
v 1.615793 3.747708 -3.688920
v 1.510000 2.252292 -3.627840
v 1.510000 3.747708 -3.627840
v 1.404207 2.252292 -3.688920
v 1.404207 3.747708 -3.688920
v 1.404207 2.252292 -3.811079
v 1.404207 3.747708 -3.811079
v 2.510000 2.252292 -3.872159
v 2.510000 3.747708 -3.872159
v 2.615793 2.252292 -3.811079
v 2.615793 3.747708 -3.811079
v 2.615793 2.252292 -3.688920
v 2.615793 3.747708 -3.688920
v 2.510000 2.252292 -3.627840
v 2.510000 3.747708 -3.627840
v 2.404207 2.252292 -3.688920
v 2.404207 3.747708 -3.688920
v 2.404207 2.252292 -3.811079
v 2.404207 3.747708 -3.811079
v 3.510000 2.252292 -3.872159
v 3.510000 3.747708 -3.872159
v 3.615793 2.252292 -3.811079
v 3.615793 3.747708 -3.811079
v 3.615793 2.252292 -3.688920
v 3.615793 3.747708 -3.688920
v 3.510000 2.252292 -3.627840
v 3.510000 3.747708 -3.627840
v 3.404207 2.252292 -3.688920
v 3.404207 3.747708 -3.688920
v 3.404207 2.252292 -3.811079
v 3.404207 3.747708 -3.811079
v 0.000000 2.000000 -4.000000
v 0.000000 2.000000 -3.500000
v 0.000000 4.000000 -4.000000
v 0.000000 4.000000 -3.500000
v 4.000000 2.000000 -4.000000
v 4.000000 2.000000 -3.500000
v 4.000000 4.000000 -4.000000
v 4.000000 4.000000 -3.500000
v 0.000000 3.593998 -4.000000
v 0.000000 2.406002 -4.000000
v 0.000000 2.406002 -3.500000
v 0.000000 3.593998 -3.500000
v 4.000000 2.406002 -4.000000
v 4.000000 3.593998 -4.000000
v 4.000000 3.593998 -3.500000
v 4.000000 2.406002 -3.500000
v -3.490000 2.252292 -3.872159
v -3.490000 3.747708 -3.872159
v -3.384207 2.252292 -3.811079
v -3.384207 3.747708 -3.811079
v -3.384207 2.252292 -3.688920
v -3.384207 3.747708 -3.688920
v -3.490000 2.252292 -3.627840
v -3.490000 3.747708 -3.627840
v -3.595793 2.252292 -3.688920
v -3.595793 3.747708 -3.688920
v -3.595793 2.252292 -3.811079
v -3.595793 3.747708 -3.811079
v -2.490000 2.252292 -3.872159
v -2.490000 3.747708 -3.872159
v -2.384207 2.252292 -3.811079
v -2.384207 3.747708 -3.811079
v -2.384207 2.252292 -3.688920
v -2.384207 3.747708 -3.688920
v -2.490000 2.252292 -3.627840
v -2.490000 3.747708 -3.627840
v -2.595793 2.252292 -3.688920
v -2.595793 3.747708 -3.688920
v -2.595793 2.252292 -3.811079
v -2.595793 3.747708 -3.811079
v -1.490000 2.252292 -3.872159
v -1.490000 3.747708 -3.872159
v -1.384207 2.252292 -3.811079
v -1.384207 3.747708 -3.811079
v -1.384207 2.252292 -3.688920
v -1.384207 3.747708 -3.688920
v -1.490000 2.252292 -3.627840
v -1.490000 3.747708 -3.627840
v -1.595793 2.252292 -3.688920
v -1.595793 3.747708 -3.688920
v -1.595793 2.252292 -3.811079
v -1.595793 3.747708 -3.811079
v -0.490000 2.252292 -3.872159
v -0.490000 3.747708 -3.872159
v -0.384207 2.252292 -3.811079
v -0.384207 3.747708 -3.811079
v -0.384207 2.252292 -3.688920
v -0.384207 3.747708 -3.688920
v -0.490000 2.252292 -3.627840
v -0.490000 3.747708 -3.627840
v -0.595793 2.252292 -3.688920
v -0.595793 3.747708 -3.688920
v -0.595793 2.252292 -3.811079
v -0.595793 3.747708 -3.811079
v -4.000000 2.000000 -4.000000
v -4.000000 2.000000 -3.500000
v -4.000000 4.000000 -4.000000
v -4.000000 4.000000 -3.500000
v 0.000000 2.000000 -4.000000
v 0.000000 2.000000 -3.500000
v 0.000000 4.000000 -4.000000
v 0.000000 4.000000 -3.500000
v -4.000000 3.593998 -4.000000
v -4.000000 2.406002 -4.000000
v -4.000000 2.406002 -3.500000
v -4.000000 3.593998 -3.500000
v 0.000000 2.406002 -4.000000
v 0.000000 3.593998 -4.000000
v 0.000000 3.593998 -3.500000
v 0.000000 2.406002 -3.500000
vn 0.5000 -0.0000 -0.8660
vn 1.0000 -0.0000 -0.0000
vn 0.5000 -0.0000 0.8660
vn -0.5000 -0.0000 0.8660
vn -0.0000 1.0000 -0.0000
vn -1.0000 -0.0000 -0.0000
vn -0.5000 -0.0000 -0.8660
vn -0.0000 -1.0000 -0.0000
vn -0.0000 -0.0000 -1.0000
vn -0.0000 -0.0000 1.0000
vt 0.076745 0.197902
vt 0.076745 0.197902
vt 0.061981 0.187980
s 1
usemtl Material.340
f 1/1/1 2/1/1 4/1/1 3/1/1
f 3/1/2 4/1/2 6/1/2 5/1/2
f 5/1/3 6/1/3 8/1/3 7/1/3
f 7/1/4 8/1/4 10/1/4 9/1/4
f 4/1/5 2/1/5 12/1/5 10/1/5 8/1/5 6/1/5
f 9/1/6 10/1/6 12/1/6 11/1/6
f 11/1/7 12/1/7 2/2/7 1/2/7
f 1/1/8 3/1/8 5/1/8 7/1/8 9/1/8 11/1/8
f 13/1/1 14/1/1 16/1/1 15/1/1
f 15/1/2 16/1/2 18/1/2 17/1/2
f 17/1/3 18/1/3 20/1/3 19/1/3
f 19/1/4 20/1/4 22/1/4 21/1/4
f 16/1/5 14/1/5 24/1/5 22/1/5 20/1/5 18/1/5
f 21/1/6 22/1/6 24/1/6 23/1/6
f 23/1/7 24/1/7 14/2/7 13/2/7
f 13/1/8 15/1/8 17/1/8 19/1/8 21/1/8 23/1/8
f 25/1/1 26/1/1 28/1/1 27/1/1
f 27/1/2 28/1/2 30/1/2 29/1/2
f 29/1/3 30/1/3 32/1/3 31/1/3
f 31/1/4 32/1/4 34/1/4 33/1/4
f 28/1/5 26/1/5 36/1/5 34/1/5 32/1/5 30/1/5
f 33/1/6 34/1/6 36/1/6 35/1/6
f 35/1/7 36/1/7 26/2/7 25/2/7
f 25/1/8 27/1/8 29/1/8 31/1/8 33/1/8 35/1/8
f 37/1/1 38/1/1 40/1/1 39/1/1
f 39/1/2 40/1/2 42/1/2 41/1/2
f 41/1/3 42/1/3 44/1/3 43/1/3
f 43/1/4 44/1/4 46/1/4 45/1/4
f 40/1/5 38/1/5 48/1/5 46/1/5 44/1/5 42/1/5
f 45/1/6 46/1/6 48/1/6 47/1/6
f 47/1/7 48/1/7 38/2/7 37/2/7
f 37/1/8 39/1/8 41/1/8 43/1/8 45/1/8 47/1/8
f 57/3/6 60/3/6 52/3/6 51/3/6
f 51/3/5 52/3/5 56/3/5 55/3/5
f 61/3/2 64/3/2 54/3/2 53/3/2
f 53/3/8 54/3/8 50/3/8 49/3/8
f 58/3/9 61/3/9 53/3/9 49/3/9
f 64/3/10 59/3/10 50/3/10 54/3/10
f 56/3/10 52/3/10 60/3/10 63/3/10
f 51/3/9 55/3/9 62/3/9 57/3/9
f 55/3/2 56/3/2 63/3/2 62/3/2
f 59/3/5 64/3/5 61/3/5 58/3/5
f 49/3/6 50/3/6 59/3/6 58/3/6
f 60/3/8 57/3/8 62/3/8 63/3/8
usemtl Material.338
f 65/1/1 66/1/1 68/1/1 67/1/1
f 67/1/2 68/1/2 70/1/2 69/1/2
f 69/1/3 70/1/3 72/1/3 71/1/3
f 71/1/4 72/1/4 74/1/4 73/1/4
f 68/1/5 66/1/5 76/1/5 74/1/5 72/1/5 70/1/5
f 73/1/6 74/1/6 76/1/6 75/1/6
f 75/1/7 76/1/7 66/2/7 65/2/7
f 65/1/8 67/1/8 69/1/8 71/1/8 73/1/8 75/1/8
f 77/1/1 78/1/1 80/1/1 79/1/1
f 79/1/2 80/1/2 82/1/2 81/1/2
f 81/1/3 82/1/3 84/1/3 83/1/3
f 83/1/4 84/1/4 86/1/4 85/1/4
f 80/1/5 78/1/5 88/1/5 86/1/5 84/1/5 82/1/5
f 85/1/6 86/1/6 88/1/6 87/1/6
f 87/1/7 88/1/7 78/2/7 77/2/7
f 77/1/8 79/1/8 81/1/8 83/1/8 85/1/8 87/1/8
f 89/1/1 90/1/1 92/1/1 91/1/1
f 91/1/2 92/1/2 94/1/2 93/1/2
f 93/1/3 94/1/3 96/1/3 95/1/3
f 95/1/4 96/1/4 98/1/4 97/1/4
f 92/1/5 90/1/5 100/1/5 98/1/5 96/1/5 94/1/5
f 97/1/6 98/1/6 100/1/6 99/1/6
f 99/1/7 100/1/7 90/2/7 89/2/7
f 89/1/8 91/1/8 93/1/8 95/1/8 97/1/8 99/1/8
f 101/1/1 102/1/1 104/1/1 103/1/1
f 103/1/2 104/1/2 106/1/2 105/1/2
f 105/1/3 106/1/3 108/1/3 107/1/3
f 107/1/4 108/1/4 110/1/4 109/1/4
f 104/1/5 102/1/5 112/1/5 110/1/5 108/1/5 106/1/5
f 109/1/6 110/1/6 112/1/6 111/1/6
f 111/1/7 112/1/7 102/2/7 101/2/7
f 101/1/8 103/1/8 105/1/8 107/1/8 109/1/8 111/1/8
f 121/3/6 124/3/6 116/3/6 115/3/6
f 115/3/5 116/3/5 120/3/5 119/3/5
f 125/3/2 128/3/2 118/3/2 117/3/2
f 117/3/8 118/3/8 114/3/8 113/3/8
f 122/3/9 125/3/9 117/3/9 113/3/9
f 128/3/10 123/3/10 114/3/10 118/3/10
f 120/3/10 116/3/10 124/3/10 127/3/10
f 115/3/9 119/3/9 126/3/9 121/3/9
f 119/3/2 120/3/2 127/3/2 126/3/2
f 123/3/5 128/3/5 125/3/5 122/3/5
f 113/3/6 114/3/6 123/3/6 122/3/6
f 124/3/8 121/3/8 126/3/8 127/3/8
usemtl Material.339
f 129/1/1 130/1/1 132/1/1 131/1/1
f 131/1/2 132/1/2 134/1/2 133/1/2
f 133/1/3 134/1/3 136/1/3 135/1/3
f 135/1/4 136/1/4 138/1/4 137/1/4
f 132/1/5 130/1/5 140/1/5 138/1/5 136/1/5 134/1/5
f 137/1/6 138/1/6 140/1/6 139/1/6
f 139/1/7 140/1/7 130/2/7 129/2/7
f 129/1/8 131/1/8 133/1/8 135/1/8 137/1/8 139/1/8
f 141/1/1 142/1/1 144/1/1 143/1/1
f 143/1/2 144/1/2 146/1/2 145/1/2
f 145/1/3 146/1/3 148/1/3 147/1/3
f 147/1/4 148/1/4 150/1/4 149/1/4
f 144/1/5 142/1/5 152/1/5 150/1/5 148/1/5 146/1/5
f 149/1/6 150/1/6 152/1/6 151/1/6
f 151/1/7 152/1/7 142/2/7 141/2/7
f 141/1/8 143/1/8 145/1/8 147/1/8 149/1/8 151/1/8
f 153/1/1 154/1/1 156/1/1 155/1/1
f 155/1/2 156/1/2 158/1/2 157/1/2
f 157/1/3 158/1/3 160/1/3 159/1/3
f 159/1/4 160/1/4 162/1/4 161/1/4
f 156/1/5 154/1/5 164/1/5 162/1/5 160/1/5 158/1/5
f 161/1/6 162/1/6 164/1/6 163/1/6
f 163/1/7 164/1/7 154/2/7 153/2/7
f 153/1/8 155/1/8 157/1/8 159/1/8 161/1/8 163/1/8
f 165/1/1 166/1/1 168/1/1 167/1/1
f 167/1/2 168/1/2 170/1/2 169/1/2
f 169/1/3 170/1/3 172/1/3 171/1/3
f 171/1/4 172/1/4 174/1/4 173/1/4
f 168/1/5 166/1/5 176/1/5 174/1/5 172/1/5 170/1/5
f 173/1/6 174/1/6 176/1/6 175/1/6
f 175/1/7 176/1/7 166/2/7 165/2/7
f 165/1/8 167/1/8 169/1/8 171/1/8 173/1/8 175/1/8
f 185/3/6 188/3/6 180/3/6 179/3/6
f 179/3/5 180/3/5 184/3/5 183/3/5
f 189/3/2 192/3/2 182/3/2 181/3/2
f 181/3/8 182/3/8 178/3/8 177/3/8
f 186/3/9 189/3/9 181/3/9 177/3/9
f 192/3/10 187/3/10 178/3/10 182/3/10
f 184/3/10 180/3/10 188/3/10 191/3/10
f 179/3/9 183/3/9 190/3/9 185/3/9
f 183/3/2 184/3/2 191/3/2 190/3/2
f 187/3/5 192/3/5 189/3/5 186/3/5
f 177/3/6 178/3/6 187/3/6 186/3/6
f 188/3/8 185/3/8 190/3/8 191/3/8
usemtl Material.341
f 193/1/1 194/1/1 196/1/1 195/1/1
f 195/1/2 196/1/2 198/1/2 197/1/2
f 197/1/3 198/1/3 200/1/3 199/1/3
f 199/1/4 200/1/4 202/1/4 201/1/4
f 196/1/5 194/1/5 204/1/5 202/1/5 200/1/5 198/1/5
f 201/1/6 202/1/6 204/1/6 203/1/6
f 203/1/7 204/1/7 194/2/7 193/2/7
f 193/1/8 195/1/8 197/1/8 199/1/8 201/1/8 203/1/8
f 205/1/1 206/1/1 208/1/1 207/1/1
f 207/1/2 208/1/2 210/1/2 209/1/2
f 209/1/3 210/1/3 212/1/3 211/1/3
f 211/1/4 212/1/4 214/1/4 213/1/4
f 208/1/5 206/1/5 216/1/5 214/1/5 212/1/5 210/1/5
f 213/1/6 214/1/6 216/1/6 215/1/6
f 215/1/7 216/1/7 206/2/7 205/2/7
f 205/1/8 207/1/8 209/1/8 211/1/8 213/1/8 215/1/8
f 217/1/1 218/1/1 220/1/1 219/1/1
f 219/1/2 220/1/2 222/1/2 221/1/2
f 221/1/3 222/1/3 224/1/3 223/1/3
f 223/1/4 224/1/4 226/1/4 225/1/4
f 220/1/5 218/1/5 228/1/5 226/1/5 224/1/5 222/1/5
f 225/1/6 226/1/6 228/1/6 227/1/6
f 227/1/7 228/1/7 218/2/7 217/2/7
f 217/1/8 219/1/8 221/1/8 223/1/8 225/1/8 227/1/8
f 229/1/1 230/1/1 232/1/1 231/1/1
f 231/1/2 232/1/2 234/1/2 233/1/2
f 233/1/3 234/1/3 236/1/3 235/1/3
f 235/1/4 236/1/4 238/1/4 237/1/4
f 232/1/5 230/1/5 240/1/5 238/1/5 236/1/5 234/1/5
f 237/1/6 238/1/6 240/1/6 239/1/6
f 239/1/7 240/1/7 230/2/7 229/2/7
f 229/1/8 231/1/8 233/1/8 235/1/8 237/1/8 239/1/8
f 249/3/6 252/3/6 244/3/6 243/3/6
f 243/3/5 244/3/5 248/3/5 247/3/5
f 253/3/2 256/3/2 246/3/2 245/3/2
f 245/3/8 246/3/8 242/3/8 241/3/8
f 250/3/9 253/3/9 245/3/9 241/3/9
f 256/3/10 251/3/10 242/3/10 246/3/10
f 248/3/10 244/3/10 252/3/10 255/3/10
f 243/3/9 247/3/9 254/3/9 249/3/9
f 247/3/2 248/3/2 255/3/2 254/3/2
f 251/3/5 256/3/5 253/3/5 250/3/5
f 241/3/6 242/3/6 251/3/6 250/3/6
f 252/3/8 249/3/8 254/3/8 255/3/8
usemtl Material.342
f 257/1/1 258/1/1 260/1/1 259/1/1
f 259/1/2 260/1/2 262/1/2 261/1/2
f 261/1/3 262/1/3 264/1/3 263/1/3
f 263/1/4 264/1/4 266/1/4 265/1/4
f 260/1/5 258/1/5 268/1/5 266/1/5 264/1/5 262/1/5
f 265/1/6 266/1/6 268/1/6 267/1/6
f 267/1/7 268/1/7 258/2/7 257/2/7
f 257/1/8 259/1/8 261/1/8 263/1/8 265/1/8 267/1/8
f 269/1/1 270/1/1 272/1/1 271/1/1
f 271/1/2 272/1/2 274/1/2 273/1/2
f 273/1/3 274/1/3 276/1/3 275/1/3
f 275/1/4 276/1/4 278/1/4 277/1/4
f 272/1/5 270/1/5 280/1/5 278/1/5 276/1/5 274/1/5
f 277/1/6 278/1/6 280/1/6 279/1/6
f 279/1/7 280/1/7 270/2/7 269/2/7
f 269/1/8 271/1/8 273/1/8 275/1/8 277/1/8 279/1/8
f 281/1/1 282/1/1 284/1/1 283/1/1
f 283/1/2 284/1/2 286/1/2 285/1/2
f 285/1/3 286/1/3 288/1/3 287/1/3
f 287/1/4 288/1/4 290/1/4 289/1/4
f 284/1/5 282/1/5 292/1/5 290/1/5 288/1/5 286/1/5
f 289/1/6 290/1/6 292/1/6 291/1/6
f 291/1/7 292/1/7 282/2/7 281/2/7
f 281/1/8 283/1/8 285/1/8 287/1/8 289/1/8 291/1/8
f 293/1/1 294/1/1 296/1/1 295/1/1
f 295/1/2 296/1/2 298/1/2 297/1/2
f 297/1/3 298/1/3 300/1/3 299/1/3
f 299/1/4 300/1/4 302/1/4 301/1/4
f 296/1/5 294/1/5 304/1/5 302/1/5 300/1/5 298/1/5
f 301/1/6 302/1/6 304/1/6 303/1/6
f 303/1/7 304/1/7 294/2/7 293/2/7
f 293/1/8 295/1/8 297/1/8 299/1/8 301/1/8 303/1/8
f 313/3/6 316/3/6 308/3/6 307/3/6
f 307/3/5 308/3/5 312/3/5 311/3/5
f 317/3/2 320/3/2 310/3/2 309/3/2
f 309/3/8 310/3/8 306/3/8 305/3/8
f 314/3/9 317/3/9 309/3/9 305/3/9
f 320/3/10 315/3/10 306/3/10 310/3/10
f 312/3/10 308/3/10 316/3/10 319/3/10
f 307/3/9 311/3/9 318/3/9 313/3/9
f 311/3/2 312/3/2 319/3/2 318/3/2
f 315/3/5 320/3/5 317/3/5 314/3/5
f 305/3/6 306/3/6 315/3/6 314/3/6
f 316/3/8 313/3/8 318/3/8 319/3/8
usemtl Material.343
f 321/1/1 322/1/1 324/1/1 323/1/1
f 323/1/2 324/1/2 326/1/2 325/1/2
f 325/1/3 326/1/3 328/1/3 327/1/3
f 327/1/4 328/1/4 330/1/4 329/1/4
f 324/1/5 322/1/5 332/1/5 330/1/5 328/1/5 326/1/5
f 329/1/6 330/1/6 332/1/6 331/1/6
f 331/1/7 332/1/7 322/2/7 321/2/7
f 321/1/8 323/1/8 325/1/8 327/1/8 329/1/8 331/1/8
f 333/1/1 334/1/1 336/1/1 335/1/1
f 335/1/2 336/1/2 338/1/2 337/1/2
f 337/1/3 338/1/3 340/1/3 339/1/3
f 339/1/4 340/1/4 342/1/4 341/1/4
f 336/1/5 334/1/5 344/1/5 342/1/5 340/1/5 338/1/5
f 341/1/6 342/1/6 344/1/6 343/1/6
f 343/1/7 344/1/7 334/2/7 333/2/7
f 333/1/8 335/1/8 337/1/8 339/1/8 341/1/8 343/1/8
f 345/1/1 346/1/1 348/1/1 347/1/1
f 347/1/2 348/1/2 350/1/2 349/1/2
f 349/1/3 350/1/3 352/1/3 351/1/3
f 351/1/4 352/1/4 354/1/4 353/1/4
f 348/1/5 346/1/5 356/1/5 354/1/5 352/1/5 350/1/5
f 353/1/6 354/1/6 356/1/6 355/1/6
f 355/1/7 356/1/7 346/2/7 345/2/7
f 345/1/8 347/1/8 349/1/8 351/1/8 353/1/8 355/1/8
f 357/1/1 358/1/1 360/1/1 359/1/1
f 359/1/2 360/1/2 362/1/2 361/1/2
f 361/1/3 362/1/3 364/1/3 363/1/3
f 363/1/4 364/1/4 366/1/4 365/1/4
f 360/1/5 358/1/5 368/1/5 366/1/5 364/1/5 362/1/5
f 365/1/6 366/1/6 368/1/6 367/1/6
f 367/1/7 368/1/7 358/2/7 357/2/7
f 357/1/8 359/1/8 361/1/8 363/1/8 365/1/8 367/1/8
f 377/3/6 380/3/6 372/3/6 371/3/6
f 371/3/5 372/3/5 376/3/5 375/3/5
f 381/3/2 384/3/2 374/3/2 373/3/2
f 373/3/8 374/3/8 370/3/8 369/3/8
f 378/3/9 381/3/9 373/3/9 369/3/9
f 384/3/10 379/3/10 370/3/10 374/3/10
f 376/3/10 372/3/10 380/3/10 383/3/10
f 371/3/9 375/3/9 382/3/9 377/3/9
f 375/3/2 376/3/2 383/3/2 382/3/2
f 379/3/5 384/3/5 381/3/5 378/3/5
f 369/3/6 370/3/6 379/3/6 378/3/6
f 380/3/8 377/3/8 382/3/8 383/3/8
