# Blender 4.5.3 LTS
# www.blender.org
mtllib pared5a.mtl
o Wall.045
v -14.135623 0.003870 6.294095
v -10.135623 0.003871 6.293900
v -14.135574 0.003870 7.294095
v -10.135574 0.003871 7.293900
v -14.135623 4.003870 6.294095
v -10.135623 4.003870 6.293900
v -14.135574 4.003870 7.294095
v -10.135574 4.003870 7.293900
v -10.135573 4.003870 7.293900
v -14.135573 4.003870 7.294094
v -10.135621 4.003870 6.293900
v -14.135622 4.003870 6.294094
v -10.135573 8.003870 7.293900
v -14.135572 8.003870 7.294094
v -10.135621 8.003870 6.293900
v -14.135622 8.003870 6.294094
vn -1.0000 -0.0000 -0.0000
vn 1.0000 -0.0000 -0.0000
vn -0.0000 -0.0000 -1.0000
vn -0.0000 1.0000 -0.0000
vn -0.0000 -0.0000 1.0000
vn -0.0000 -1.0000 -0.0000
vt 0.061981 0.187981
vt 0.061981 0.187981
s 1
usemtl Material.109
f 3/1/1 7/1/1 5/1/1 1/1/1
f 8/1/2 4/1/2 2/1/2 6/1/2
f 5/1/3 6/1/3 2/1/3 1/1/3
f 7/1/4 8/2/4 6/1/4 5/1/4
f 3/1/5 4/2/5 8/2/5 7/1/5
f 1/1/6 2/1/6 4/2/6 3/1/6
usemtl Material.111
f 11/1/2 15/1/2 13/1/2 9/1/2
f 16/1/1 12/1/1 10/1/1 14/1/1
f 13/1/5 14/1/5 10/1/5 9/1/5
f 15/1/4 16/2/4 14/1/4 13/1/4
f 11/1/3 12/2/3 16/2/3 15/1/3
f 9/1/6 10/1/6 12/2/6 11/1/6
