# Blender 4.5.3 LTS
# www.blender.org
mtllib entradaA.mtl
o Wall_window.010
v 6.162065 2.499997 3.061069
v 8.162065 2.499997 3.061069
v 6.162065 2.499997 4.061069
v 8.162065 2.499997 4.061069
v 6.162065 3.499997 3.061069
v 8.162065 3.499997 3.061069
v 6.162065 3.499997 4.061069
v 8.162065 3.499997 4.061069
v 5.162065 3.999997 4.061069
v 5.162065 1.999997 4.061069
v 9.162065 1.999997 4.061069
v 9.162065 3.999997 4.061069
v 5.162065 1.999997 3.061069
v 5.162065 3.999997 3.061069
v 9.162065 3.999997 3.061069
v 9.162065 1.999997 3.061069
v 5.162065 -0.000003 3.061069
v 9.162065 -0.000003 3.061069
v 5.162065 -0.000003 4.061069
v 9.162065 -0.000003 4.061069
v 5.162065 1.999997 3.061069
v 9.162065 1.999997 3.061069
v 5.162065 1.999997 4.061069
v 9.162065 1.999997 4.061069
vn -1.0000 -0.0000 -0.0000
vn 1.0000 -0.0000 -0.0000
vn -0.0000 1.0000 -0.0000
vn -0.0000 -1.0000 -0.0000
vn -0.0000 -0.0000 1.0000
vn -0.0000 -0.0000 -1.0000
vt 0.061981 0.187981
vt 0.061981 0.187981
vt 0.061981 0.187981
vt 0.061981 0.187981
vt 0.061981 0.187980
vt 0.061981 0.187981
s 1
usemtl Material.351
f 10/1/1 9/1/1 14/1/1 13/1/1
f 12/1/2 11/1/2 16/1/2 15/1/2
f 6/2/1 2/3/1 4/4/1 8/3/1
f 9/1/3 12/3/3 15/1/3 14/1/3
f 5/5/4 6/2/4 8/3/4 7/3/4
f 13/1/4 16/1/4 11/3/4 10/1/4
f 3/6/5 7/3/5 9/1/5 10/1/5
f 8/3/5 4/4/5 11/3/5 12/3/5
f 5/5/6 1/1/6 13/1/6 14/1/6
f 2/3/6 6/2/6 15/1/6 16/1/6
f 1/1/6 2/3/6 16/1/6 13/1/6
f 6/2/6 5/5/6 14/1/6 15/1/6
f 7/3/5 8/3/5 12/3/5 9/1/5
f 4/4/5 3/6/5 10/1/5 11/3/5
f 2/3/3 1/1/3 3/6/3 4/4/3
f 1/1/2 5/5/2 7/3/2 3/6/2
usemtl Material.352
f 19/1/1 23/1/1 21/1/1 17/1/1
f 24/1/2 20/1/2 18/1/2 22/1/2
f 21/1/6 22/1/6 18/1/6 17/1/6
f 23/1/3 24/3/3 22/1/3 21/1/3
f 19/1/5 20/3/5 24/3/5 23/1/5
f 17/1/4 18/1/4 20/3/4 19/1/4
