# Blender 4.5.3 LTS
# www.blender.org
mtllib pared7.mtl
o Wall.035
v -12.837937 -0.000003 5.061069
v -12.837937 -0.000003 -2.938931
v -11.837937 -0.000003 5.061069
v -11.837937 -0.000003 -2.938931
v -12.837937 7.999997 5.061069
v -12.837937 7.999997 -2.938930
v -11.837937 7.999997 5.061069
v -11.837937 7.999997 -2.938930
vn -0.0000 -0.0000 1.0000
vn -0.0000 -0.0000 -1.0000
vn -1.0000 -0.0000 -0.0000
vn -0.0000 1.0000 -0.0000
vn 1.0000 -0.0000 -0.0000
vn -0.0000 -1.0000 -0.0000
vt 0.061981 0.187981
vt 0.061981 0.187981
s 1
usemtl Material.403
f 3/1/1 7/1/1 5/1/1 1/1/1
f 8/1/2 4/1/2 2/1/2 6/1/2
f 5/1/3 6/1/3 2/1/3 1/1/3
f 7/1/4 8/2/4 6/1/4 5/1/4
f 3/1/5 4/2/5 8/2/5 7/1/5
f 1/1/6 2/1/6 4/2/6 3/1/6
