# Blender 4.5.3 LTS
# www.blender.org
mtllib techoC.mtl
o Spike.001
v -5.034215 16.007032 -1.347744
v -5.262997 16.007032 -1.215656
v -4.902630 16.030056 -1.119832
v -5.131412 16.030056 -0.987745
v -4.961113 13.236469 -0.956954
v -6.469395 16.007030 0.928982
v -6.469395 16.007030 1.193157
v -6.206225 16.030056 0.928982
v -6.206225 16.030056 1.193157
v -6.094410 13.236468 1.061069
v -1.206479 16.007030 1.193157
v -1.206479 16.007030 0.928982
v -1.469649 16.030056 1.193157
v -1.469649 16.030056 0.928982
v -1.581464 13.236469 1.061069
v -2.556599 16.007030 3.540959
v -2.327816 16.007030 3.408871
v -2.688184 16.030056 3.313047
v -2.459401 16.030056 3.180960
v -2.629700 13.236468 3.150168
v -5.268057 16.007030 3.273935
v -5.039275 16.007030 3.406023
v -5.136472 16.030056 3.046023
v -4.907690 16.030056 3.178111
v -4.966175 13.236468 3.015232
v -2.407817 16.007030 -1.151796
v -2.636600 16.007030 -1.283884
v -2.539402 16.030056 -0.923884
v -2.768184 16.030056 -1.055972
v -2.709700 13.236469 -0.893093
vn -0.4955 -0.1341 -0.8582
vn -0.8630 -0.0471 0.5030
vn 0.4996 0.0400 0.8653
vn 0.8671 -0.0471 -0.4959
vn -0.0436 0.9962 -0.0755
vn -0.9910 -0.1341 -0.0000
vn 0.0041 -0.0471 0.9989
vn 0.9992 0.0400 -0.0000
vn 0.0041 -0.0471 -0.9989
vn -0.0872 0.9962 -0.0000
vn 0.9910 -0.1341 -0.0000
vn -0.0041 -0.0471 -0.9989
vn -0.9992 0.0400 -0.0000
vn -0.0041 -0.0471 0.9989
vn 0.0872 0.9962 -0.0000
vn 0.4955 -0.1341 0.8582
vn 0.8630 -0.0471 -0.5030
vn -0.4996 0.0400 -0.8653
vn -0.8671 -0.0471 0.4959
vn 0.0436 0.9962 0.0755
vn -0.4955 -0.1341 0.8582
vn 0.8671 -0.0471 0.4959
vn 0.4996 0.0400 -0.8653
vn -0.8630 -0.0471 -0.5030
vn -0.0436 0.9962 0.0755
vn 0.4955 -0.1341 -0.8582
vn -0.8671 -0.0471 -0.4959
vn -0.4996 0.0400 0.8653
vn 0.8630 -0.0471 0.5030
vn 0.0436 0.9962 -0.0755
vt 0.061981 0.187981
s 1
usemtl Material.397
f 1/1/1 5/1/1 2/1/1
f 2/1/2 5/1/2 4/1/2
f 4/1/3 5/1/3 3/1/3
f 3/1/4 5/1/4 1/1/4
f 2/1/5 4/1/5 3/1/5 1/1/5
usemtl Material.398
f 6/1/6 10/1/6 7/1/6
f 7/1/7 10/1/7 9/1/7
f 9/1/8 10/1/8 8/1/8
f 8/1/9 10/1/9 6/1/9
f 7/1/10 9/1/10 8/1/10 6/1/10
usemtl Material.399
f 11/1/11 15/1/11 12/1/11
f 12/1/12 15/1/12 14/1/12
f 14/1/13 15/1/13 13/1/13
f 13/1/14 15/1/14 11/1/14
f 12/1/15 14/1/15 13/1/15 11/1/15
usemtl Material.400
f 16/1/16 20/1/16 17/1/16
f 17/1/17 20/1/17 19/1/17
f 19/1/18 20/1/18 18/1/18
f 18/1/19 20/1/19 16/1/19
f 17/1/20 19/1/20 18/1/20 16/1/20
usemtl Material.401
f 21/1/21 25/1/21 22/1/21
f 22/1/22 25/1/22 24/1/22
f 24/1/23 25/1/23 23/1/23
f 23/1/24 25/1/24 21/1/24
f 22/1/25 24/1/25 23/1/25 21/1/25
usemtl Material.402
f 26/1/26 30/1/26 27/1/26
f 27/1/27 30/1/27 29/1/27
f 29/1/28 30/1/28 28/1/28
f 28/1/29 30/1/29 26/1/29
f 27/1/30 29/1/30 28/1/30 26/1/30
