# Blender 4.5.3 LTS
# www.blender.org
mtllib techoA.mtl
o cone.007
v 5.162065 3.999997 4.061069
v 5.162065 5.999997 1.061069
v 5.162065 3.999997 -1.938931
v 9.162065 3.999997 4.061069
v 9.162065 5.999997 1.061069
v 9.162065 3.999997 -1.938931
v -3.837935 15.999996 -2.438931
v -0.806847 15.999996 -0.688931
v -0.806847 15.999996 2.811069
v -3.837935 15.999998 4.561069
v -6.869024 15.999996 2.811069
v -6.869024 15.999996 -0.688930
v -3.837935 20.999996 1.061069
v -1.897936 7.999998 6.061069
v -1.897936 11.999996 1.061069
v -1.897936 7.999997 -3.938929
v 5.162064 7.999998 6.061069
v 5.162064 11.999996 1.061069
v 5.162064 7.999997 -3.938929
v -6.837935 7.999997 2.861069
v -3.837935 11.999996 2.861070
v -0.837935 7.999997 2.861069
v -6.837935 7.999997 11.061069
v -3.837935 11.999996 11.061069
v -0.837935 7.999997 11.061069
v -0.837918 7.999997 -0.738946
v -3.837916 11.999998 -0.738932
v -6.837914 7.999997 -0.738918
v -0.837956 7.999998 -8.938946
v -3.837955 11.999996 -8.938931
v -6.837953 7.999998 -8.938917
v -12.837935 7.999998 6.061069
v -12.837935 11.999996 1.061069
v -12.837935 7.999997 -3.938929
v -5.797935 7.999998 6.061069
v -5.797935 11.999996 1.061069
v -5.797935 7.999997 -3.938929
vn -1.0000 -0.0000 -0.0000
vn -0.0000 0.8321 -0.5547
vn 1.0000 -0.0000 -0.0000
vn -0.0000 0.8321 0.5547
vn -0.0000 -1.0000 -0.0000
vn 0.4276 0.5184 -0.7406
vn 0.8551 0.5184 -0.0000
vn 0.4276 0.5184 0.7406
vn -0.4276 0.5184 0.7406
vn -0.8551 0.5184 -0.0000
vn -0.4276 0.5184 -0.7406
vn -0.0000 0.7809 -0.6247
vn -0.0000 0.7809 0.6247
vn -0.0000 -0.0000 -1.0000
vn 0.8000 0.6000 -0.0000
vn -0.0000 -0.0000 1.0000
vn -0.8000 0.6000 -0.0000
vt 0.061981 0.187981
vt 0.066902 0.184059
s 1
usemtl Material.364
f 1/1/1 2/1/1 3/1/1
f 3/1/2 2/1/2 5/1/2 6/1/2
f 6/1/3 5/1/3 4/1/3
f 4/1/4 5/1/4 2/1/4 1/1/4
f 3/1/5 6/1/5 4/1/5 1/1/5
usemtl Material.396
f 7/2/6 13/2/6 8/2/6
f 8/2/7 13/2/7 9/2/7
f 9/2/8 13/2/8 10/2/8
f 10/2/9 13/2/9 11/2/9
f 7/2/5 8/2/5 9/2/5 10/2/5 11/2/5 12/2/5
f 11/2/10 13/2/10 12/2/10
f 12/2/11 13/2/11 7/2/11
usemtl Material.355
f 14/1/1 15/1/1 16/1/1
f 16/1/12 15/1/12 18/1/12 19/1/12
f 19/1/3 18/1/3 17/1/3
f 17/1/13 18/1/13 15/1/13 14/1/13
f 16/1/5 19/1/5 17/1/5 14/1/5
usemtl Material.376
f 20/1/14 21/1/14 22/1/14
f 22/1/15 21/1/15 24/1/15 25/1/15
f 25/1/16 24/1/16 23/1/16
f 23/1/17 24/1/17 21/1/17 20/1/17
f 22/1/5 25/1/5 23/1/5 20/1/5
usemtl Material.391
f 26/1/16 27/1/16 28/1/16
f 28/1/17 27/1/17 30/1/17 31/1/17
f 31/1/14 30/1/14 29/1/14
f 29/1/15 30/1/15 27/1/15 26/1/15
f 28/1/5 31/1/5 29/1/5 26/1/5
usemtl Material.394
f 32/1/1 33/1/1 34/1/1
f 34/1/12 33/1/12 36/1/12 37/1/12
f 37/1/3 36/1/3 35/1/3
f 35/1/13 36/1/13 33/1/13 32/1/13
f 34/1/5 37/1/5 35/1/5 32/1/5
