# Blender 4.5.3 LTS
# www.blender.org
mtllib pilar3.mtl
o Pillar.007
v -8.135890 0.003867 0.307392
v -8.135890 3.253867 0.307392
v -7.135890 0.003867 0.307344
v -7.135890 3.253867 0.307344
v -8.135841 0.003867 1.307392
v -8.135841 3.253867 1.307392
v -7.135841 0.003867 1.307344
v -7.135841 3.253867 1.307344
v -8.135890 0.503722 0.307392
v -8.135890 2.754013 0.307392
v -7.135890 2.754013 0.307344
v -7.135890 0.503722 0.307344
v -7.135841 2.754013 1.307344
v -7.135841 0.503722 1.307344
v -8.135841 2.754013 1.307392
v -8.135841 0.503722 1.307392
v -7.924610 0.503722 0.518651
v -7.924610 2.754013 0.518651
v -7.347149 2.754013 0.518623
v -7.347149 0.503722 0.518623
v -7.347121 2.754013 1.096084
v -7.347121 0.503722 1.096084
v -7.924582 2.754013 1.096112
v -7.924582 0.503722 1.096112
vn -0.0000 -0.0000 -1.0000
vn 1.0000 -0.0000 -0.0000
vn -0.0000 -0.0000 1.0000
vn -1.0000 -0.0000 -0.0000
vn -0.0000 -1.0000 -0.0000
vn -0.0000 1.0000 -0.0000
vt 0.061981 0.187981
s 1
usemtl Material.211
f 10/1/1 2/1/1 4/1/1 11/1/1
f 11/1/2 4/1/2 8/1/2 13/1/2
f 13/1/3 8/1/3 6/1/3 15/1/3
f 15/1/4 6/1/4 2/1/4 10/1/4
f 3/1/5 7/1/5 5/1/5 1/1/5
f 8/1/6 4/1/6 2/1/6 6/1/6
f 5/1/4 16/1/4 9/1/4 1/1/4
f 14/1/6 12/1/6 20/1/6 22/1/6
f 7/1/3 14/1/3 16/1/3 5/1/3
f 12/1/6 9/1/6 17/1/6 20/1/6
f 3/1/2 12/1/2 14/1/2 7/1/2
f 15/1/5 10/1/5 18/1/5 23/1/5
f 1/1/1 9/1/1 12/1/1 3/1/1
f 13/1/5 15/1/5 23/1/5 21/1/5
f 24/1/4 23/1/4 18/1/4 17/1/4
f 22/1/3 21/1/3 23/1/3 24/1/3
f 20/1/2 19/1/2 21/1/2 22/1/2
f 17/1/1 18/1/1 19/1/1 20/1/1
f 16/1/6 14/1/6 22/1/6 24/1/6
f 9/1/6 16/1/6 24/1/6 17/1/6
f 10/1/5 11/1/5 19/1/5 18/1/5
f 11/1/5 13/1/5 21/1/5 19/1/5
