# Blender 4.5.3 LTS
# www.blender.org
mtllib pilar1.mtl
o Pillar.005
v -0.135454 0.003867 9.293453
v -0.135455 3.253867 9.293453
v 0.864546 0.003867 9.293405
v 0.864545 3.253867 9.293405
v -0.135406 0.003867 10.293453
v -0.135406 3.253867 10.293453
v 0.864594 0.003867 10.293405
v 0.864594 3.253867 10.293405
v -0.135454 0.503722 9.293453
v -0.135455 2.754013 9.293453
v 0.864545 2.754013 9.293405
v 0.864546 0.503722 9.293405
v 0.864594 2.754013 10.293405
v 0.864594 0.503722 10.293405
v -0.135406 2.754013 10.293453
v -0.135406 0.503722 10.293453
v 0.075825 0.503722 9.504712
v 0.075825 2.754013 9.504712
v 0.653286 2.754013 9.504684
v 0.653287 0.503722 9.504684
v 0.653314 2.754013 10.082146
v 0.653314 0.503722 10.082146
v 0.075853 2.754013 10.082173
v 0.075853 0.503722 10.082173
vn -0.0000 -0.0000 -1.0000
vn 1.0000 -0.0000 -0.0000
vn -0.0000 -0.0000 1.0000
vn -1.0000 -0.0000 -0.0000
vn -0.0000 -1.0000 -0.0000
vn -0.0000 1.0000 -0.0000
vt 0.061981 0.187981
s 1
usemtl Material.207
f 10/1/1 2/1/1 4/1/1 11/1/1
f 11/1/2 4/1/2 8/1/2 13/1/2
f 13/1/3 8/1/3 6/1/3 15/1/3
f 15/1/4 6/1/4 2/1/4 10/1/4
f 3/1/5 7/1/5 5/1/5 1/1/5
f 8/1/6 4/1/6 2/1/6 6/1/6
f 5/1/4 16/1/4 9/1/4 1/1/4
f 14/1/6 12/1/6 20/1/6 22/1/6
f 7/1/3 14/1/3 16/1/3 5/1/3
f 12/1/6 9/1/6 17/1/6 20/1/6
f 3/1/2 12/1/2 14/1/2 7/1/2
f 15/1/5 10/1/5 18/1/5 23/1/5
f 1/1/1 9/1/1 12/1/1 3/1/1
f 13/1/5 15/1/5 23/1/5 21/1/5
f 24/1/4 23/1/4 18/1/4 17/1/4
f 22/1/3 21/1/3 23/1/3 24/1/3
f 20/1/2 19/1/2 21/1/2 22/1/2
f 17/1/1 18/1/1 19/1/1 20/1/1
f 16/1/6 14/1/6 22/1/6 24/1/6
f 9/1/6 16/1/6 24/1/6 17/1/6
f 10/1/5 11/1/5 19/1/5 18/1/5
f 11/1/5 13/1/5 21/1/5 19/1/5
