# Blender 4.5.3 LTS
# www.blender.org
mtllib puertaA.mtl
o Wall_door.003
v 0.865375 0.003870 -8.706592
v 2.865375 0.003870 -8.706689
v 0.865424 0.003870 -7.706592
v 2.865424 0.003870 -7.706689
v 0.865375 3.003870 -8.706592
v 2.865375 3.003870 -8.706689
v 0.865424 3.003870 -7.706592
v 2.865423 3.003870 -7.706689
v -0.134576 4.003870 -7.706543
v -0.134576 0.003870 -7.706543
v 3.865423 0.003871 -7.706738
v 3.865423 4.003870 -7.706738
v -0.134625 0.003870 -8.706543
v -0.134625 4.003870 -8.706543
v 3.865375 4.003870 -8.706738
v 3.865375 0.003871 -8.706738
vn -1.0000 -0.0000 -0.0000
vn 1.0000 -0.0000 -0.0000
vn -0.0000 1.0000 -0.0000
vn -0.0000 -1.0000 -0.0000
vn -0.0000 -0.0000 1.0000
vn -0.0000 -0.0000 -1.0000
vt 0.061981 0.187981
vt 0.061981 0.187981
vt 0.061981 0.187981
vt 0.061981 0.187981
vt 0.061981 0.187980
vt 0.061981 0.187981
s 1
usemtl Material.184
f 10/1/1 9/1/1 14/1/1 13/1/1
f 12/1/2 11/1/2 16/1/2 15/1/2
f 6/2/1 2/3/1 4/4/1 8/3/1
f 9/1/3 12/3/3 15/1/3 14/1/3
f 5/5/4 6/2/4 8/3/4 7/3/4
f 3/6/5 7/3/5 9/1/5 10/1/5
f 8/3/5 4/4/5 11/3/5 12/3/5
f 5/5/6 1/1/6 13/1/6 14/1/6
f 2/3/6 6/2/6 15/1/6 16/1/6
f 10/1/4 13/1/4 1/1/4 3/6/4
f 6/2/6 5/5/6 14/1/6 15/1/6
f 7/3/5 8/3/5 12/3/5 9/1/5
f 11/3/4 4/4/4 2/3/4 16/1/4
f 1/1/2 5/5/2 7/3/2 3/6/2
