# Blender 4.5.3 LTS
# www.blender.org
mtllib viga6.mtl
o Pillar.009
v -10.136131 3.753870 -4.694901
v -8.136132 3.753870 -4.694997
v -10.136131 3.253870 -4.694901
v -8.136132 3.253870 -4.694997
v -10.136084 3.753870 -3.694901
v -8.136084 3.753870 -3.694997
v -10.136084 3.253870 -3.694901
v -8.136084 3.253870 -3.694997
v -10.136085 3.753870 -3.694900
v -8.136085 3.753870 -3.694997
v -10.136085 3.253870 -3.694900
v -8.136085 3.253870 -3.694997
v -10.136036 3.753870 -2.694900
v -8.136036 3.753870 -2.694997
v -10.136036 3.253870 -2.694900
v -8.136036 3.253870 -2.694997
vn -0.0000 -0.0000 -1.0000
vn -0.0000 -1.0000 -0.0000
vn -0.0000 -0.0000 1.0000
vn -0.0000 1.0000 -0.0000
vn -1.0000 -0.0000 -0.0000
vn 1.0000 -0.0000 -0.0000
vt 0.061981 0.187981
s 1
usemtl Material.212
f 1/1/1 2/1/1 4/1/1 3/1/1
f 3/1/2 4/1/2 8/1/2 7/1/2
f 7/1/3 8/1/3 6/1/3 5/1/3
f 5/1/4 6/1/4 2/1/4 1/1/4
f 3/1/5 7/1/5 5/1/5 1/1/5
f 8/1/6 4/1/6 2/1/6 6/1/6
usemtl Material.221
f 9/1/1 10/1/1 12/1/1 11/1/1
f 11/1/2 12/1/2 16/1/2 15/1/2
f 15/1/3 16/1/3 14/1/3 13/1/3
f 13/1/4 14/1/4 10/1/4 9/1/4
f 11/1/5 15/1/5 13/1/5 9/1/5
f 16/1/6 12/1/6 10/1/6 14/1/6
