# Blender 4.5.3 LTS
# www.blender.org
mtllib viga2.mtl
o Pillar.033
v -0.135309 3.753870 12.293454
v -0.135503 3.753870 8.293455
v -0.135309 3.253870 12.293454
v -0.135503 3.253870 8.293455
v 0.864691 3.753870 12.293406
v 0.864497 3.753870 8.293406
v 0.864691 3.253870 12.293406
v 0.864497 3.253870 8.293406
vn -1.0000 -0.0000 -0.0000
vn -0.0000 -1.0000 -0.0000
vn 1.0000 -0.0000 -0.0000
vn -0.0000 1.0000 -0.0000
vn -0.0000 -0.0000 1.0000
vn -0.0000 -0.0000 -1.0000
vt 0.061981 0.187981
s 1
usemtl Material.001
f 1/1/1 2/1/1 4/1/1 3/1/1
f 3/1/2 4/1/2 8/1/2 7/1/2
f 7/1/3 8/1/3 6/1/3 5/1/3
f 5/1/4 6/1/4 2/1/4 1/1/4
f 3/1/5 7/1/5 5/1/5 1/1/5
f 8/1/6 4/1/6 2/1/6 6/1/6
