# Blender 4.5.3 LTS
# www.blender.org
mtllib viga1.mtl
o Pillar.008
v 0.864739 3.753870 13.293407
v -3.135261 3.753870 13.293602
v 0.864739 3.253870 13.293407
v -3.135261 3.253870 13.293602
v 0.864690 3.753870 12.293407
v -3.135310 3.753870 12.293602
v 0.864690 3.253870 12.293407
v -3.135310 3.253870 12.293602
v -3.135284 3.753870 13.293603
v -7.135284 3.753870 13.293797
v -3.135284 3.253870 13.293603
v -7.135284 3.253870 13.293797
v -3.135333 3.753870 12.293603
v -7.135332 3.753870 12.293797
v -3.135333 3.253870 12.293603
v -7.135333 3.253870 12.293797
vn -0.0000 -0.0000 1.0000
vn -0.0000 -1.0000 -0.0000
vn -0.0000 -0.0000 -1.0000
vn -0.0000 1.0000 -0.0000
vn 1.0000 -0.0000 -0.0000
vn -1.0000 -0.0000 -0.0000
vt 0.061981 0.187981
s 1
usemtl Material.210
f 1/1/1 2/1/1 4/1/1 3/1/1
f 3/1/2 4/1/2 8/1/2 7/1/2
f 7/1/3 8/1/3 6/1/3 5/1/3
f 5/1/4 6/1/4 2/1/4 1/1/4
f 3/1/5 7/1/5 5/1/5 1/1/5
f 8/1/6 4/1/6 2/1/6 6/1/6
usemtl Material.209
f 9/1/1 10/1/1 12/1/1 11/1/1
f 11/1/2 12/1/2 16/1/2 15/1/2
f 15/1/3 16/1/3 14/1/3 13/1/3
f 13/1/4 14/1/4 10/1/4 9/1/4
f 11/1/5 15/1/5 13/1/5 9/1/5
f 16/1/6 12/1/6 10/1/6 14/1/6
