# Blender 4.5.3 LTS
# www.blender.org
mtllib casa3baseB.mtl
o Wall.022
v -45.690487 0.000000 -27.300083
v -45.690273 0.000000 -29.800083
v -44.690487 0.000000 -27.299997
v -44.690273 0.000000 -29.799997
v -45.690487 4.000000 -27.300083
v -45.690273 4.000000 -29.800083
v -44.690487 4.000000 -27.299997
v -44.690273 4.000000 -29.799997
v -45.690701 0.000000 -24.800083
v -45.690487 0.000000 -27.300083
v -44.690701 0.000000 -24.799997
v -44.690487 0.000000 -27.299997
v -45.690701 4.000000 -24.800083
v -45.690487 4.000000 -27.300083
v -44.690701 4.000000 -24.799997
v -44.690487 4.000000 -27.299997
v -36.690361 0.000000 -28.799316
v -40.690357 0.000000 -28.799658
v -36.690273 0.000000 -29.799314
v -40.690273 0.000000 -29.799658
v -36.690361 4.000000 -28.799316
v -40.690357 4.000000 -28.799658
v -36.690273 4.000000 -29.799314
v -40.690273 4.000000 -29.799658
v -41.690357 0.000000 -28.799677
v -43.690357 0.000000 -28.799849
v -41.690273 0.000000 -29.799677
v -43.690273 0.000000 -29.799849
v -41.690357 3.000000 -28.799677
v -43.690357 3.000000 -28.799849
v -41.690273 3.000000 -29.799677
v -43.690273 3.000000 -29.799849
v -40.690273 4.000000 -29.799593
v -40.690273 0.000000 -29.799593
v -44.690273 0.000000 -29.799934
v -44.690273 4.000000 -29.799934
v -40.690357 0.000000 -28.799593
v -40.690357 4.000000 -28.799593
v -44.690357 4.000000 -28.799934
v -44.690357 0.000000 -28.799934
v -37.690529 0.000000 -26.799400
v -37.690357 0.000000 -28.799400
v -36.690529 0.000000 -26.799314
v -36.690361 0.000000 -28.799314
v -37.690529 4.000000 -26.799400
v -37.690357 4.000000 -28.799400
v -36.690529 4.000000 -26.799314
v -36.690361 4.000000 -28.799314
v -37.690701 0.000000 -24.799400
v -37.690529 0.000000 -26.799400
v -36.690701 0.000000 -24.799316
v -36.690529 0.000000 -26.799314
v -37.690701 4.000000 -24.799400
v -37.690529 4.000000 -26.799400
v -36.690701 4.000000 -24.799316
v -36.690529 4.000000 -26.799314
v -37.690701 3.500000 -24.799400
v -37.690361 3.500000 -28.799400
v -37.690701 4.000000 -24.799400
v -37.690361 4.000000 -28.799400
v -44.690701 3.500000 -24.799999
v -44.690357 3.500000 -28.799999
v -44.690701 4.000000 -24.799999
v -44.690357 4.000000 -28.799999
vn -0.0001 -0.0000 1.0000
vn 0.0001 -0.0000 -1.0000
vn -1.0000 -0.0000 -0.0001
vn -0.0000 1.0000 -0.0000
vn 1.0000 -0.0000 0.0001
vn -0.0000 -1.0000 -0.0000
vt 0.061981 0.187981
vt 0.061981 0.187981
vt 0.061981 0.187981
vt 0.061981 0.187981
vt 0.061981 0.187980
vt 0.061981 0.187981
s 1
usemtl Material.321
f 3/1/1 7/1/1 5/1/1 1/1/1
f 8/1/2 4/1/2 2/1/2 6/1/2
f 5/1/3 6/1/3 2/1/3 1/1/3
f 7/1/4 8/2/4 6/1/4 5/1/4
f 3/1/5 4/2/5 8/2/5 7/1/5
f 1/1/6 2/1/6 4/2/6 3/1/6
usemtl Material.322
f 11/1/1 15/1/1 13/1/1 9/1/1
f 16/1/2 12/1/2 10/1/2 14/1/2
f 13/1/3 14/1/3 10/1/3 9/1/3
f 15/1/4 16/2/4 14/1/4 13/1/4
f 11/1/5 12/2/5 16/2/5 15/1/5
f 9/1/6 10/1/6 12/2/6 11/1/6
usemtl Material.304
f 19/1/5 23/1/5 21/1/5 17/1/5
f 24/1/3 20/1/3 18/1/3 22/1/3
f 21/1/1 22/1/1 18/1/1 17/1/1
f 23/1/4 24/2/4 22/1/4 21/1/4
f 19/1/2 20/2/2 24/2/2 23/1/2
f 17/1/6 18/1/6 20/2/6 19/1/6
usemtl Material.305
f 34/1/5 33/1/5 38/1/5 37/1/5
f 36/1/3 35/1/3 40/1/3 39/1/3
f 30/3/5 26/2/5 28/4/5 32/2/5
f 33/1/4 36/2/4 39/1/4 38/1/4
f 29/5/6 30/3/6 32/2/6 31/2/6
f 27/6/2 31/2/2 33/1/2 34/1/2
f 32/2/2 28/4/2 35/2/2 36/2/2
f 29/5/1 25/1/1 37/1/1 38/1/1
f 26/2/1 30/3/1 39/1/1 40/1/1
f 34/1/6 37/1/6 25/1/6 27/6/6
f 30/3/1 29/5/1 38/1/1 39/1/1
f 31/2/2 32/2/2 36/2/2 33/1/2
f 35/2/6 28/4/6 26/2/6 40/1/6
f 25/1/3 29/5/3 31/2/3 27/6/3
usemtl Material.318
f 43/1/1 47/1/1 45/1/1 41/1/1
f 48/1/2 44/1/2 42/1/2 46/1/2
f 45/1/3 46/1/3 42/1/3 41/1/3
f 47/1/4 48/2/4 46/1/4 45/1/4
f 43/1/5 44/2/5 48/2/5 47/1/5
f 41/1/6 42/1/6 44/2/6 43/1/6
usemtl Material.319
f 51/1/1 55/1/1 53/1/1 49/1/1
f 56/1/2 52/1/2 50/1/2 54/1/2
f 53/1/3 54/1/3 50/1/3 49/1/3
f 55/1/4 56/2/4 54/1/4 53/1/4
f 51/1/5 52/2/5 56/2/5 55/1/5
f 49/1/6 50/1/6 52/2/6 51/1/6
usemtl Material.320
f 59/1/1 63/1/1 61/1/1 57/1/1
f 64/1/2 60/1/2 58/1/2 62/1/2
f 61/1/6 62/1/6 58/1/6 57/1/6
f 63/1/3 64/2/3 62/1/3 61/1/3
f 59/1/4 60/2/4 64/2/4 63/1/4
f 57/1/5 58/1/5 60/2/5 59/1/5
