# Blender 4.5.3 LTS
# www.blender.org
mtllib casa3baseA.mtl
o Wall_window.009
v -41.691387 1.000000 -16.799742
v -43.691387 1.000000 -16.799911
v -41.691303 1.000000 -17.799742
v -43.691303 1.000000 -17.799911
v -41.691387 3.000000 -16.799742
v -43.691387 3.000000 -16.799911
v -41.691303 3.000000 -17.799742
v -43.691303 3.000000 -17.799911
v -40.691303 4.000000 -17.799656
v -40.691303 0.000000 -17.799656
v -44.691303 0.000000 -17.799997
v -44.691303 4.000000 -17.799997
v -40.691387 0.000000 -16.799656
v -40.691387 4.000000 -16.799656
v -44.691387 4.000000 -16.799997
v -44.691387 0.000000 -16.799997
v -36.691387 -0.000000 -16.799314
v -40.691387 0.000000 -16.799656
v -36.691303 -0.000000 -17.799314
v -40.691303 0.000000 -17.799656
v -36.691387 4.000000 -16.799314
v -40.691387 4.000000 -16.799656
v -36.691303 4.000000 -17.799314
v -40.691303 4.000000 -17.799656
v -36.691303 3.500000 -17.803961
v -36.690704 3.500000 -24.803963
v -36.691303 4.000000 -17.803961
v -36.690704 4.000000 -24.803963
v -44.691303 3.500001 -17.804644
v -44.690704 3.500001 -24.804644
v -44.691303 4.000000 -17.804644
v -44.690704 4.000000 -24.804644
v -36.691387 0.000000 -16.799314
v -36.691048 0.000000 -20.799314
v -35.691387 0.000000 -16.799231
v -35.691048 0.000000 -20.799231
v -36.691387 4.000000 -16.799314
v -36.691048 4.000000 -20.799314
v -35.691387 4.000000 -16.799231
v -35.691048 4.000000 -20.799229
v -36.691025 0.000000 -21.799314
v -36.690857 0.000000 -23.799314
v -35.691025 0.000000 -21.799231
v -35.690857 0.000000 -23.799231
v -36.691025 3.000000 -21.799314
v -36.690857 3.000000 -23.799314
v -35.691025 3.000000 -21.799231
v -35.690857 3.000000 -23.799231
v -35.691109 4.000000 -20.799231
v -35.691109 0.000000 -20.799231
v -35.690769 0.000000 -24.799231
v -35.690769 4.000000 -24.799231
v -36.691109 0.000000 -20.799314
v -36.691109 4.000000 -20.799314
v -36.690769 4.000000 -24.799314
v -36.690769 0.000000 -24.799314
v -44.691204 0.000000 -19.467997
v -44.691387 0.000000 -16.799997
v -45.691204 0.000000 -19.468067
v -45.691387 0.000000 -16.800066
v -44.691204 4.000000 -19.467997
v -44.691387 4.000000 -16.799997
v -45.691204 4.000000 -19.468067
v -45.691387 4.000000 -16.800066
v -44.691017 0.000000 -22.135998
v -44.691204 0.000000 -19.467997
v -45.691017 0.000000 -22.136066
v -45.691204 0.000000 -19.468067
v -44.691017 4.000000 -22.135998
v -44.691204 4.000000 -19.467997
v -45.691017 4.000000 -22.136066
v -45.691204 4.000000 -19.468067
v -44.690834 0.000000 -24.803997
v -44.691017 0.000000 -22.135998
v -45.690834 0.000000 -24.804066
v -45.691017 0.000000 -22.136066
v -44.690834 4.000000 -24.803997
v -44.691017 4.000000 -22.135998
v -45.690834 4.000000 -24.804066
v -45.691017 4.000000 -22.136066
vn 1.0000 -0.0000 0.0001
vn -1.0000 -0.0000 -0.0001
vn -0.0000 1.0000 -0.0000
vn -0.0000 -1.0000 -0.0000
vn 0.0001 -0.0000 -1.0000
vn -0.0001 -0.0000 1.0000
vt 0.061981 0.187981
vt 0.061981 0.187981
vt 0.061981 0.187981
vt 0.061981 0.187981
vt 0.061981 0.187980
vt 0.061981 0.187981
s 1
usemtl Material.301
f 10/1/1 9/1/1 14/1/1 13/1/1
f 12/1/2 11/1/2 16/1/2 15/1/2
f 6/2/1 2/3/1 4/4/1 8/3/1
f 9/1/3 12/3/3 15/1/3 14/1/3
f 5/5/4 6/2/4 8/3/4 7/3/4
f 13/1/4 16/1/4 11/3/4 10/1/4
f 3/6/5 7/3/5 9/1/5 10/1/5
f 8/3/5 4/4/5 11/3/5 12/3/5
f 5/5/6 1/1/6 13/1/6 14/1/6
f 2/3/6 6/2/6 15/1/6 16/1/6
f 1/1/6 2/3/6 16/1/6 13/1/6
f 6/2/6 5/5/6 14/1/6 15/1/6
f 7/3/5 8/3/5 12/3/5 9/1/5
f 4/4/5 3/6/5 10/1/5 11/3/5
f 2/3/3 1/1/3 3/6/3 4/4/3
f 1/1/2 5/5/2 7/3/2 3/6/2
usemtl Material.302
f 19/1/1 23/1/1 21/1/1 17/1/1
f 24/1/2 20/1/2 18/1/2 22/1/2
f 21/1/6 22/1/6 18/1/6 17/1/6
f 23/1/3 24/3/3 22/1/3 21/1/3
f 19/1/5 20/3/5 24/3/5 23/1/5
f 17/1/4 18/1/4 20/3/4 19/1/4
usemtl Material.299
f 27/1/6 31/1/6 29/1/6 25/1/6
f 32/1/5 28/1/5 26/1/5 30/1/5
f 29/1/4 30/1/4 26/1/4 25/1/4
f 31/1/2 32/3/2 30/1/2 29/1/2
f 27/1/3 28/3/3 32/3/3 31/1/3
f 25/1/1 26/1/1 28/3/1 27/1/1
usemtl Material.300
f 35/1/6 39/1/6 37/1/6 33/1/6
f 40/1/5 36/1/5 34/1/5 38/1/5
f 37/1/2 38/1/2 34/1/2 33/1/2
f 39/1/3 40/3/3 38/1/3 37/1/3
f 35/1/1 36/3/1 40/3/1 39/1/1
f 33/1/4 34/1/4 36/3/4 35/1/4
usemtl Material.303
f 50/1/6 49/1/6 54/1/6 53/1/6
f 52/1/5 51/1/5 56/1/5 55/1/5
f 46/2/6 42/3/6 44/4/6 48/3/6
f 49/1/3 52/3/3 55/1/3 54/1/3
f 45/5/4 46/2/4 48/3/4 47/3/4
f 43/6/1 47/3/1 49/1/1 50/1/1
f 48/3/1 44/4/1 51/3/1 52/3/1
f 45/5/2 41/1/2 53/1/2 54/1/2
f 42/3/2 46/2/2 55/1/2 56/1/2
f 50/1/4 53/1/4 41/1/4 43/6/4
f 46/2/2 45/5/2 54/1/2 55/1/2
f 47/3/1 48/3/1 52/3/1 49/1/1
f 51/3/4 44/4/4 42/3/4 56/1/4
f 41/1/5 45/5/5 47/3/5 43/6/5
usemtl Material.296
f 59/1/5 63/1/5 61/1/5 57/1/5
f 64/1/6 60/1/6 58/1/6 62/1/6
f 61/1/1 62/1/1 58/1/1 57/1/1
f 63/1/3 64/3/3 62/1/3 61/1/3
f 59/1/2 60/3/2 64/3/2 63/1/2
f 57/1/4 58/1/4 60/3/4 59/1/4
usemtl Material.297
f 67/1/5 71/1/5 69/1/5 65/1/5
f 72/1/6 68/1/6 66/1/6 70/1/6
f 69/1/1 70/1/1 66/1/1 65/1/1
f 71/1/3 72/3/3 70/1/3 69/1/3
f 67/1/2 68/3/2 72/3/2 71/1/2
f 65/1/4 66/1/4 68/3/4 67/1/4
usemtl Material.298
f 75/1/5 79/1/5 77/1/5 73/1/5
f 80/1/6 76/1/6 74/1/6 78/1/6
f 77/1/1 78/1/1 74/1/1 73/1/1
f 79/1/3 80/3/3 78/1/3 77/1/3
f 75/1/2 76/3/2 80/3/2 79/1/2
f 73/1/4 74/1/4 76/3/4 75/1/4
