# Blender 4.5.3 LTS
# www.blender.org
mtllib casa3techoA.mtl
o Wall.021
v -44.690807 4.960152 -23.549997
v -44.690552 4.960152 -26.549997
v -44.690807 3.960152 -23.549997
v -44.690552 3.960152 -26.549997
v -41.690807 4.960152 -23.549742
v -41.690552 4.960152 -26.549742
v -41.690807 3.960152 -23.549742
v -41.690552 3.960152 -26.549742
v -44.690807 7.960152 -23.549997
v -44.690552 7.960152 -26.549997
v -44.690807 6.960152 -23.549997
v -44.690552 6.960152 -26.549997
v -41.690807 7.960152 -23.549742
v -41.690552 7.960152 -26.549742
v -41.690807 6.960152 -23.549742
v -41.690552 6.960152 -26.549742
v -45.690872 3.960152 -22.800083
v -45.690487 3.960152 -27.300083
v -44.690872 3.960152 -22.799997
v -44.690487 3.960152 -27.299997
v -45.690872 7.960152 -22.800083
v -45.690487 7.960152 -27.300083
v -44.690872 7.960152 -22.799997
v -44.690487 7.960152 -27.299997
v -44.690807 3.960152 -23.549995
v -40.690807 3.960152 -23.549654
v -44.690872 3.960152 -22.799995
v -40.690872 3.960152 -22.799654
v -44.690807 7.960152 -23.549995
v -40.690807 7.960152 -23.549654
v -44.690872 7.960152 -22.799995
v -40.690872 7.960152 -22.799654
v -44.690487 3.960152 -27.299997
v -40.690487 3.960152 -27.299656
v -44.690552 3.960152 -26.549997
v -40.690552 3.960152 -26.549656
v -44.690487 7.960152 -27.299997
v -40.690487 7.960152 -27.299656
v -44.690552 7.960152 -26.549997
v -40.690552 7.960152 -26.549656
v -41.690807 3.960152 -23.549742
v -41.690552 3.960152 -26.549742
v -40.690807 3.960152 -23.549656
v -40.690552 3.960152 -26.549656
v -41.690807 7.960152 -23.549742
v -41.690552 7.960152 -26.549742
v -40.690807 7.960152 -23.549656
v -40.690552 7.960152 -26.549656
vn -0.0001 -0.0000 1.0000
vn 0.0001 -0.0000 -1.0000
vn -0.0000 1.0000 -0.0000
vn 1.0000 -0.0000 0.0001
vn -0.0000 -1.0000 -0.0000
vn -1.0000 -0.0000 -0.0001
vt 0.061981 0.187981
vt 0.061981 0.187981
s 1
usemtl Material.325
f 3/1/1 7/1/1 5/1/1 1/1/1
f 8/1/2 4/1/2 2/1/2 6/1/2
f 5/1/3 6/1/3 2/1/3 1/1/3
f 7/1/4 8/2/4 6/1/4 5/1/4
f 3/1/5 4/2/5 8/2/5 7/1/5
f 1/1/6 2/1/6 4/2/6 3/1/6
usemtl Material.326
f 11/1/1 15/1/1 13/1/1 9/1/1
f 16/1/2 12/1/2 10/1/2 14/1/2
f 13/1/3 14/1/3 10/1/3 9/1/3
f 15/1/4 16/2/4 14/1/4 13/1/4
f 11/1/5 12/2/5 16/2/5 15/1/5
f 9/1/6 10/1/6 12/2/6 11/1/6
usemtl Material.327
f 19/1/1 23/1/1 21/1/1 17/1/1
f 24/1/2 20/1/2 18/1/2 22/1/2
f 21/1/6 22/1/6 18/1/6 17/1/6
f 23/1/3 24/2/3 22/1/3 21/1/3
f 19/1/4 20/2/4 24/2/4 23/1/4
f 17/1/5 18/1/5 20/2/5 19/1/5
usemtl Material.328
f 27/1/6 31/1/6 29/1/6 25/1/6
f 32/1/4 28/1/4 26/1/4 30/1/4
f 29/1/2 30/1/2 26/1/2 25/1/2
f 31/1/3 32/2/3 30/1/3 29/1/3
f 27/1/1 28/2/1 32/2/1 31/1/1
f 25/1/5 26/1/5 28/2/5 27/1/5
usemtl Material.329
f 35/1/6 39/1/6 37/1/6 33/1/6
f 40/1/4 36/1/4 34/1/4 38/1/4
f 37/1/2 38/1/2 34/1/2 33/1/2
f 39/1/3 40/2/3 38/1/3 37/1/3
f 35/1/1 36/2/1 40/2/1 39/1/1
f 33/1/5 34/1/5 36/2/5 35/1/5
usemtl Material.330
f 43/1/1 47/1/1 45/1/1 41/1/1
f 48/1/2 44/1/2 42/1/2 46/1/2
f 45/1/6 46/1/6 42/1/6 41/1/6
f 47/1/3 48/2/3 46/1/3 45/1/3
f 43/1/4 44/2/4 48/2/4 47/1/4
f 41/1/5 42/1/5 44/2/5 43/1/5
