# Blender 4.5.3 LTS
# www.blender.org
mtllib casa3techoB.mtl
o Wall.025
v -44.691299 4.000000 -17.799997
v -40.691299 4.000000 -17.799656
v -44.691383 4.000000 -16.799997
v -40.691383 4.000000 -16.799656
v -44.691299 8.000000 -17.799997
v -40.691299 8.000000 -17.799656
v -44.691383 8.000000 -16.799997
v -40.691383 8.000000 -16.799656
v -45.691383 4.000000 -16.800083
v -45.690872 4.000000 -22.800083
v -44.691383 4.000000 -16.799997
v -44.690872 4.000000 -22.799997
v -45.691383 8.000000 -16.800083
v -45.690872 8.000000 -22.800083
v -44.691383 8.000000 -16.799997
v -44.690872 8.000000 -22.799997
v -41.691067 4.003867 -18.799742
v -41.690994 4.003867 -20.799742
v -40.691067 4.003867 -18.799706
v -40.690994 4.003868 -20.799706
v -41.691067 7.003867 -18.799742
v -41.690994 7.003867 -20.799742
v -40.691067 7.003867 -18.799706
v -40.690994 7.003867 -20.799706
v -40.691105 8.003867 -17.799704
v -40.691105 4.003867 -17.799704
v -40.690956 4.003868 -21.799706
v -40.690960 8.003867 -21.799706
v -41.691105 4.003867 -17.799742
v -41.691105 8.003867 -17.799742
v -41.690960 8.003867 -21.799742
v -41.690956 4.003868 -21.799742
v -44.690872 4.000000 -22.799997
v -40.690872 4.000000 -22.799656
v -44.690956 4.000000 -21.799997
v -40.690956 4.000000 -21.799656
v -44.690872 8.000000 -22.799997
v -40.690872 8.000000 -22.799656
v -44.690956 8.000000 -21.799997
v -40.690956 8.000000 -21.799656
v -45.690872 8.000000 -22.800083
v -40.690872 8.000000 -22.799656
v -45.690956 8.000000 -21.800083
v -40.690956 8.000000 -21.799656
v -45.690872 12.000000 -22.800083
v -40.690872 12.000000 -22.799656
v -45.690956 12.000000 -21.800083
v -40.690956 12.000000 -21.799656
v -45.691299 8.000000 -17.800083
v -40.691299 8.000000 -17.799656
v -45.691383 8.000000 -16.800083
v -40.691383 8.000000 -16.799656
v -45.691299 12.000000 -17.800083
v -40.691299 12.000000 -17.799656
v -45.691383 12.000000 -16.800083
v -40.691383 12.000000 -16.799656
v -45.361916 9.000000 -18.800055
v -45.361748 9.000000 -20.800055
v -45.020340 9.000000 -20.800026
v -45.361916 11.000000 -18.800055
v -45.361748 11.000000 -20.800055
v -45.020512 11.000000 -18.800026
v -45.020340 11.000000 -20.800026
v -44.691299 12.000000 -17.799997
v -44.691299 8.000000 -17.799997
v -44.690956 8.000000 -21.799997
v -44.690956 12.000000 -21.799997
v -45.691299 8.000000 -17.800083
v -45.691299 12.000000 -17.800083
v -45.690956 12.000000 -21.800083
v -45.690956 8.000000 -21.800083
v -44.691216 11.000000 -18.799997
v -44.691216 9.000000 -18.799997
v -44.691044 9.000000 -20.799997
v -44.691044 11.000000 -20.799997
v -45.691216 9.000000 -18.800083
v -45.691216 11.000000 -18.800083
v -45.691044 11.000000 -20.800083
v -45.691044 9.000000 -20.800083
v -45.020512 9.000000 -18.800026
v -41.361916 9.000000 -18.799713
v -41.361748 9.000000 -20.799713
v -41.020340 9.000000 -20.799685
v -41.361916 11.000000 -18.799713
v -41.361748 11.000000 -20.799713
v -41.020512 11.000000 -18.799685
v -41.020340 11.000000 -20.799685
v -40.691299 12.000000 -17.799656
v -40.691299 8.000000 -17.799656
v -40.690956 8.000000 -21.799656
v -40.690960 12.000000 -21.799656
v -41.691299 8.000000 -17.799742
v -41.691299 12.000000 -17.799742
v -41.690960 12.000000 -21.799742
v -41.690956 8.000000 -21.799742
v -40.691216 11.000000 -18.799656
v -40.691216 9.000000 -18.799656
v -40.691044 9.000000 -20.799656
v -40.691044 11.000000 -20.799656
v -41.691216 9.000000 -18.799742
v -41.691216 11.000000 -18.799742
v -41.691044 11.000000 -20.799742
v -41.691044 9.000000 -20.799742
v -41.020512 9.000000 -18.799685
v -44.691299 12.000000 -17.799999
v -44.690956 12.000000 -21.799999
v -44.691299 11.000000 -17.799999
v -44.690956 11.000000 -21.799999
v -41.691299 12.000000 -17.799744
v -41.690956 12.000000 -21.799744
v -41.691299 11.000000 -17.799744
v -41.690956 11.000000 -21.799744
vn -1.0000 -0.0000 -0.0001
vn 1.0000 -0.0000 0.0001
vn 0.0001 -0.0000 -1.0000
vn -0.0000 1.0000 -0.0000
vn -0.0001 -0.0000 1.0000
vn -0.0000 -1.0000 -0.0000
vn -0.0000 -0.0000 1.0000
vn -0.0000 -0.0000 -1.0000
vn 1.0000 -0.0000 -0.0000
vn -1.0000 -0.0000 -0.0000
vt 0.061981 0.187981
vt 0.061981 0.187981
vt 0.061981 0.187981
vt 0.061981 0.187981
vt 0.061981 0.187980
vt 0.061981 0.187981
vt 0.061981 0.187981
s 1
usemtl Material.306
f 3/1/1 7/1/1 5/1/1 1/1/1
f 8/1/2 4/1/2 2/1/2 6/1/2
f 5/1/3 6/1/3 2/1/3 1/1/3
f 7/1/4 8/2/4 6/1/4 5/1/4
f 3/1/5 4/2/5 8/2/5 7/1/5
f 1/1/6 2/1/6 4/2/6 3/1/6
usemtl Material.307
f 11/1/5 15/1/5 13/1/5 9/1/5
f 16/1/3 12/1/3 10/1/3 14/1/3
f 13/1/1 14/1/1 10/1/1 9/1/1
f 15/1/4 16/2/4 14/1/4 13/1/4
f 11/1/2 12/2/2 16/2/2 15/1/2
f 9/1/6 10/1/6 12/2/6 11/1/6
usemtl Material.308
f 26/1/7 25/1/7 30/1/7 29/1/7
f 28/1/8 27/1/8 32/1/8 31/1/8
f 22/3/7 18/2/7 20/4/7 24/2/7
f 25/1/4 28/2/4 31/1/4 30/1/4
f 21/5/6 22/3/6 24/2/6 23/2/6
f 19/6/9 23/2/9 25/1/9 26/1/9
f 24/2/9 20/4/9 27/2/9 28/2/9
f 21/5/10 17/1/10 29/1/10 30/1/10
f 18/2/10 22/3/10 31/1/10 32/1/10
f 26/1/6 29/1/6 17/1/6 19/6/6
f 22/3/10 21/5/10 30/1/10 31/1/10
f 23/2/9 24/2/9 28/2/9 25/1/9
f 27/2/6 20/4/6 18/2/6 32/1/6
f 17/1/8 21/5/8 23/2/8 19/6/8
usemtl Material.309
f 35/1/1 39/1/1 37/1/1 33/1/1
f 40/1/2 36/1/2 34/1/2 38/1/2
f 37/1/3 38/1/3 34/1/3 33/1/3
f 39/1/4 40/2/4 38/1/4 37/1/4
f 35/1/5 36/2/5 40/2/5 39/1/5
f 33/1/6 34/1/6 36/2/6 35/1/6
usemtl Material.311
f 43/1/1 47/1/1 45/1/1 41/1/1
f 48/1/2 44/1/2 42/1/2 46/1/2
f 45/1/3 46/1/3 42/1/3 41/1/3
f 47/1/4 48/2/4 46/1/4 45/1/4
f 43/1/5 44/2/5 48/2/5 47/1/5
f 41/1/6 42/1/6 44/2/6 43/1/6
usemtl Material.312
f 51/1/1 55/1/1 53/1/1 49/1/1
f 56/1/2 52/1/2 50/1/2 54/1/2
f 53/1/3 54/1/3 50/1/3 49/1/3
f 55/1/4 56/2/4 54/1/4 53/1/4
f 51/1/5 52/2/5 56/2/5 55/1/5
f 49/1/6 50/1/6 52/2/6 51/1/6
usemtl Material.313
f 65/1/5 64/1/5 69/1/5 68/1/5
f 67/1/3 66/1/3 71/1/3 70/1/3
f 64/1/4 67/2/4 70/1/4 69/1/4
f 68/1/6 71/1/6 66/2/6 65/1/6
f 73/6/2 72/2/2 64/1/2 65/1/2
f 75/2/2 74/4/2 66/2/2 67/2/2
f 77/5/1 76/1/1 68/1/1 69/1/1
f 79/2/1 78/3/1 70/1/1 71/1/1
f 76/1/1 79/2/1 71/1/1 68/1/1
f 78/3/1 77/5/1 69/1/1 70/1/1
f 72/2/2 75/2/2 67/2/2 64/1/2
f 74/4/2 73/6/2 65/1/2 66/2/2
f 80/6/3 62/2/3 72/2/3 73/6/3
f 63/2/5 59/4/5 74/4/5 75/2/5
f 60/5/3 57/7/3 76/1/3 77/5/3
f 58/2/5 61/1/5 78/3/5 79/2/5
f 57/7/4 58/2/4 79/2/4 76/1/4
f 61/1/6 60/5/6 77/5/6 78/3/6
f 62/2/6 63/2/6 75/2/6 72/2/6
f 59/4/4 80/6/4 73/6/4 74/4/4
f 57/7/1 60/5/1 61/1/1 58/2/1
f 62/2/2 80/6/2 59/4/2 63/2/2
usemtl Material.314
f 89/1/5 88/1/5 93/1/5 92/1/5
f 91/1/3 90/1/3 95/1/3 94/1/3
f 88/1/4 91/2/4 94/1/4 93/1/4
f 92/1/6 95/1/6 90/2/6 89/1/6
f 97/6/2 96/2/2 88/1/2 89/1/2
f 99/2/2 98/4/2 90/2/2 91/2/2
f 101/5/1 100/1/1 92/1/1 93/1/1
f 103/2/1 102/3/1 94/1/1 95/1/1
f 100/1/1 103/2/1 95/1/1 92/1/1
f 102/3/1 101/5/1 93/1/1 94/1/1
f 96/2/2 99/2/2 91/2/2 88/1/2
f 98/4/2 97/6/2 89/1/2 90/2/2
f 104/6/3 86/2/3 96/2/3 97/6/3
f 87/2/5 83/4/5 98/4/5 99/2/5
f 84/5/3 81/7/3 100/1/3 101/5/3
f 82/2/5 85/1/5 102/3/5 103/2/5
f 81/7/4 82/2/4 103/2/4 100/1/4
f 85/1/6 84/5/6 101/5/6 102/3/6
f 86/2/6 87/2/6 99/2/6 96/2/6
f 83/4/4 104/6/4 97/6/4 98/4/4
f 81/7/1 84/5/1 85/1/1 82/2/1
f 86/2/2 104/6/2 83/4/2 87/2/2
usemtl Material.315
f 107/1/5 111/1/5 109/1/5 105/1/5
f 112/1/3 108/1/3 106/1/3 110/1/3
f 109/1/4 110/1/4 106/1/4 105/1/4
f 111/1/2 112/2/2 110/1/2 109/1/2
f 107/1/6 108/2/6 112/2/6 111/1/6
f 105/1/1 106/1/1 108/2/1 107/1/1
