# Blender 4.5.3 LTS
# www.blender.org
mtllib pilar3.mtl
o Cylinder.008
v -0.599991 0.000000 0.600008
v -0.599991 5.200000 0.600008
v -1.466024 0.000000 0.100021
v -1.466024 5.200000 0.100021
v -1.466038 0.000000 -0.899979
v -1.466038 5.200000 -0.899979
v -0.600020 0.000000 -1.399992
v -0.600020 5.200000 -1.399992
v 0.266013 0.000000 -0.900004
v 0.266013 5.200000 -0.900004
v 0.266027 0.000000 0.099995
v 0.266027 5.200000 0.099995
vn -0.5000 -0.0000 0.8660
vn -1.0000 -0.0000 -0.0000
vn -0.5000 -0.0000 -0.8660
vn 0.5000 -0.0000 -0.8660
vn -0.0000 1.0000 -0.0000
vn 1.0000 -0.0000 -0.0000
vn 0.5000 -0.0000 0.8660
vn -0.0000 -1.0000 -0.0000
vt 0.076745 0.197902
vt 0.076745 0.197902
s 1
usemtl Material.407
f 1/1/1 2/1/1 4/1/1 3/1/1
f 3/1/2 4/1/2 6/1/2 5/1/2
f 5/1/3 6/1/3 8/1/3 7/1/3
f 7/1/4 8/1/4 10/1/4 9/1/4
f 4/1/5 2/1/5 12/1/5 10/1/5 8/1/5 6/1/5
f 9/1/6 10/1/6 12/1/6 11/1/6
f 11/1/7 12/1/7 2/2/7 1/2/7
f 1/1/8 3/1/8 5/1/8 7/1/8 9/1/8 11/1/8
