# Blender 4.5.3 LTS
# www.blender.org
mtllib pilar1.mtl
o Cylinder.006
v -0.600107 0.000000 -7.399992
v -0.600107 2.000000 -7.399992
v -1.466139 0.000000 -7.899980
v -1.466139 2.000000 -7.899980
v -1.466154 0.000000 -8.899980
v -1.466154 2.000000 -8.899980
v -0.600135 0.000000 -9.399992
v -0.600135 2.000000 -9.399992
v 0.265897 0.000000 -8.900004
v 0.265897 2.000000 -8.900004
v 0.265912 0.000000 -7.900004
v 0.265912 2.000000 -7.900004
vn -0.5000 -0.0000 0.8660
vn -1.0000 -0.0000 -0.0000
vn -0.5000 -0.0000 -0.8660
vn 0.5000 -0.0000 -0.8660
vn -0.0000 1.0000 -0.0000
vn 1.0000 -0.0000 -0.0000
vn 0.5000 -0.0000 0.8660
vn -0.0000 -1.0000 -0.0000
vt 0.076745 0.197902
vt 0.076745 0.197902
s 1
usemtl Material.404
f 1/1/1 2/1/1 4/1/1 3/1/1
f 3/1/2 4/1/2 6/1/2 5/1/2
f 5/1/3 6/1/3 8/1/3 7/1/3
f 7/1/4 8/1/4 10/1/4 9/1/4
f 4/1/5 2/1/5 12/1/5 10/1/5 8/1/5 6/1/5
f 9/1/6 10/1/6 12/1/6 11/1/6
f 11/1/7 12/1/7 2/2/7 1/2/7
f 1/1/8 3/1/8 5/1/8 7/1/8 9/1/8 11/1/8
