# Blender 4.5.3 LTS
# www.blender.org
mtllib pilar4.mtl
o Cylinder.009
v 0.400096 0.000000 6.599993
v 0.400096 6.000000 6.599993
v -0.465937 0.000000 6.100006
v -0.465937 6.000000 6.100006
v -0.465951 0.000000 5.100006
v -0.465951 6.000000 5.100006
v 0.400067 0.000000 4.599993
v 0.400067 6.000000 4.599993
v 1.266100 0.000000 5.099981
v 1.266100 6.000000 5.099981
v 1.266114 0.000000 6.099981
v 1.266114 6.000000 6.099981
vn -0.5000 -0.0000 0.8660
vn -1.0000 -0.0000 -0.0000
vn -0.5000 -0.0000 -0.8660
vn 0.5000 -0.0000 -0.8660
vn -0.0000 1.0000 -0.0000
vn 1.0000 -0.0000 -0.0000
vn 0.5000 -0.0000 0.8660
vn -0.0000 -1.0000 -0.0000
vt 0.076745 0.197902
vt 0.076745 0.197902
s 1
usemtl Material.408
f 1/1/1 2/1/1 4/1/1 3/1/1
f 3/1/2 4/1/2 6/1/2 5/1/2
f 5/1/3 6/1/3 8/1/3 7/1/3
f 7/1/4 8/1/4 10/1/4 9/1/4
f 4/1/5 2/1/5 12/1/5 10/1/5 8/1/5 6/1/5
f 9/1/6 10/1/6 12/1/6 11/1/6
f 11/1/7 12/1/7 2/2/7 1/2/7
f 1/1/8 3/1/8 5/1/8 7/1/8 9/1/8 11/1/8
