# Blender 4.5.3 LTS
# www.blender.org
mtllib plataforma.mtl
o Wall.042
v -1.599890 6.000000 3.600023
v -1.599889 6.000000 7.600023
v -1.599890 6.500000 3.600023
v -1.599889 6.500000 7.600023
v 2.400110 6.000000 3.600023
v 2.400110 6.000000 7.600023
v 2.400110 6.500000 3.600023
v 2.400110 6.500000 7.600023
vn -0.0000 -0.0000 -1.0000
vn -0.0000 -0.0000 1.0000
vn -0.0000 -1.0000 -0.0000
vn 1.0000 -0.0000 -0.0000
vn -0.0000 1.0000 -0.0000
vn -1.0000 -0.0000 -0.0000
vt 0.061981 0.187981
vt 0.061981 0.187981
s 1
usemtl Material.410
f 3/1/1 7/1/1 5/1/1 1/1/1
f 8/1/2 4/1/2 2/1/2 6/1/2
f 5/1/3 6/1/3 2/1/3 1/1/3
f 7/1/4 8/2/4 6/1/4 5/1/4
f 3/1/5 4/2/5 8/2/5 7/1/5
f 1/1/6 2/1/6 4/2/6 3/1/6
