# Blender 4.5.3 LTS
# www.blender.org
mtllib base.mtl
o Wall.011
v -2.328180 0.000000 -31.291145
v -2.328181 0.000000 -27.291145
v -3.328180 0.000000 -31.291145
v -3.328181 0.000000 -27.291145
v -2.328180 4.000000 -31.291145
v -2.328181 4.000000 -27.291145
v -3.328180 4.000000 -31.291145
v -3.328181 4.000000 -27.291145
v -3.328180 0.000000 -32.291145
v 2.671819 0.000000 -32.291145
v -3.328180 0.000000 -31.291145
v 2.671819 0.000000 -31.291145
v -3.328180 4.000000 -32.291145
v 2.671819 4.000000 -32.291145
v -3.328180 4.000000 -31.291145
v 2.671819 4.000000 -31.291145
v -1.328181 0.003867 -28.290998
v 0.671819 0.003867 -28.291096
v -1.328132 0.003867 -27.290998
v 0.671868 0.003868 -27.291096
v -1.328181 3.003867 -28.291000
v 0.671819 3.003867 -28.291098
v -1.328132 3.003867 -27.291000
v 0.671868 3.003867 -27.291098
v -2.328132 4.003867 -27.290951
v -2.328132 0.003867 -27.290951
v 1.671868 0.003868 -27.291145
v 1.671868 4.003867 -27.291145
v -2.328181 0.003867 -28.290951
v -2.328181 4.003867 -28.290951
v 1.671819 4.003867 -28.291145
v 1.671819 0.003867 -28.291145
v 2.671819 0.000000 -31.291145
v 2.671819 0.000000 -27.291145
v 1.671819 0.000000 -31.291145
v 1.671819 0.000000 -27.291145
v 2.671819 4.000000 -31.291145
v 2.671819 4.000000 -27.291145
v 1.671819 4.000000 -31.291145
v 1.671819 4.000000 -27.291145
v 2.671819 4.000000 -32.291145
v 2.671819 4.000000 -27.291145
v 1.671819 4.000000 -32.291145
v 1.671819 4.000000 -27.291145
v 2.671819 8.000000 -32.291145
v 2.671819 8.000000 -27.291145
v 1.671819 8.000000 -32.291145
v 1.671819 8.000000 -27.291145
v -2.328180 4.000000 -32.291145
v -2.328181 4.000000 -27.291145
v -3.328180 4.000000 -32.291145
v -3.328181 4.000000 -27.291145
v -2.328180 8.000000 -32.291145
v -2.328181 8.000000 -27.291145
v -3.328180 8.000000 -32.291145
v -3.328181 8.000000 -27.291145
v -1.328180 5.000000 -31.961849
v 0.671820 5.000000 -31.961849
v 0.671820 5.000000 -31.620443
v -1.328180 7.000000 -31.961849
v 0.671820 7.000000 -31.961849
v -1.328180 7.000000 -31.620443
v 0.671820 7.000000 -31.620443
v -2.328180 8.000000 -31.291145
v -2.328180 4.000000 -31.291145
v 1.671819 4.000000 -31.291145
v 1.671819 8.000000 -31.291145
v -2.328180 4.000000 -32.291145
v -2.328180 8.000000 -32.291145
v 1.671819 8.000000 -32.291145
v 1.671819 4.000000 -32.291145
v -1.328180 7.000000 -31.291145
v -1.328180 5.000000 -31.291145
v 0.671820 5.000000 -31.291145
v 0.671820 7.000000 -31.291145
v -1.328180 5.000000 -32.291145
v -1.328180 7.000000 -32.291145
v 0.671820 7.000000 -32.291145
v 0.671820 5.000000 -32.291145
v -1.328180 5.000000 -31.620443
v -1.328181 5.000000 -27.961847
v 0.671819 5.000000 -27.961847
v 0.671819 5.000000 -27.620443
v -1.328181 7.000000 -27.961849
v 0.671819 7.000000 -27.961849
v -1.328181 7.000000 -27.620443
v 0.671819 7.000000 -27.620443
v -2.328181 8.000000 -27.291145
v -2.328181 4.000000 -27.291145
v 1.671819 4.000000 -27.291145
v 1.671819 8.000000 -27.291145
v -2.328181 4.000000 -28.291145
v -2.328181 8.000000 -28.291145
v 1.671819 8.000000 -28.291145
v 1.671819 4.000000 -28.291145
v -1.328181 7.000000 -27.291145
v -1.328181 5.000000 -27.291145
v 0.671819 5.000000 -27.291145
v 0.671819 7.000000 -27.291145
v -1.328181 5.000000 -28.291145
v -1.328181 7.000000 -28.291145
v 0.671819 7.000000 -28.291145
v 0.671819 5.000000 -28.291145
v -1.328181 5.000000 -27.620443
v -2.328179 8.000000 -31.291145
v 1.671821 8.000000 -31.291145
v -2.328179 7.000000 -31.291145
v 1.671821 7.000000 -31.291145
v -2.328179 8.000000 -28.291145
v 1.671821 8.000000 -28.291145
v -2.328179 7.000000 -28.291145
v 1.671821 7.000000 -28.291145
vn -0.0000 -0.0000 -1.0000
vn -0.0000 -0.0000 1.0000
vn 1.0000 -0.0000 -0.0000
vn -0.0000 1.0000 -0.0000
vn -1.0000 -0.0000 -0.0000
vn -0.0000 -1.0000 -0.0000
vt 0.061981 0.187981
vt 0.061981 0.187981
vt 0.061981 0.187981
vt 0.061981 0.187981
vt 0.061981 0.187980
vt 0.061981 0.187981
vt 0.061981 0.187981
s 1
usemtl Material.235
f 3/1/1 7/1/1 5/1/1 1/1/1
f 8/1/2 4/1/2 2/1/2 6/1/2
f 5/1/3 6/1/3 2/1/3 1/1/3
f 7/1/4 8/2/4 6/1/4 5/1/4
f 3/1/5 4/2/5 8/2/5 7/1/5
f 1/1/6 2/1/6 4/2/6 3/1/6
usemtl Material.234
f 11/1/5 15/1/5 13/1/5 9/1/5
f 16/1/3 12/1/3 10/1/3 14/1/3
f 13/1/1 14/1/1 10/1/1 9/1/1
f 15/1/4 16/2/4 14/1/4 13/1/4
f 11/1/2 12/2/2 16/2/2 15/1/2
f 9/1/6 10/1/6 12/2/6 11/1/6
usemtl Material.236
f 26/1/5 25/1/5 30/1/5 29/1/5
f 28/1/3 27/1/3 32/1/3 31/1/3
f 22/3/5 18/2/5 20/4/5 24/2/5
f 25/1/4 28/2/4 31/1/4 30/1/4
f 21/5/6 22/3/6 24/2/6 23/2/6
f 19/6/2 23/2/2 25/1/2 26/1/2
f 24/2/2 20/4/2 27/2/2 28/2/2
f 21/5/1 17/1/1 29/1/1 30/1/1
f 18/2/1 22/3/1 31/1/1 32/1/1
f 26/1/6 29/1/6 17/1/6 19/6/6
f 22/3/1 21/5/1 30/1/1 31/1/1
f 23/2/2 24/2/2 28/2/2 25/1/2
f 27/2/6 20/4/6 18/2/6 32/1/6
f 17/1/3 21/5/3 23/2/3 19/6/3
usemtl Material.237
f 35/1/1 39/1/1 37/1/1 33/1/1
f 40/1/2 36/1/2 34/1/2 38/1/2
f 37/1/3 38/1/3 34/1/3 33/1/3
f 39/1/4 40/2/4 38/1/4 37/1/4
f 35/1/5 36/2/5 40/2/5 39/1/5
f 33/1/6 34/1/6 36/2/6 35/1/6
usemtl Material.238
f 43/1/1 47/1/1 45/1/1 41/1/1
f 48/1/2 44/1/2 42/1/2 46/1/2
f 45/1/3 46/1/3 42/1/3 41/1/3
f 47/1/4 48/2/4 46/1/4 45/1/4
f 43/1/5 44/2/5 48/2/5 47/1/5
f 41/1/6 42/1/6 44/2/6 43/1/6
usemtl Material.239
f 51/1/1 55/1/1 53/1/1 49/1/1
f 56/1/2 52/1/2 50/1/2 54/1/2
f 53/1/3 54/1/3 50/1/3 49/1/3
f 55/1/4 56/2/4 54/1/4 53/1/4
f 51/1/5 52/2/5 56/2/5 55/1/5
f 49/1/6 50/1/6 52/2/6 51/1/6
usemtl Material.242
f 65/1/5 64/1/5 69/1/5 68/1/5
f 67/1/3 66/1/3 71/1/3 70/1/3
f 64/1/4 67/2/4 70/1/4 69/1/4
f 68/1/6 71/1/6 66/2/6 65/1/6
f 73/6/2 72/2/2 64/1/2 65/1/2
f 75/2/2 74/4/2 66/2/2 67/2/2
f 77/5/1 76/1/1 68/1/1 69/1/1
f 79/2/1 78/3/1 70/1/1 71/1/1
f 76/1/1 79/2/1 71/1/1 68/1/1
f 78/3/1 77/5/1 69/1/1 70/1/1
f 72/2/2 75/2/2 67/2/2 64/1/2
f 74/4/2 73/6/2 65/1/2 66/2/2
f 80/6/3 62/2/3 72/2/3 73/6/3
f 63/2/5 59/4/5 74/4/5 75/2/5
f 60/5/3 57/7/3 76/1/3 77/5/3
f 58/2/5 61/1/5 78/3/5 79/2/5
f 57/7/4 58/2/4 79/2/4 76/1/4
f 61/1/6 60/5/6 77/5/6 78/3/6
f 62/2/6 63/2/6 75/2/6 72/2/6
f 59/4/4 80/6/4 73/6/4 74/4/4
f 57/7/1 60/5/1 61/1/1 58/2/1
f 62/2/2 80/6/2 59/4/2 63/2/2
usemtl Material.243
f 89/1/5 88/1/5 93/1/5 92/1/5
f 91/1/3 90/1/3 95/1/3 94/1/3
f 88/1/4 91/2/4 94/1/4 93/1/4
f 92/1/6 95/1/6 90/2/6 89/1/6
f 97/6/2 96/2/2 88/1/2 89/1/2
f 99/2/2 98/4/2 90/2/2 91/2/2
f 101/5/1 100/1/1 92/1/1 93/1/1
f 103/2/1 102/3/1 94/1/1 95/1/1
f 100/1/1 103/2/1 95/1/1 92/1/1
f 102/3/1 101/5/1 93/1/1 94/1/1
f 96/2/2 99/2/2 91/2/2 88/1/2
f 98/4/2 97/6/2 89/1/2 90/2/2
f 104/6/3 86/2/3 96/2/3 97/6/3
f 87/2/5 83/4/5 98/4/5 99/2/5
f 84/5/3 81/7/3 100/1/3 101/5/3
f 82/2/5 85/1/5 102/3/5 103/2/5
f 81/7/4 82/2/4 103/2/4 100/1/4
f 85/1/6 84/5/6 101/5/6 102/3/6
f 86/2/6 87/2/6 99/2/6 96/2/6
f 83/4/4 104/6/4 97/6/4 98/4/4
f 81/7/1 84/5/1 85/1/1 82/2/1
f 86/2/2 104/6/2 83/4/2 87/2/2
usemtl Material.255
f 107/1/5 111/1/5 109/1/5 105/1/5
f 112/1/3 108/1/3 106/1/3 110/1/3
f 109/1/4 110/1/4 106/1/4 105/1/4
f 111/1/2 112/2/2 110/1/2 109/1/2
f 107/1/6 108/2/6 112/2/6 111/1/6
f 105/1/1 106/1/1 108/2/1 107/1/1
