# Blender 4.5.3 LTS
# www.blender.org
mtllib bordes.mtl
o Railing.003
v -1.818181 15.252292 -31.913305
v -1.818181 16.747707 -31.913305
v -1.712388 15.252292 -31.852224
v -1.712388 16.747707 -31.852224
v -1.712388 15.252292 -31.730066
v -1.712388 16.747707 -31.730066
v -1.818181 15.252292 -31.668985
v -1.818181 16.747707 -31.668985
v -1.923974 15.252292 -31.730066
v -1.923974 16.747707 -31.730066
v -1.923974 15.252292 -31.852224
v -1.923974 16.747707 -31.852224
v -0.818181 15.252292 -31.913305
v -0.818181 16.747707 -31.913305
v -0.712388 15.252292 -31.852224
v -0.712388 16.747707 -31.852224
v -0.712388 15.252292 -31.730066
v -0.712388 16.747707 -31.730066
v -0.818181 15.252292 -31.668985
v -0.818181 16.747707 -31.668985
v -0.923974 15.252292 -31.730066
v -0.923974 16.747707 -31.730066
v -0.923974 15.252292 -31.852224
v -0.923974 16.747707 -31.852224
v 0.181819 15.252292 -31.913305
v 0.181819 16.747707 -31.913305
v 0.287612 15.252292 -31.852224
v 0.287612 16.747707 -31.852224
v 0.287612 15.252292 -31.730066
v 0.287612 16.747707 -31.730066
v 0.181819 15.252292 -31.668985
v 0.181819 16.747707 -31.668985
v 0.076026 15.252292 -31.730066
v 0.076026 16.747707 -31.730066
v 0.076026 15.252292 -31.852224
v 0.076026 16.747707 -31.852224
v 1.181819 15.252292 -31.913305
v 1.181819 16.747707 -31.913305
v 1.287612 15.252292 -31.852224
v 1.287612 16.747707 -31.852224
v 1.287612 15.252292 -31.730066
v 1.287612 16.747707 -31.730066
v 1.181819 15.252292 -31.668985
v 1.181819 16.747707 -31.668985
v 1.076026 15.252292 -31.730066
v 1.076026 16.747707 -31.730066
v 1.076026 15.252292 -31.852224
v 1.076026 16.747707 -31.852224
v -2.328181 15.000000 -32.041145
v -2.328181 15.000000 -31.541145
v -2.328181 17.000000 -32.041145
v -2.328181 17.000000 -31.541145
v 1.671819 15.000000 -32.041145
v 1.671819 15.000000 -31.541145
v 1.671819 17.000000 -32.041145
v 1.671819 17.000000 -31.541145
v -2.328181 16.593998 -32.041145
v -2.328181 15.406002 -32.041145
v -2.328181 15.406002 -31.541145
v -2.328181 16.593998 -31.541145
v 1.671819 15.406002 -32.041145
v 1.671819 16.593998 -32.041145
v 1.671819 16.593998 -31.541145
v 1.671819 15.406002 -31.541145
v 2.043980 15.252292 -31.467396
v 2.043980 16.747707 -31.467396
v 1.982901 15.252292 -31.348377
v 1.982901 16.747707 -31.348377
v 1.860741 15.252292 -31.348377
v 1.860741 16.747707 -31.348377
v 1.799662 15.252292 -31.467396
v 1.799662 16.747707 -31.467396
v 1.860741 15.252292 -31.586412
v 1.860741 16.747707 -31.586412
v 1.982901 15.252292 -31.586412
v 1.982901 16.747707 -31.586412
v 2.043980 15.252292 -30.342396
v 2.043980 16.747707 -30.342396
v 1.982901 15.252292 -30.223377
v 1.982901 16.747707 -30.223377
v 1.860741 15.252292 -30.223377
v 1.860741 16.747707 -30.223377
v 1.799662 15.252292 -30.342396
v 1.799662 16.747707 -30.342396
v 1.860741 15.252292 -30.461412
v 1.860741 16.747707 -30.461412
v 1.982901 15.252292 -30.461412
v 1.982901 16.747707 -30.461412
v 2.043980 15.252292 -29.217396
v 2.043980 16.747707 -29.217396
v 1.982901 15.252292 -29.098377
v 1.982901 16.747707 -29.098377
v 1.860741 15.252292 -29.098377
v 1.860741 16.747707 -29.098377
v 1.799662 15.252292 -29.217396
v 1.799662 16.747707 -29.217396
v 1.860741 15.252292 -29.336412
v 1.860741 16.747707 -29.336412
v 1.982901 15.252292 -29.336412
v 1.982901 16.747707 -29.336412
v 2.043980 15.252292 -28.092396
v 2.043980 16.747707 -28.092396
v 1.982901 15.252292 -27.973377
v 1.982901 16.747707 -27.973377
v 1.860741 15.252292 -27.973377
v 1.860741 16.747707 -27.973377
v 1.799662 15.252292 -28.092396
v 1.799662 16.747707 -28.092396
v 1.860741 15.252292 -28.211412
v 1.860741 16.747707 -28.211412
v 1.982901 15.252292 -28.211412
v 1.982901 16.747707 -28.211412
v 2.171821 15.000000 -32.041145
v 1.671821 15.000000 -32.041145
v 2.171821 17.000000 -32.041145
v 1.671821 17.000000 -32.041145
v 2.171821 15.000000 -27.541145
v 1.671821 15.000000 -27.541145
v 2.171821 17.000000 -27.541145
v 1.671821 17.000000 -27.541145
v 2.171821 16.593998 -32.041145
v 2.171821 15.406002 -32.041145
v 1.671821 15.406002 -32.041145
v 1.671821 16.593998 -32.041145
v 2.171821 15.406002 -27.541145
v 2.171821 16.593998 -27.541145
v 1.671821 16.593998 -27.541145
v 1.671821 15.406002 -27.541145
v -1.818181 15.252292 -27.913305
v -1.818181 16.747707 -27.913305
v -1.712388 15.252292 -27.852224
v -1.712388 16.747707 -27.852224
v -1.712388 15.252292 -27.730066
v -1.712388 16.747707 -27.730066
v -1.818181 15.252292 -27.668985
v -1.818181 16.747707 -27.668985
v -1.923974 15.252292 -27.730066
v -1.923974 16.747707 -27.730066
v -1.923974 15.252292 -27.852224
v -1.923974 16.747707 -27.852224
v -0.818181 15.252292 -27.913305
v -0.818181 16.747707 -27.913305
v -0.712388 15.252292 -27.852224
v -0.712388 16.747707 -27.852224
v -0.712388 15.252292 -27.730066
v -0.712388 16.747707 -27.730066
v -0.818181 15.252292 -27.668985
v -0.818181 16.747707 -27.668985
v -0.923974 15.252292 -27.730066
v -0.923974 16.747707 -27.730066
v -0.923974 15.252292 -27.852224
v -0.923974 16.747707 -27.852224
v 0.181819 15.252292 -27.913305
v 0.181819 16.747707 -27.913305
v 0.287612 15.252292 -27.852224
v 0.287612 16.747707 -27.852224
v 0.287612 15.252292 -27.730066
v 0.287612 16.747707 -27.730066
v 0.181819 15.252292 -27.668985
v 0.181819 16.747707 -27.668985
v 0.076026 15.252292 -27.730066
v 0.076026 16.747707 -27.730066
v 0.076026 15.252292 -27.852224
v 0.076026 16.747707 -27.852224
v 1.181819 15.252292 -27.913305
v 1.181819 16.747707 -27.913305
v 1.287612 15.252292 -27.852224
v 1.287612 16.747707 -27.852224
v 1.287612 15.252292 -27.730066
v 1.287612 16.747707 -27.730066
v 1.181819 15.252292 -27.668985
v 1.181819 16.747707 -27.668985
v 1.076026 15.252292 -27.730066
v 1.076026 16.747707 -27.730066
v 1.076026 15.252292 -27.852224
v 1.076026 16.747707 -27.852224
v -2.328181 15.000000 -28.041145
v -2.328181 15.000000 -27.541145
v -2.328181 17.000000 -28.041145
v -2.328181 17.000000 -27.541145
v 1.671819 15.000000 -28.041145
v 1.671819 15.000000 -27.541145
v 1.671819 17.000000 -28.041145
v 1.671819 17.000000 -27.541145
v -2.328181 16.593998 -28.041145
v -2.328181 15.406002 -28.041145
v -2.328181 15.406002 -27.541145
v -2.328181 16.593998 -27.541145
v 1.671819 15.406002 -28.041145
v 1.671819 16.593998 -28.041145
v 1.671819 16.593998 -27.541145
v 1.671819 15.406002 -27.541145
v -2.456021 15.252292 -31.467396
v -2.456021 16.747707 -31.467396
v -2.517101 15.252292 -31.348377
v -2.517101 16.747707 -31.348377
v -2.639260 15.252292 -31.348377
v -2.639260 16.747707 -31.348377
v -2.700340 15.252292 -31.467396
v -2.700340 16.747707 -31.467396
v -2.639260 15.252292 -31.586412
v -2.639260 16.747707 -31.586412
v -2.517101 15.252292 -31.586412
v -2.517101 16.747707 -31.586412
v -2.456021 15.252292 -30.342396
v -2.456021 16.747707 -30.342396
v -2.517101 15.252292 -30.223377
v -2.517101 16.747707 -30.223377
v -2.639260 15.252292 -30.223377
v -2.639260 16.747707 -30.223377
v -2.700340 15.252292 -30.342396
v -2.700340 16.747707 -30.342396
v -2.639260 15.252292 -30.461412
v -2.639260 16.747707 -30.461412
v -2.517101 15.252292 -30.461412
v -2.517101 16.747707 -30.461412
v -2.456022 15.252292 -29.217396
v -2.456022 16.747707 -29.217396
v -2.517101 15.252292 -29.098377
v -2.517101 16.747707 -29.098377
v -2.639261 15.252292 -29.098377
v -2.639261 16.747707 -29.098377
v -2.700340 15.252292 -29.217396
v -2.700340 16.747707 -29.217396
v -2.639261 15.252292 -29.336412
v -2.639261 16.747707 -29.336412
v -2.517101 15.252292 -29.336412
v -2.517101 16.747707 -29.336412
v -2.456022 15.252292 -28.092396
v -2.456022 16.747707 -28.092396
v -2.517101 15.252292 -27.973377
v -2.517101 16.747707 -27.973377
v -2.639261 15.252292 -27.973377
v -2.639261 16.747707 -27.973377
v -2.700340 15.252292 -28.092396
v -2.700340 16.747707 -28.092396
v -2.639261 15.252292 -28.211412
v -2.639261 16.747707 -28.211412
v -2.517101 15.252292 -28.211412
v -2.517101 16.747707 -28.211412
v -2.328181 15.000000 -32.041145
v -2.828181 15.000000 -32.041145
v -2.328181 17.000000 -32.041145
v -2.828181 17.000000 -32.041145
v -2.328181 15.000000 -27.541145
v -2.828181 15.000000 -27.541145
v -2.328181 17.000000 -27.541145
v -2.828181 17.000000 -27.541145
v -2.328181 16.593998 -32.041145
v -2.328181 15.406002 -32.041145
v -2.828181 15.406002 -32.041145
v -2.828181 16.593998 -32.041145
v -2.328181 15.406002 -27.541145
v -2.328181 16.593998 -27.541145
v -2.828181 16.593998 -27.541145
v -2.828181 15.406002 -27.541145
vn 0.5000 -0.0000 -0.8660
vn 1.0000 -0.0000 -0.0000
vn 0.5000 -0.0000 0.8660
vn -0.5000 -0.0000 0.8660
vn -0.0000 1.0000 -0.0000
vn -1.0000 -0.0000 -0.0000
vn -0.5000 -0.0000 -0.8660
vn -0.0000 -1.0000 -0.0000
vn -0.0000 -0.0000 -1.0000
vn -0.0000 -0.0000 1.0000
vn 0.8897 -0.0000 0.4566
vn -0.8897 -0.0000 0.4566
vn -0.8897 -0.0000 -0.4566
vn 0.8897 -0.0000 -0.4566
vt 0.076745 0.197902
vt 0.076745 0.197902
vt 0.061981 0.187980
s 1
usemtl Material.265
f 1/1/1 2/1/1 4/1/1 3/1/1
f 3/1/2 4/1/2 6/1/2 5/1/2
f 5/1/3 6/1/3 8/1/3 7/1/3
f 7/1/4 8/1/4 10/1/4 9/1/4
f 4/1/5 2/1/5 12/1/5 10/1/5 8/1/5 6/1/5
f 9/1/6 10/1/6 12/1/6 11/1/6
f 11/1/7 12/1/7 2/2/7 1/2/7
f 1/1/8 3/1/8 5/1/8 7/1/8 9/1/8 11/1/8
f 13/1/1 14/1/1 16/1/1 15/1/1
f 15/1/2 16/1/2 18/1/2 17/1/2
f 17/1/3 18/1/3 20/1/3 19/1/3
f 19/1/4 20/1/4 22/1/4 21/1/4
f 16/1/5 14/1/5 24/1/5 22/1/5 20/1/5 18/1/5
f 21/1/6 22/1/6 24/1/6 23/1/6
f 23/1/7 24/1/7 14/2/7 13/2/7
f 13/1/8 15/1/8 17/1/8 19/1/8 21/1/8 23/1/8
f 25/1/1 26/1/1 28/1/1 27/1/1
f 27/1/2 28/1/2 30/1/2 29/1/2
f 29/1/3 30/1/3 32/1/3 31/1/3
f 31/1/4 32/1/4 34/1/4 33/1/4
f 28/1/5 26/1/5 36/1/5 34/1/5 32/1/5 30/1/5
f 33/1/6 34/1/6 36/1/6 35/1/6
f 35/1/7 36/1/7 26/2/7 25/2/7
f 25/1/8 27/1/8 29/1/8 31/1/8 33/1/8 35/1/8
f 37/1/1 38/1/1 40/1/1 39/1/1
f 39/1/2 40/1/2 42/1/2 41/1/2
f 41/1/3 42/1/3 44/1/3 43/1/3
f 43/1/4 44/1/4 46/1/4 45/1/4
f 40/1/5 38/1/5 48/1/5 46/1/5 44/1/5 42/1/5
f 45/1/6 46/1/6 48/1/6 47/1/6
f 47/1/7 48/1/7 38/2/7 37/2/7
f 37/1/8 39/1/8 41/1/8 43/1/8 45/1/8 47/1/8
f 57/3/6 60/3/6 52/3/6 51/3/6
f 51/3/5 52/3/5 56/3/5 55/3/5
f 61/3/2 64/3/2 54/3/2 53/3/2
f 53/3/8 54/3/8 50/3/8 49/3/8
f 58/3/9 61/3/9 53/3/9 49/3/9
f 64/3/10 59/3/10 50/3/10 54/3/10
f 56/3/10 52/3/10 60/3/10 63/3/10
f 51/3/9 55/3/9 62/3/9 57/3/9
f 55/3/2 56/3/2 63/3/2 62/3/2
f 59/3/5 64/3/5 61/3/5 58/3/5
f 49/3/6 50/3/6 59/3/6 58/3/6
f 60/3/8 57/3/8 62/3/8 63/3/8
usemtl Material.263
f 65/1/11 66/1/11 68/1/11 67/1/11
f 67/1/10 68/1/10 70/1/10 69/1/10
f 69/1/12 70/1/12 72/1/12 71/1/12
f 71/1/13 72/1/13 74/1/13 73/1/13
f 68/1/5 66/1/5 76/1/5 74/1/5 72/1/5 70/1/5
f 73/1/9 74/1/9 76/1/9 75/1/9
f 75/1/14 76/1/14 66/2/14 65/2/14
f 65/1/8 67/1/8 69/1/8 71/1/8 73/1/8 75/1/8
f 77/1/11 78/1/11 80/1/11 79/1/11
f 79/1/10 80/1/10 82/1/10 81/1/10
f 81/1/12 82/1/12 84/1/12 83/1/12
f 83/1/13 84/1/13 86/1/13 85/1/13
f 80/1/5 78/1/5 88/1/5 86/1/5 84/1/5 82/1/5
f 85/1/9 86/1/9 88/1/9 87/1/9
f 87/1/14 88/1/14 78/2/14 77/2/14
f 77/1/8 79/1/8 81/1/8 83/1/8 85/1/8 87/1/8
f 89/1/11 90/1/11 92/1/11 91/1/11
f 91/1/10 92/1/10 94/1/10 93/1/10
f 93/1/12 94/1/12 96/1/12 95/1/12
f 95/1/13 96/1/13 98/1/13 97/1/13
f 92/1/5 90/1/5 100/1/5 98/1/5 96/1/5 94/1/5
f 97/1/9 98/1/9 100/1/9 99/1/9
f 99/1/14 100/1/14 90/2/14 89/2/14
f 89/1/8 91/1/8 93/1/8 95/1/8 97/1/8 99/1/8
f 101/1/11 102/1/11 104/1/11 103/1/11
f 103/1/10 104/1/10 106/1/10 105/1/10
f 105/1/12 106/1/12 108/1/12 107/1/12
f 107/1/13 108/1/13 110/1/13 109/1/13
f 104/1/5 102/1/5 112/1/5 110/1/5 108/1/5 106/1/5
f 109/1/9 110/1/9 112/1/9 111/1/9
f 111/1/14 112/1/14 102/2/14 101/2/14
f 101/1/8 103/1/8 105/1/8 107/1/8 109/1/8 111/1/8
f 121/3/9 124/3/9 116/3/9 115/3/9
f 115/3/5 116/3/5 120/3/5 119/3/5
f 125/3/10 128/3/10 118/3/10 117/3/10
f 117/3/8 118/3/8 114/3/8 113/3/8
f 122/3/2 125/3/2 117/3/2 113/3/2
f 128/3/6 123/3/6 114/3/6 118/3/6
f 120/3/6 116/3/6 124/3/6 127/3/6
f 115/3/2 119/3/2 126/3/2 121/3/2
f 119/3/10 120/3/10 127/3/10 126/3/10
f 123/3/5 128/3/5 125/3/5 122/3/5
f 113/3/9 114/3/9 123/3/9 122/3/9
f 124/3/8 121/3/8 126/3/8 127/3/8
usemtl Material.264
f 129/1/1 130/1/1 132/1/1 131/1/1
f 131/1/2 132/1/2 134/1/2 133/1/2
f 133/1/3 134/1/3 136/1/3 135/1/3
f 135/1/4 136/1/4 138/1/4 137/1/4
f 132/1/5 130/1/5 140/1/5 138/1/5 136/1/5 134/1/5
f 137/1/6 138/1/6 140/1/6 139/1/6
f 139/1/7 140/1/7 130/2/7 129/2/7
f 129/1/8 131/1/8 133/1/8 135/1/8 137/1/8 139/1/8
f 141/1/1 142/1/1 144/1/1 143/1/1
f 143/1/2 144/1/2 146/1/2 145/1/2
f 145/1/3 146/1/3 148/1/3 147/1/3
f 147/1/4 148/1/4 150/1/4 149/1/4
f 144/1/5 142/1/5 152/1/5 150/1/5 148/1/5 146/1/5
f 149/1/6 150/1/6 152/1/6 151/1/6
f 151/1/7 152/1/7 142/2/7 141/2/7
f 141/1/8 143/1/8 145/1/8 147/1/8 149/1/8 151/1/8
f 153/1/1 154/1/1 156/1/1 155/1/1
f 155/1/2 156/1/2 158/1/2 157/1/2
f 157/1/3 158/1/3 160/1/3 159/1/3
f 159/1/4 160/1/4 162/1/4 161/1/4
f 156/1/5 154/1/5 164/1/5 162/1/5 160/1/5 158/1/5
f 161/1/6 162/1/6 164/1/6 163/1/6
f 163/1/7 164/1/7 154/2/7 153/2/7
f 153/1/8 155/1/8 157/1/8 159/1/8 161/1/8 163/1/8
f 165/1/1 166/1/1 168/1/1 167/1/1
f 167/1/2 168/1/2 170/1/2 169/1/2
f 169/1/3 170/1/3 172/1/3 171/1/3
f 171/1/4 172/1/4 174/1/4 173/1/4
f 168/1/5 166/1/5 176/1/5 174/1/5 172/1/5 170/1/5
f 173/1/6 174/1/6 176/1/6 175/1/6
f 175/1/7 176/1/7 166/2/7 165/2/7
f 165/1/8 167/1/8 169/1/8 171/1/8 173/1/8 175/1/8
f 185/3/6 188/3/6 180/3/6 179/3/6
f 179/3/5 180/3/5 184/3/5 183/3/5
f 189/3/2 192/3/2 182/3/2 181/3/2
f 181/3/8 182/3/8 178/3/8 177/3/8
f 186/3/9 189/3/9 181/3/9 177/3/9
f 192/3/10 187/3/10 178/3/10 182/3/10
f 184/3/10 180/3/10 188/3/10 191/3/10
f 179/3/9 183/3/9 190/3/9 185/3/9
f 183/3/2 184/3/2 191/3/2 190/3/2
f 187/3/5 192/3/5 189/3/5 186/3/5
f 177/3/6 178/3/6 187/3/6 186/3/6
f 188/3/8 185/3/8 190/3/8 191/3/8
usemtl Material.266
f 193/1/11 194/1/11 196/1/11 195/1/11
f 195/1/10 196/1/10 198/1/10 197/1/10
f 197/1/12 198/1/12 200/1/12 199/1/12
f 199/1/13 200/1/13 202/1/13 201/1/13
f 196/1/5 194/1/5 204/1/5 202/1/5 200/1/5 198/1/5
f 201/1/9 202/1/9 204/1/9 203/1/9
f 203/1/14 204/1/14 194/2/14 193/2/14
f 193/1/8 195/1/8 197/1/8 199/1/8 201/1/8 203/1/8
f 205/1/11 206/1/11 208/1/11 207/1/11
f 207/1/10 208/1/10 210/1/10 209/1/10
f 209/1/12 210/1/12 212/1/12 211/1/12
f 211/1/13 212/1/13 214/1/13 213/1/13
f 208/1/5 206/1/5 216/1/5 214/1/5 212/1/5 210/1/5
f 213/1/9 214/1/9 216/1/9 215/1/9
f 215/1/14 216/1/14 206/2/14 205/2/14
f 205/1/8 207/1/8 209/1/8 211/1/8 213/1/8 215/1/8
f 217/1/11 218/1/11 220/1/11 219/1/11
f 219/1/10 220/1/10 222/1/10 221/1/10
f 221/1/12 222/1/12 224/1/12 223/1/12
f 223/1/13 224/1/13 226/1/13 225/1/13
f 220/1/5 218/1/5 228/1/5 226/1/5 224/1/5 222/1/5
f 225/1/9 226/1/9 228/1/9 227/1/9
f 227/1/14 228/1/14 218/2/14 217/2/14
f 217/1/8 219/1/8 221/1/8 223/1/8 225/1/8 227/1/8
f 229/1/11 230/1/11 232/1/11 231/1/11
f 231/1/10 232/1/10 234/1/10 233/1/10
f 233/1/12 234/1/12 236/1/12 235/1/12
f 235/1/13 236/1/13 238/1/13 237/1/13
f 232/1/5 230/1/5 240/1/5 238/1/5 236/1/5 234/1/5
f 237/1/9 238/1/9 240/1/9 239/1/9
f 239/1/14 240/1/14 230/2/14 229/2/14
f 229/1/8 231/1/8 233/1/8 235/1/8 237/1/8 239/1/8
f 249/3/9 252/3/9 244/3/9 243/3/9
f 243/3/5 244/3/5 248/3/5 247/3/5
f 253/3/10 256/3/10 246/3/10 245/3/10
f 245/3/8 246/3/8 242/3/8 241/3/8
f 250/3/2 253/3/2 245/3/2 241/3/2
f 256/3/6 251/3/6 242/3/6 246/3/6
f 248/3/6 244/3/6 252/3/6 255/3/6
f 243/3/2 247/3/2 254/3/2 249/3/2
f 247/3/10 248/3/10 255/3/10 254/3/10
f 251/3/5 256/3/5 253/3/5 250/3/5
f 241/3/9 242/3/9 251/3/9 250/3/9
f 252/3/8 249/3/8 254/3/8 255/3/8
