# Blender 4.5.3 LTS
# www.blender.org
mtllib entrada.mtl
o Wall_door.009
v -1.328179 8.000000 -28.290998
v 0.671821 8.000000 -28.291096
v -1.328130 8.000000 -27.291000
v 0.671870 8.000000 -27.291096
v -1.328179 11.000000 -28.291000
v 0.671821 11.000000 -28.291098
v -1.328130 11.000000 -27.291000
v 0.671870 11.000000 -27.291098
v -2.328130 12.000000 -27.290951
v -2.328130 8.000000 -27.290951
v 1.671870 8.000000 -27.291145
v 1.671870 12.000000 -27.291145
v -2.328179 8.000000 -28.290951
v -2.328179 12.000000 -28.290951
v 1.671821 12.000000 -28.291145
v 1.671821 8.000000 -28.291145
vn -1.0000 -0.0000 -0.0000
vn 1.0000 -0.0000 -0.0000
vn -0.0000 1.0000 -0.0000
vn -0.0000 -1.0000 -0.0000
vn -0.0000 -0.0000 1.0000
vn -0.0000 -0.0000 -1.0000
vt 0.061981 0.187981
vt 0.061981 0.187981
vt 0.061981 0.187981
vt 0.061981 0.187981
vt 0.061981 0.187980
vt 0.061981 0.187981
s 1
usemtl Material.247
f 10/1/1 9/1/1 14/1/1 13/1/1
f 12/1/2 11/1/2 16/1/2 15/1/2
f 6/2/1 2/3/1 4/4/1 8/3/1
f 9/1/3 12/3/3 15/1/3 14/1/3
f 5/5/4 6/2/4 8/3/4 7/3/4
f 3/6/5 7/3/5 9/1/5 10/1/5
f 8/3/5 4/4/5 11/3/5 12/3/5
f 5/5/6 1/1/6 13/1/6 14/1/6
f 2/3/6 6/2/6 15/1/6 16/1/6
f 10/1/4 13/1/4 1/1/4 3/6/4
f 6/2/6 5/5/6 14/1/6 15/1/6
f 7/3/5 8/3/5 12/3/5 9/1/5
f 11/3/4 4/4/4 2/3/4 16/1/4
f 1/1/2 5/5/2 7/3/2 3/6/2
