# Blender 4.5.3 LTS
# www.blender.org
mtllib puente.mtl
o Wall.068
v -2.328038 8.003870 -13.656847
v -2.328180 8.003870 -16.576847
v -2.328038 7.503870 -13.656847
v -2.328180 7.503870 -16.576847
v 1.671962 8.003870 -13.657042
v 1.671819 8.003870 -16.577042
v 1.671962 7.503870 -13.657042
v 1.671819 7.503870 -16.577042
v -2.328698 7.503870 -27.283518
v -2.328556 7.503870 -24.363518
v -2.328698 8.003869 -27.283518
v -2.328556 8.003870 -24.363518
v 1.671302 7.503870 -27.283712
v 1.671444 7.503870 -24.363712
v 1.671302 8.003870 -27.283712
v 1.671444 8.003870 -24.363712
v -2.328560 7.503870 -24.363516
v -2.328370 7.503870 -20.470182
v -2.328560 8.003869 -24.363516
v -2.328370 8.003870 -20.470182
v 1.671440 7.503870 -24.363710
v 1.671630 7.503870 -20.470377
v 1.671440 8.003870 -24.363710
v 1.671630 8.003870 -20.470377
v -2.328370 7.503870 -20.470181
v -2.328181 7.503870 -16.576847
v -2.328370 8.003869 -20.470181
v -2.328181 8.003870 -16.576847
v 1.671630 7.503870 -20.470375
v 1.671819 7.503870 -16.577042
v 1.671630 8.003870 -20.470375
v 1.671819 8.003870 -16.577042
vn -0.0000 -0.0000 1.0000
vn -0.0000 -0.0000 -1.0000
vn -0.0000 1.0000 -0.0000
vn 1.0000 -0.0000 -0.0000
vn -0.0000 -1.0000 -0.0000
vn -1.0000 -0.0000 -0.0000
vt 0.061981 0.187981
vt 0.061981 0.187981
s 1
usemtl Material.174
f 3/1/1 7/1/1 5/1/1 1/1/1
f 8/1/2 4/1/2 2/1/2 6/1/2
f 5/1/3 6/1/3 2/1/3 1/1/3
f 7/1/4 8/2/4 6/1/4 5/1/4
f 3/1/5 4/2/5 8/2/5 7/1/5
f 1/1/6 2/1/6 4/2/6 3/1/6
usemtl Material.097
f 11/1/2 15/1/2 13/1/2 9/1/2
f 16/1/1 12/1/1 10/1/1 14/1/1
f 13/1/5 14/1/5 10/1/5 9/1/5
f 15/1/4 16/2/4 14/1/4 13/1/4
f 11/1/3 12/2/3 16/2/3 15/1/3
f 9/1/6 10/1/6 12/2/6 11/1/6
usemtl Material.099
f 19/1/2 23/1/2 21/1/2 17/1/2
f 24/1/1 20/1/1 18/1/1 22/1/1
f 21/1/5 22/1/5 18/1/5 17/1/5
f 23/1/4 24/2/4 22/1/4 21/1/4
f 19/1/3 20/2/3 24/2/3 23/1/3
f 17/1/6 18/1/6 20/2/6 19/1/6
usemtl Material.166
f 27/1/2 31/1/2 29/1/2 25/1/2
f 32/1/1 28/1/1 26/1/1 30/1/1
f 29/1/5 30/1/5 26/1/5 25/1/5
f 31/1/4 32/2/4 30/1/4 29/1/4
f 27/1/3 28/2/3 32/2/3 31/1/3
f 25/1/6 26/1/6 28/2/6 27/1/6
