# Blender 4.5.3 LTS
# www.blender.org
mtllib pared2b.mtl
o Wall.051
v 4.864593 0.003870 10.293213
v 4.864787 0.003871 14.293213
v 3.864593 0.003870 10.293262
v 3.864787 0.003871 14.293262
v 4.864593 4.003870 10.293213
v 4.864787 4.003870 14.293213
v 3.864593 4.003870 10.293262
v 3.864787 4.003870 14.293262
v 3.864543 1.003867 9.293262
v 3.864446 1.003868 7.293262
v 4.864543 1.003867 9.293213
v 4.864447 1.003868 7.293213
v 3.864543 3.003867 9.293262
v 3.864446 3.003867 7.293262
v 4.864543 3.003867 9.293213
v 4.864447 3.003867 7.293213
v 4.864592 4.003867 10.293213
v 4.864592 0.003867 10.293213
v 4.864398 0.003868 6.293213
v 4.864398 4.003867 6.293213
v 3.864592 0.003867 10.293262
v 3.864592 4.003867 10.293262
v 3.864398 4.003867 6.293262
v 3.864398 0.003868 6.293262
vn -0.0000 -0.0000 -1.0000
vn -0.0000 -0.0000 1.0000
vn 1.0000 -0.0000 -0.0000
vn -0.0000 1.0000 -0.0000
vn -1.0000 -0.0000 -0.0000
vn -0.0000 -1.0000 -0.0000
vt 0.061981 0.187981
vt 0.061981 0.187981
vt 0.061981 0.187981
vt 0.061981 0.187981
vt 0.061981 0.187980
vt 0.061981 0.187981
s 1
usemtl Material.127
f 3/1/1 7/1/1 5/1/1 1/1/1
f 8/1/2 4/1/2 2/1/2 6/1/2
f 5/1/3 6/1/3 2/1/3 1/1/3
f 7/1/4 8/2/4 6/1/4 5/1/4
f 3/1/5 4/2/5 8/2/5 7/1/5
f 1/1/6 2/1/6 4/2/6 3/1/6
usemtl Material.183
f 18/1/2 17/1/2 22/1/2 21/1/2
f 20/1/1 19/1/1 24/1/1 23/1/1
f 14/3/2 10/2/2 12/4/2 16/2/2
f 17/1/4 20/2/4 23/1/4 22/1/4
f 13/5/6 14/3/6 16/2/6 15/2/6
f 21/1/6 24/1/6 19/2/6 18/1/6
f 11/6/3 15/2/3 17/1/3 18/1/3
f 16/2/3 12/4/3 19/2/3 20/2/3
f 13/5/5 9/1/5 21/1/5 22/1/5
f 10/2/5 14/3/5 23/1/5 24/1/5
f 9/1/5 10/2/5 24/1/5 21/1/5
f 14/3/5 13/5/5 22/1/5 23/1/5
f 15/2/3 16/2/3 20/2/3 17/1/3
f 12/4/3 11/6/3 18/1/3 19/2/3
f 10/2/4 9/1/4 11/6/4 12/4/4
f 9/1/1 13/5/1 15/2/1 11/6/1
