# Blender 4.5.3 LTS
# www.blender.org
mtllib pared2a.mtl
o Wall.065
v 4.863408 4.003867 -13.706829
v 4.863602 4.003867 -9.706829
v 3.863408 4.003867 -13.706780
v 3.863602 4.003867 -9.706780
v 4.863408 8.003866 -13.706829
v 4.863602 8.003866 -9.706829
v 3.863408 8.003866 -13.706780
v 3.863602 8.003866 -9.706780
v 4.863991 4.003867 -1.706829
v 4.864186 4.003867 2.293171
v 3.863991 4.003867 -1.706780
v 3.864186 4.003867 2.293220
v 4.863991 8.003866 -1.706829
v 4.864186 8.003866 2.293171
v 3.863991 8.003866 -1.706780
v 3.864186 8.003866 2.293220
v 4.864186 4.003867 2.293171
v 4.864380 4.003867 6.293171
v 3.864186 4.003867 2.293220
v 3.864381 4.003867 6.293221
v 4.864186 8.003866 2.293171
v 4.864380 8.003866 6.293171
v 3.864186 8.003866 2.293220
v 3.864381 8.003866 6.293221
v 4.863797 4.003867 -5.706829
v 4.863991 4.003867 -1.706829
v 3.863797 4.003867 -5.706780
v 3.863991 4.003867 -1.706780
v 4.863797 8.003866 -5.706829
v 4.863991 8.003866 -1.706829
v 3.863797 8.003866 -5.706780
v 3.863991 8.003866 -1.706780
v 4.863602 4.003867 -9.706829
v 4.863797 4.003867 -5.706829
v 3.863602 4.003867 -9.706780
v 3.863797 4.003867 -5.706780
v 4.863602 8.003866 -9.706829
v 4.863797 8.003866 -5.706829
v 3.863602 8.003866 -9.706780
v 3.863797 8.003866 -5.706780
v 4.864380 4.003867 6.293171
v 4.864575 4.003867 10.293171
v 3.864381 4.003867 6.293221
v 3.864575 4.003867 10.293221
v 4.864380 8.003866 6.293171
v 4.864575 8.003866 10.293171
v 3.864381 8.003866 6.293221
v 3.864575 8.003866 10.293221
v 4.864575 4.003867 10.293171
v 4.864770 4.003867 14.293171
v 3.864575 4.003867 10.293221
v 3.864770 4.003867 14.293221
v 4.864575 8.003866 10.293171
v 4.864770 8.003866 14.293171
v 3.864575 8.003866 10.293221
v 3.864770 8.003866 14.293221
vn -0.0000 -0.0000 -1.0000
vn -0.0000 -0.0000 1.0000
vn 1.0000 -0.0000 -0.0000
vn -0.0000 1.0000 -0.0000
vn -1.0000 -0.0000 -0.0000
vn -0.0000 -1.0000 -0.0000
vt 0.061981 0.187981
vt 0.061981 0.187981
s 1
usemtl Material.170
f 3/1/1 7/1/1 5/1/1 1/1/1
f 8/1/2 4/1/2 2/1/2 6/1/2
f 5/1/3 6/1/3 2/1/3 1/1/3
f 7/1/4 8/2/4 6/1/4 5/1/4
f 3/1/5 4/2/5 8/2/5 7/1/5
f 1/1/6 2/1/6 4/2/6 3/1/6
usemtl Material.094
f 11/1/1 15/1/1 13/1/1 9/1/1
f 16/1/2 12/1/2 10/1/2 14/1/2
f 13/1/3 14/1/3 10/1/3 9/1/3
f 15/1/4 16/2/4 14/1/4 13/1/4
f 11/1/5 12/2/5 16/2/5 15/1/5
f 9/1/6 10/1/6 12/2/6 11/1/6
usemtl Material.095
f 19/1/1 23/1/1 21/1/1 17/1/1
f 24/1/2 20/1/2 18/1/2 22/1/2
f 21/1/3 22/1/3 18/1/3 17/1/3
f 23/1/4 24/2/4 22/1/4 21/1/4
f 19/1/5 20/2/5 24/2/5 23/1/5
f 17/1/6 18/1/6 20/2/6 19/1/6
usemtl Material.121
f 27/1/1 31/1/1 29/1/1 25/1/1
f 32/1/2 28/1/2 26/1/2 30/1/2
f 29/1/3 30/1/3 26/1/3 25/1/3
f 31/1/4 32/2/4 30/1/4 29/1/4
f 27/1/5 28/2/5 32/2/5 31/1/5
f 25/1/6 26/1/6 28/2/6 27/1/6
usemtl Material.169
f 35/1/1 39/1/1 37/1/1 33/1/1
f 40/1/2 36/1/2 34/1/2 38/1/2
f 37/1/3 38/1/3 34/1/3 33/1/3
f 39/1/4 40/2/4 38/1/4 37/1/4
f 35/1/5 36/2/5 40/2/5 39/1/5
f 33/1/6 34/1/6 36/2/6 35/1/6
usemtl Material.172
f 43/1/1 47/1/1 45/1/1 41/1/1
f 48/1/2 44/1/2 42/1/2 46/1/2
f 45/1/3 46/1/3 42/1/3 41/1/3
f 47/1/4 48/2/4 46/1/4 45/1/4
f 43/1/5 44/2/5 48/2/5 47/1/5
f 41/1/6 42/1/6 44/2/6 43/1/6
usemtl Material.173
f 51/1/1 55/1/1 53/1/1 49/1/1
f 56/1/2 52/1/2 50/1/2 54/1/2
f 53/1/3 54/1/3 50/1/3 49/1/3
f 55/1/4 56/2/4 54/1/4 53/1/4
f 51/1/5 52/2/5 56/2/5 55/1/5
f 49/1/6 50/1/6 52/2/6 51/1/6
