# Blender 4.5.3 LTS
# www.blender.org
mtllib pared2c.mtl
o Wall.004
v 4.863408 0.003870 -13.706829
v 4.863602 0.003871 -9.706829
v 3.863408 0.003870 -13.706780
v 3.863602 0.003871 -9.706780
v 4.863408 4.003870 -13.706829
v 4.863602 4.003870 -9.706829
v 3.863408 4.003870 -13.706780
v 3.863602 4.003870 -9.706780
v 3.864137 1.003867 1.293220
v 3.864040 1.003868 -0.706780
v 4.864137 1.003867 1.293171
v 4.864040 1.003868 -0.706829
v 3.864137 3.003867 1.293220
v 3.864040 3.003867 -0.706780
v 4.864137 3.003867 1.293171
v 4.864040 3.003867 -0.706829
v 4.864186 4.003867 2.293171
v 4.864186 0.003867 2.293171
v 4.863991 0.003868 -1.706829
v 4.863991 4.003867 -1.706829
v 3.864186 0.003867 2.293220
v 3.864186 4.003867 2.293220
v 3.863991 4.003867 -1.706780
v 3.863991 0.003868 -1.706780
v 4.863602 0.003867 -9.706829
v 4.863797 0.003867 -5.706829
v 3.863602 0.003867 -9.706780
v 3.863797 0.003867 -5.706780
v 4.863602 4.003867 -9.706829
v 4.863797 4.003867 -5.706829
v 3.863602 4.003867 -9.706780
v 3.863797 4.003867 -5.706780
v 4.863797 0.003867 -5.706829
v 4.863991 0.003867 -1.706829
v 3.863797 0.003867 -5.706780
v 3.863991 0.003867 -1.706780
v 4.863797 4.003867 -5.706829
v 4.863991 4.003867 -1.706829
v 3.863797 4.003867 -5.706780
v 3.863991 4.003867 -1.706780
vn -0.0000 -0.0000 -1.0000
vn -0.0000 -0.0000 1.0000
vn 1.0000 -0.0000 -0.0000
vn -0.0000 1.0000 -0.0000
vn -1.0000 -0.0000 -0.0000
vn -0.0000 -1.0000 -0.0000
vt 0.061981 0.187981
vt 0.061981 0.187981
vt 0.061981 0.187981
vt 0.061981 0.187981
vt 0.061981 0.187980
vt 0.061981 0.187981
s 1
usemtl Material.093
f 3/1/1 7/1/1 5/1/1 1/1/1
f 8/1/2 4/1/2 2/1/2 6/1/2
f 5/1/3 6/1/3 2/1/3 1/1/3
f 7/1/4 8/2/4 6/1/4 5/1/4
f 3/1/5 4/2/5 8/2/5 7/1/5
f 1/1/6 2/1/6 4/2/6 3/1/6
usemtl Material.001
f 18/1/2 17/1/2 22/1/2 21/1/2
f 20/1/1 19/1/1 24/1/1 23/1/1
f 14/3/2 10/2/2 12/4/2 16/2/2
f 17/1/4 20/2/4 23/1/4 22/1/4
f 13/5/6 14/3/6 16/2/6 15/2/6
f 21/1/6 24/1/6 19/2/6 18/1/6
f 11/6/3 15/2/3 17/1/3 18/1/3
f 16/2/3 12/4/3 19/2/3 20/2/3
f 13/5/5 9/1/5 21/1/5 22/1/5
f 10/2/5 14/3/5 23/1/5 24/1/5
f 9/1/5 10/2/5 24/1/5 21/1/5
f 14/3/5 13/5/5 22/1/5 23/1/5
f 15/2/3 16/2/3 20/2/3 17/1/3
f 12/4/3 11/6/3 18/1/3 19/2/3
f 10/2/4 9/1/4 11/6/4 12/4/4
f 9/1/1 13/5/1 15/2/1 11/6/1
usemtl Material.084
f 27/1/1 31/1/1 29/1/1 25/1/1
f 32/1/2 28/1/2 26/1/2 30/1/2
f 29/1/3 30/1/3 26/1/3 25/1/3
f 31/1/4 32/2/4 30/1/4 29/1/4
f 27/1/5 28/2/5 32/2/5 31/1/5
f 25/1/6 26/1/6 28/2/6 27/1/6
usemtl Material.088
f 35/1/1 39/1/1 37/1/1 33/1/1
f 40/1/2 36/1/2 34/1/2 38/1/2
f 37/1/3 38/1/3 34/1/3 33/1/3
f 39/1/4 40/2/4 38/1/4 37/1/4
f 35/1/5 36/2/5 40/2/5 39/1/5
f 33/1/6 34/1/6 36/2/6 35/1/6
