# Blender 4.5.3 LTS
# www.blender.org
mtllib techo1.mtl
o Pillar.032
v 4.864280 5.003867 4.293172
v 4.864086 5.003867 0.293172
v 4.864280 4.003867 4.293172
v 4.864086 4.003867 0.293172
v 5.864280 5.003867 4.293124
v 5.864086 5.003867 0.293124
v 5.864280 4.003867 4.293124
v 5.864086 4.003867 0.293124
v 4.864475 5.003867 8.293173
v 4.864281 5.003867 4.293173
v 4.864475 4.003867 8.293173
v 4.864281 4.003867 4.293173
v 5.864475 5.003867 8.293124
v 5.864281 5.003867 4.293124
v 5.864475 4.003867 8.293124
v 5.864281 4.003867 4.293124
vn -1.0000 -0.0000 -0.0000
vn -0.0000 -1.0000 -0.0000
vn 1.0000 -0.0000 -0.0000
vn -0.0000 1.0000 -0.0000
vn -0.0000 -0.0000 1.0000
vn -0.0000 -0.0000 -1.0000
vt 0.061981 0.187981
s 1
usemtl Material.001
f 1/1/1 2/1/1 4/1/1 3/1/1
f 3/1/2 4/1/2 8/1/2 7/1/2
f 7/1/3 8/1/3 6/1/3 5/1/3
f 5/1/4 6/1/4 2/1/4 1/1/4
f 3/1/5 7/1/5 5/1/5 1/1/5
f 8/1/6 4/1/6 2/1/6 6/1/6
f 9/1/1 10/1/1 12/1/1 11/1/1
f 11/1/2 12/1/2 16/1/2 15/1/2
f 15/1/3 16/1/3 14/1/3 13/1/3
f 13/1/4 14/1/4 10/1/4 9/1/4
f 11/1/5 15/1/5 13/1/5 9/1/5
f 16/1/6 12/1/6 10/1/6 14/1/6
