# Blender 4.5.3 LTS
# www.blender.org
mtllib techo3.mtl
o Pillar.020
v 4.863625 8.003869 -9.706828
v 4.863431 8.003869 -13.706827
v 4.863625 7.003869 -9.706828
v 4.863431 7.003869 -13.706827
v 5.863625 8.003869 -9.706876
v 5.863431 8.003869 -13.706877
v 5.863625 7.003869 -9.706876
v 5.863431 7.003869 -13.706877
vn -1.0000 -0.0000 -0.0000
vn -0.0000 -1.0000 -0.0000
vn 1.0000 -0.0000 -0.0000
vn -0.0000 1.0000 -0.0000
vn -0.0000 -0.0000 1.0000
vn -0.0000 -0.0000 -1.0000
vt 0.061981 0.187981
s 1
usemtl Material.225
f 1/1/1 2/1/1 4/1/1 3/1/1
f 3/1/2 4/1/2 8/1/2 7/1/2
f 7/1/3 8/1/3 6/1/3 5/1/3
f 5/1/4 6/1/4 2/1/4 1/1/4
f 3/1/5 7/1/5 5/1/5 1/1/5
f 8/1/6 4/1/6 2/1/6 6/1/6
