# Blender 4.5.3 LTS
# www.blender.org
mtllib caja.mtl
o Box
v -1.000000 0.000000 1.000000
v -1.000000 2.000000 1.000000
v -1.000000 0.000000 -1.000000
v -1.000000 2.000000 -1.000000
v 1.000000 0.000000 1.000000
v 1.000000 2.000000 1.000000
v 1.000000 0.000000 -1.000000
v 1.000000 2.000000 -1.000000
v -1.000000 0.314109 0.685891
v -1.000000 1.685891 0.685891
v -1.000000 1.685891 -0.685891
v -1.000000 0.314109 -0.685891
v -0.685891 0.314109 -1.000000
v -0.685891 1.685891 -1.000000
v 0.685891 1.685891 -1.000000
v 0.685891 0.314109 -1.000000
v 1.000000 0.314109 -0.685891
v 1.000000 1.685891 -0.685891
v 1.000000 1.685891 0.685891
v 1.000000 0.314109 0.685891
v 0.685891 0.314109 1.000000
v 0.685891 1.685891 1.000000
v -0.685891 1.685891 1.000000
v -0.685891 0.314109 1.000000
v -0.685891 0.000000 -0.685891
v 0.685891 0.000000 -0.685891
v 0.685891 0.000000 0.685891
v -0.685891 0.000000 0.685891
v 0.685891 2.000000 -0.685891
v -0.685891 2.000000 -0.685891
v -0.685891 2.000000 0.685891
v 0.685891 2.000000 0.685891
v -0.849222 0.417527 0.582473
v -0.849222 1.582473 0.582473
v -0.849222 0.417527 -0.582473
v -0.849222 1.582473 -0.582473
v -0.582473 1.582473 -0.849222
v -0.582473 0.417527 -0.849222
v 0.582473 0.417527 -0.849222
v 0.582473 1.582473 -0.849222
v 0.849222 1.582473 -0.582473
v 0.849222 0.417527 -0.582473
v 0.849222 0.417527 0.582473
v 0.849222 1.582473 0.582473
v 0.582473 1.582473 0.849222
v 0.582473 0.417527 0.849222
v -0.582473 0.417527 0.849222
v -0.582473 1.582473 0.849222
v 0.582473 0.150778 -0.582473
v -0.582473 0.150778 -0.582473
v -0.582473 0.150778 0.582473
v 0.582473 0.150778 0.582473
v -0.582473 1.849222 -0.582473
v 0.582473 1.849222 -0.582473
v 0.582473 1.849222 0.582473
v -0.582473 1.849222 0.582473
vn 0.8247 -0.5656 -0.0000
vn 0.5656 -0.8247 -0.0000
vn -0.5656 -0.0000 0.8247
vn -0.0000 0.5656 0.8247
vn -0.0000 0.8247 0.5656
vn -0.0000 -0.8247 -0.5656
vn -1.0000 -0.0000 -0.0000
vn -0.0000 -0.0000 -1.0000
vn 1.0000 -0.0000 -0.0000
vn -0.0000 -0.0000 1.0000
vn -0.0000 -1.0000 -0.0000
vn -0.0000 1.0000 -0.0000
vn -0.8247 -0.0000 -0.5656
vn -0.0000 -0.8247 0.5656
vn -0.8247 0.5656 -0.0000
vn 0.5656 -0.0000 -0.8247
vn -0.8247 -0.5656 -0.0000
vn 0.8247 -0.0000 0.5656
vn 0.8247 0.5656 -0.0000
vn -0.0000 -0.5656 -0.8247
vn -0.0000 0.5656 -0.8247
vn -0.5656 -0.0000 -0.8247
vn 0.8247 -0.0000 -0.5656
vn -0.5656 0.8247 -0.0000
vn 0.5656 -0.0000 0.8247
vn -0.0000 0.8247 -0.5656
vn -0.8247 -0.0000 0.5656
vn -0.5656 -0.8247 -0.0000
vn 0.5656 0.8247 -0.0000
vn -0.0000 -0.5656 0.8247
vt 0.071824 0.187980
vt 0.071824 0.187980
s 1
usemtl Material.082
f 28/1/1 25/2/1 50/2/1 51/1/1
f 18/1/2 19/1/2 44/1/2 41/1/2
f 11/1/3 12/1/3 35/1/3 36/1/3
f 29/2/4 30/1/4 53/1/4 54/2/4
f 24/1/5 21/1/5 46/1/5 47/1/5
f 14/1/6 15/1/6 40/1/6 37/1/6
f 1/1/7 2/1/7 10/1/7 9/1/7
f 2/1/7 4/1/7 11/1/7 10/1/7
f 4/1/7 3/1/7 12/1/7 11/1/7
f 3/1/7 1/1/7 9/1/7 12/1/7
f 3/1/8 4/1/8 14/1/8 13/1/8
f 4/1/8 8/1/8 15/1/8 14/1/8
f 8/1/8 7/1/8 16/1/8 15/1/8
f 7/1/8 3/1/8 13/1/8 16/1/8
f 7/1/9 8/1/9 18/1/9 17/1/9
f 8/1/9 6/1/9 19/1/9 18/1/9
f 6/1/9 5/1/9 20/1/9 19/1/9
f 5/1/9 7/1/9 17/1/9 20/1/9
f 5/1/10 6/1/10 22/1/10 21/1/10
f 6/1/10 2/1/10 23/1/10 22/1/10
f 2/1/10 1/1/10 24/1/10 23/1/10
f 1/1/10 5/1/10 21/1/10 24/1/10
f 3/1/11 7/1/11 26/1/11 25/2/11
f 7/1/11 5/1/11 27/1/11 26/1/11
f 5/1/11 1/1/11 28/1/11 27/1/11
f 1/1/11 3/1/11 25/2/11 28/1/11
f 8/1/12 4/1/12 30/1/12 29/2/12
f 4/1/12 2/1/12 31/1/12 30/1/12
f 2/1/12 6/1/12 32/1/12 31/1/12
f 6/1/12 8/1/12 29/2/12 32/1/12
f 33/1/7 34/1/7 36/1/7 35/1/7
f 38/1/8 37/1/8 40/1/8 39/1/8
f 42/1/9 41/1/9 44/1/9 43/1/9
f 46/1/10 45/1/10 48/1/10 47/1/10
f 50/2/11 49/1/11 52/1/11 51/1/11
f 54/2/12 53/1/12 56/1/12 55/1/12
f 15/1/13 16/1/13 39/1/13 40/1/13
f 22/1/14 23/1/14 48/1/14 45/1/14
f 32/1/15 29/2/15 54/2/15 55/1/15
f 19/1/16 20/1/16 43/1/16 44/1/16
f 26/1/17 27/1/17 52/1/17 49/1/17
f 23/1/18 24/1/18 47/1/18 48/1/18
f 30/1/19 31/1/19 56/1/19 53/1/19
f 27/1/20 28/1/20 51/1/20 52/1/20
f 31/1/21 32/1/21 55/1/21 56/1/21
f 9/1/22 10/1/22 34/1/22 33/1/22
f 13/1/23 14/1/23 37/1/23 38/1/23
f 12/1/24 9/1/24 33/1/24 35/1/24
f 17/1/25 18/1/25 41/1/25 42/1/25
f 16/1/26 13/1/26 38/1/26 39/1/26
f 21/1/27 22/1/27 45/1/27 46/1/27
f 10/1/28 11/1/28 36/1/28 34/1/28
f 20/1/29 17/1/29 42/1/29 43/1/29
f 25/2/30 26/1/30 49/1/30 50/2/30
