# Blender 4.5.3 LTS
# www.blender.org
mtllib gem.mtl
o Coin
v 0.000000 1.280276 -0.077649
v 0.000000 1.280276 0.077649
v 0.242726 1.140138 -0.077649
v 0.242726 1.140138 0.077649
v 0.242726 0.859862 -0.077649
v 0.242726 0.859862 0.077649
v -0.000000 0.719724 -0.077649
v -0.000000 0.719724 0.077649
v -0.242726 0.859862 -0.077649
v -0.242726 0.859862 0.077649
v -0.242726 1.140138 -0.077649
v -0.242726 1.140138 0.077649
v 0.000000 1.440193 -0.077649
v 0.381218 1.220096 -0.077649
v 0.381218 1.220096 0.077649
v 0.000000 1.440193 0.077649
v 0.381218 0.779904 -0.077649
v 0.381218 0.779904 0.077649
v -0.000000 0.559807 -0.077649
v -0.000000 0.559807 0.077649
v -0.381218 0.779904 -0.077649
v -0.381218 0.779904 0.077649
v -0.381218 1.220096 -0.077649
v -0.381218 1.220096 0.077649
v 0.000000 1.280276 -0.043349
v 0.242726 1.140138 -0.043349
v 0.242726 1.140138 0.043349
v 0.000000 1.280276 0.043349
v 0.242726 0.859862 -0.043349
v 0.242726 0.859862 0.043349
v -0.000000 0.719724 -0.043349
v -0.000000 0.719724 0.043349
v -0.242726 0.859862 -0.043349
v -0.242726 0.859862 0.043349
v -0.242726 1.140138 -0.043349
v -0.242726 1.140138 0.043349
vn 0.5000 0.8660 -0.0000
vn 1.0000 -0.0000 -0.0000
vn 0.5000 -0.8660 -0.0000
vn -0.5000 -0.8660 -0.0000
vn -1.0000 -0.0000 -0.0000
vn -0.5000 0.8660 -0.0000
vn -0.0000 -0.0000 -1.0000
vn -0.0000 -0.0000 1.0000
vt 0.076745 0.197902
vt 0.076745 0.197902
vt 0.076745 0.197902
vt 0.076745 0.197902
vt 0.076745 0.197902
s 1
usemtl Material.008
f 13/1/1 16/1/1 15/1/1 14/1/1
f 14/1/2 15/1/2 18/1/2 17/1/2
f 17/1/3 18/1/3 20/1/3 19/1/3
f 19/1/4 20/1/4 22/1/4 21/1/4
f 6/1/5 4/1/5 27/1/5 30/1/5
f 21/1/5 22/1/5 24/1/5 23/1/5
f 23/1/6 24/1/6 16/2/6 13/2/6
f 7/3/1 9/4/1 33/4/1 31/3/1
f 3/3/7 1/1/7 13/1/7 14/1/7
f 2/5/8 4/1/8 15/1/8 16/1/8
f 5/1/7 3/3/7 14/1/7 17/1/7
f 4/1/8 6/1/8 18/1/8 15/1/8
f 7/3/7 5/1/7 17/1/7 19/1/7
f 6/1/8 8/1/8 20/1/8 18/1/8
f 9/4/7 7/3/7 19/1/7 21/1/7
f 8/1/8 10/1/8 22/1/8 20/1/8
f 11/1/7 9/4/7 21/1/7 23/1/7
f 10/1/8 12/5/8 24/1/8 22/1/8
f 1/1/7 11/1/7 23/1/7 13/1/7
f 12/5/8 2/5/8 16/1/8 24/1/8
f 27/1/8 28/5/8 36/5/8 34/1/8 32/1/8 30/1/8
f 25/1/7 26/3/7 29/1/7 31/3/7 33/4/7 35/1/7
f 11/1/3 1/1/3 25/1/3 35/1/3
f 1/1/4 3/3/4 26/3/4 25/1/4
f 10/1/1 8/1/1 32/1/1 34/1/1
f 5/1/6 7/3/6 31/3/6 29/1/6
f 2/5/3 12/5/3 36/5/3 28/5/3
f 4/1/4 2/5/4 28/5/4 27/1/4
f 9/4/2 11/1/2 35/1/2 33/4/2
f 8/1/6 6/1/6 30/1/6 32/1/6
f 3/3/5 5/1/5 29/1/5 26/3/5
f 12/5/2 10/1/2 34/1/2 36/5/2
