# Blender 4.5.3 LTS
# www.blender.org
mtllib spruce_log.mtl
o Circle.002
v -0.037796 -0.175634 -1.251472
v -0.720287 -0.153586 -1.065393
v -0.919547 -0.161693 -0.636291
v -1.238415 -0.153586 -0.222480
v -0.957284 -0.153586 0.148337
v -0.734142 -0.194338 0.519035
v -0.133057 -0.153586 0.696027
v 0.537109 -0.169727 0.664346
v 0.829683 -0.153586 0.196287
v 1.063732 -0.153586 -0.216334
v 0.849620 -0.157444 -0.755378
v 0.454467 -0.153586 -1.173798
v -0.205686 13.566353 -0.440918
v -0.251238 13.566353 -0.270917
v 0.428764 13.566353 -0.270917
v 0.383209 13.566353 -0.440918
v 0.088762 13.566353 0.069085
v 0.258763 13.566353 0.023533
v -0.205686 13.566353 -0.100916
v 0.258763 13.566353 -0.565367
v 0.088762 13.566353 -0.610918
v -0.081240 13.566353 -0.565367
v 0.383209 13.566353 -0.100916
v -0.081240 13.566353 0.023533
v -0.436677 8.575756 -0.321845
v 0.315626 8.575756 -0.523425
v 0.168064 8.575756 0.027301
v -0.382662 8.575756 -0.120265
v 0.168064 8.575756 -0.670992
v -0.235099 8.575756 -0.670992
v 0.315626 8.575756 -0.120265
v -0.235099 8.575756 0.027301
v -0.382662 8.575756 -0.523425
v 0.369645 8.575756 -0.321845
v -0.033518 8.575756 0.081314
v -0.033518 8.575756 -0.725005
v -0.492911 4.223476 -0.294842
v 0.448818 4.223476 -0.547179
v 0.264100 4.223476 0.142220
v -0.425292 4.223476 -0.042504
v 0.264100 4.223476 -0.731903
v -0.240574 4.223476 -0.731903
v 0.448818 4.223476 -0.042504
v -0.240574 4.223476 0.142220
v -0.425292 4.223476 -0.547179
v 0.516441 4.223476 -0.294842
v 0.011763 4.223476 0.209833
v 0.011763 4.223476 -0.799517
v -0.651470 2.655741 -0.310512
v 0.468238 2.578977 -0.624961
v 0.189995 2.641168 0.214060
v -0.578171 2.655741 -0.022476
v 0.235455 2.628436 -0.855816
v -0.377940 2.655741 -0.784274
v 0.444818 2.643054 0.032118
v -0.413916 2.690774 0.170149
v -0.565797 2.704156 -0.588659
v 0.567377 2.588161 -0.286769
v -0.134462 2.630677 0.255543
v -0.084170 2.630843 -0.904300
v -0.779349 1.474932 -0.376233
v 0.533449 1.393395 -0.677288
v 0.297788 1.458438 0.258247
v -0.676826 1.488982 -0.069282
v 0.305673 1.473876 -0.910706
v -0.429592 1.473683 -0.892042
v 0.576484 1.415775 0.012546
v -0.367922 1.448519 0.153571
v -0.554856 1.463745 -0.696052
v 0.673192 1.426364 -0.379452
v -0.108893 1.454613 0.297439
v -0.014759 1.423347 -0.890879
v -0.220058 21.185249 -0.329689
v -0.250923 21.185249 -0.214497
v 0.209842 21.185249 -0.214497
v 0.178975 21.185249 -0.329689
v -0.020542 21.185249 0.015886
v 0.094650 21.185249 -0.014980
v -0.220058 21.185249 -0.099306
v 0.094650 21.185249 -0.414015
v -0.020542 21.185249 -0.444880
v -0.135733 21.185249 -0.414015
v 0.178975 21.185249 -0.099306
v -0.135733 21.185249 -0.014980
v -0.948229 0.531232 -0.281814
v 0.655390 0.495807 -0.678860
v 0.380216 0.500437 0.431189
v -0.782075 0.513466 0.077065
v 0.295169 0.527100 -1.065590
v -0.526227 0.515046 -0.972567
v 0.597327 0.504565 0.120938
v -0.598004 0.463818 0.240002
v -0.755570 0.521880 -0.723032
v 0.826886 0.509338 -0.266944
v -0.184274 0.529190 0.423225
v -0.052558 0.543518 -1.038947
v -0.036710 29.688768 -0.249619
v -0.001869 29.691759 -0.240284
v -0.020541 29.691759 -0.221612
v -0.020541 29.691759 -0.258955
v -0.039212 29.685869 -0.240284
v -0.004371 29.691759 -0.249619
v -0.011205 29.688526 -0.224114
v -0.036710 29.691759 -0.230948
v -0.011205 29.688406 -0.256454
v -0.029876 29.688049 -0.256454
v -0.004371 29.688379 -0.230948
v -0.029876 29.688675 -0.224114
v -0.138489 26.072903 -0.227391
v 0.081605 26.072903 -0.286365
v 0.038433 26.072903 -0.125244
v -0.122687 26.072903 -0.168416
v 0.038433 26.072903 -0.329538
v -0.079516 26.072903 -0.329538
v 0.081605 26.072903 -0.168416
v -0.079516 26.072903 -0.125244
v -0.122687 26.072903 -0.286365
v 0.097408 26.072903 -0.227391
v -0.020541 26.072903 -0.109442
v -0.020541 26.072903 -0.345340
vn -0.0040 0.0161 0.9999
vn 0.0045 0.0047 1.0000
vn -0.4965 0.0084 0.8680
vn -0.5037 0.0199 0.8636
vn 0.9999 0.0110 -0.0019
vn 1.0000 0.0084 0.0003
vn 0.8670 0.0047 0.4983
vn 0.8658 0.0109 0.5003
vn -0.8659 0.0250 -0.4995
vn -0.8648 0.0224 -0.5016
vn -0.4966 0.0237 -0.8676
vn -0.5020 0.0232 -0.8645
vn -0.0040 0.0200 -0.9998
vn 0.0045 0.0223 -0.9997
vn 0.5034 0.0185 -0.8638
vn 0.4961 0.0163 -0.8681
vn -0.8647 0.0135 0.5022
vn -0.8676 0.0231 0.4967
vn 0.5032 0.0033 0.8642
vn 0.4978 0.0128 0.8672
vn 0.8672 0.0134 -0.4978
vn 0.8641 0.0130 -0.5031
vn -0.9998 0.0187 0.0003
vn -0.9997 0.0250 -0.0019
vn -0.9984 0.0572 -0.0026
vn -0.8624 0.0532 -0.5034
vn 0.8666 0.0322 -0.4980
vn 0.9995 0.0295 0.0110
vn 0.4702 0.0280 0.8821
vn -0.0117 0.0332 0.9994
vn -0.8685 0.0565 0.4924
vn 0.4939 0.0387 -0.8687
vn -0.5087 0.0466 -0.8597
vn -0.0239 0.0432 -0.9988
vn 0.8492 0.0285 0.5272
vn -0.5013 0.0471 0.8640
vn -0.1105 0.0285 0.9935
vn -0.5371 0.0368 0.8427
vn 0.9982 0.0589 0.0051
vn 0.8185 0.0493 0.5724
vn -0.8519 0.0842 -0.5169
vn -0.5243 0.0687 -0.8487
vn -0.0682 0.0486 -0.9965
vn 0.4306 0.0516 -0.9011
vn -0.8553 0.0634 0.5142
vn 0.3910 0.0402 0.9195
vn 0.8504 0.0605 -0.5227
vn -0.9947 0.0914 -0.0476
vn -0.9855 0.1338 -0.1047
vn -0.8258 0.1140 -0.5523
vn 0.8323 0.0969 -0.5458
vn 0.9921 0.1117 -0.0563
vn 0.4095 0.1098 0.9057
vn -0.1715 0.0959 0.9805
vn -0.8216 0.1158 0.5582
vn 0.4061 0.0959 -0.9088
vn -0.4736 0.1055 -0.8744
vn -0.0647 0.0916 -0.9937
vn 0.8427 0.1109 0.5269
vn -0.5196 0.0915 0.8495
vn -0.2041 0.2705 0.9408
vn -0.5453 0.2807 0.7898
vn 0.9678 0.2491 0.0358
vn 0.8190 0.2409 0.5208
vn -0.8276 0.1889 -0.5286
vn -0.4957 0.2047 -0.8440
vn -0.0773 0.1895 -0.9788
vn 0.3567 0.2134 -0.9095
vn -0.7635 0.2617 0.5904
vn 0.4331 0.2878 0.8542
vn 0.8218 0.2037 -0.5321
vn -0.9673 0.2516 -0.0318
vn -0.9999 0.0115 0.0012
vn -0.8669 0.0136 -0.4984
vn 0.8658 0.0261 -0.4997
vn 0.9997 0.0259 0.0012
vn 0.4981 0.0202 0.8669
vn -0.0017 0.0162 0.9999
vn -0.8659 0.0113 0.5001
vn 0.4991 0.0244 -0.8662
vn -0.5017 0.0171 -0.8649
vn -0.0017 0.0211 -0.9998
vn 0.8649 0.0237 0.5015
vn -0.5007 0.0130 0.8655
vn -0.9469 0.3203 0.0290
vn -0.8306 0.2222 -0.5106
vn 0.8109 0.2916 -0.5074
vn 0.9341 0.3484 0.0774
vn 0.4573 0.3891 0.7996
vn -0.1423 0.3709 0.9177
vn -0.7656 0.3282 0.5534
vn 0.4436 0.2744 -0.8532
vn -0.5925 0.2452 -0.7674
vn -0.0723 0.2348 -0.9694
vn 0.7986 0.3415 0.4956
vn -0.5323 0.3645 0.7641
vn -0.9997 0.0252 -0.0002
vn -0.9995 0.0275 0.0127
vn -0.8581 0.0256 -0.5128
vn -0.8659 0.0237 -0.4996
vn 0.8657 0.0237 -0.5000
vn 0.8761 0.0257 -0.4815
vn 0.9994 0.0273 -0.0228
vn 0.9997 0.0252 0.0004
vn 0.5001 0.0279 0.8655
vn 0.4839 0.0305 0.8746
vn -0.0010 0.0310 0.9995
vn -0.0000 0.0283 0.9996
vn -0.8658 0.0268 0.4997
vn -0.8563 0.0293 0.5157
vn 0.4999 0.0225 -0.8658
vn 0.4995 0.0243 -0.8660
vn -0.5001 0.0225 -0.8657
vn -0.4856 0.0243 -0.8738
vn 0.0025 0.0239 -0.9997
vn -0.0000 0.0221 -0.9998
vn 0.8655 0.0268 0.5002
vn 0.8747 0.0292 0.4838
vn -0.4998 0.0279 0.8657
vn -0.5001 0.0305 0.8654
vt 0.202791 -0.007576
vt 0.195238 0.620364
vt 0.219068 0.621346
vt 0.228200 -0.004279
vt 0.125749 -0.011350
vt 0.123722 0.619753
vt 0.147566 0.619774
vt 0.151506 -0.011015
vt -0.001886 -0.003569
vt 0.004457 0.619615
vt 0.028308 0.619296
vt 0.023311 -0.006229
vt 0.048696 -0.008295
vt 0.052162 0.619328
vt 0.076017 0.619515
vt 0.074289 -0.009882
vt 0.242889 0.623001
vt 0.253365 -0.000005
vt 0.171404 0.619909
vt 0.177209 -0.009799
vt 0.099868 0.619700
vt 0.099984 -0.010945
vt 0.266704 0.625378
vt 0.278228 0.005115
vt -0.026844 -0.000242
vt -0.019381 0.620470
vt -0.054660 0.139865
vt -0.026844 0.454175
vt -0.001886 0.452234
vt -0.026730 0.132392
vt 0.096165 0.109255
vt 0.099984 0.447928
vt 0.125749 0.447692
vt 0.128339 0.108257
vt 0.192103 0.114199
vt 0.177209 0.448597
vt 0.202791 0.449895
vt 0.222840 0.120078
vt 0.281101 0.135587
vt 0.253365 0.454314
vt 0.278228 0.457302
vt 0.308848 0.144307
vt 0.064231 0.112622
vt 0.074289 0.448549
vt 0.002562 0.125082
vt 0.023311 0.450681
vt 0.048696 0.449475
vt 0.032984 0.118150
vt 0.160535 0.110151
vt 0.151506 0.447887
vt 0.252639 0.127391
vt 0.228200 0.451819
vt 0.254351 -0.025891
vt 0.285167 -0.005520
vt 0.133464 -0.061409
vt 0.176724 -0.049202
vt -0.053217 0.005614
vt -0.026719 -0.013704
vt 0.007754 -0.033106
vt 0.046487 -0.047161
vt 0.311511 0.006203
vt 0.215442 -0.039051
vt 0.087765 -0.061078
vt 0.337954 0.023690
vt -0.081486 0.017188
vt -0.107133 -0.041041
vt -0.079606 -0.067954
vt 0.081604 -0.155974
vt 0.130567 -0.154629
vt 0.222359 -0.130320
vt 0.267694 -0.109940
vt 0.342802 -0.054311
vt 0.368176 -0.028965
vt 0.034466 -0.136532
vt -0.050534 -0.089975
vt -0.009222 -0.118130
vt 0.180021 -0.148077
vt 0.306146 -0.087092
vt 0.287808 -0.175588
vt 0.348266 -0.153018
vt 0.139333 -0.241709
vt 0.189996 -0.220855
vt -0.118259 -0.119534
vt -0.086476 -0.160714
vt -0.023800 -0.187118
vt 0.021083 -0.210868
vt 0.378981 -0.109050
vt 0.233874 -0.205172
vt 0.075693 -0.246943
vt 0.405989 -0.070786
vt -0.147922 -0.080937
vt -0.035413 0.613830
vt -0.019005 1.859049
vt 0.003628 1.855257
vt -0.010027 0.608762
vt 0.091624 0.597882
vt 0.094432 1.846833
vt 0.117156 1.846639
vt 0.117066 0.598002
vt 0.167975 0.601071
vt 0.162564 1.848436
vt 0.185239 1.850291
vt 0.193442 0.603621
vt 0.244372 0.610023
vt 0.230530 1.855615
vt 0.253156 1.859045
vt 0.269805 0.613847
vt 0.066192 0.598907
vt 0.071707 1.847812
vt 0.015366 0.604459
vt 0.026296 1.852072
vt 0.048992 1.849568
vt 0.040771 0.601122
vt 0.142516 0.599131
vt 0.139869 1.847194
vt 0.218912 0.606627
vt 0.207893 1.852698
vt -0.190529 -0.105905
vt -0.168442 -0.153310
vt 0.079021 -0.317870
vt 0.143857 -0.316756
vt 0.237654 -0.257170
vt 0.305729 -0.227776
vt 0.415179 -0.141801
vt 0.445204 -0.099577
vt 0.015624 -0.272386
vt -0.122316 -0.201906
vt -0.034198 -0.242248
vt 0.189372 -0.271171
vt 0.389037 -0.198399
vt 0.056697 -0.425389
vt 0.234799 0.632186
vt 0.237192 0.631066
vt 0.073596 -0.433300
vt 0.142102 -0.458399
vt 0.246891 0.627512
vt 0.249342 0.626858
vt 0.159412 -0.463022
vt 0.194198 -0.470160
vt 0.254267 0.625847
vt 0.256739 0.625497
vt 0.211658 -0.472636
vt 0.246656 -0.475370
vt 0.261694 0.625109
vt 0.264175 0.625070
vt 0.264175 -0.475647
vt 0.124858 -0.453103
vt 0.244450 0.628262
vt 0.090596 -0.440550
vt 0.239599 0.630039
vt 0.242018 0.629104
vt 0.107686 -0.447151
vt 0.176780 -0.466949
vt 0.251801 0.626302
vt 0.229147 -0.474370
vt 0.259215 0.625251
vt 0.175213 2.650780
vt 0.194558 2.652737
vt 0.117127 2.648149
vt 0.136495 2.648461
vt 0.020339 2.655151
vt 0.039675 2.652667
vt 0.059026 2.650699
vt 0.078388 2.649277
vt 0.213888 2.655191
vt 0.155858 2.649346
vt 0.097756 2.648420
vt 0.233201 2.658128
vt 0.001021 2.658130
s 1
usemtl Bark
f 35/1/1 17/2/2 24/3/3 32/4/4
f 34/5/5 15/6/6 23/7/7 31/8/8
f 33/9/9 13/10/10 22/11/11 30/12/12
f 36/13/13 21/14/14 20/15/15 29/16/16
f 32/4/4 24/3/3 19/17/17 28/18/18
f 31/8/8 23/7/7 18/19/19 27/20/20
f 30/12/12 22/11/11 21/14/14 36/13/13
f 29/16/16 20/15/15 16/21/21 26/22/22
f 28/18/18 19/17/17 14/23/23 25/24/24
f 27/20/20 18/19/19 17/2/2 35/1/1
f 26/22/22 16/21/21 15/6/6 34/5/5
f 25/25/24 14/26/23 13/10/10 33/9/9
f 37/27/25 25/28/24 33/29/9 45/30/26
f 38/31/27 26/32/22 34/33/5 46/34/28
f 39/35/29 27/36/20 35/37/1 47/38/30
f 40/39/31 28/40/18 25/41/24 37/42/25
f 41/43/32 29/44/16 26/32/22 38/31/27
f 42/45/33 30/46/12 36/47/13 48/48/34
f 43/49/35 31/50/8 27/36/20 39/35/29
f 44/51/36 32/52/4 28/40/18 40/39/31
f 48/48/34 36/47/13 29/44/16 41/43/32
f 45/30/26 33/29/9 30/46/12 42/45/33
f 46/34/28 34/33/5 31/50/8 43/49/35
f 47/38/30 35/37/1 32/52/4 44/51/36
f 59/53/37 47/38/30 44/51/36 56/54/38
f 58/55/39 46/34/28 43/49/35 55/56/40
f 57/57/41 45/30/26 42/45/33 54/58/42
f 60/59/43 48/48/34 41/43/32 53/60/44
f 56/54/38 44/51/36 40/39/31 52/61/45
f 55/56/40 43/49/35 39/35/29 51/62/46
f 54/58/42 42/45/33 48/48/34 60/59/43
f 53/60/44 41/43/32 38/31/27 50/63/47
f 52/61/45 40/39/31 37/42/25 49/64/48
f 51/62/46 39/35/29 47/38/30 59/53/37
f 50/63/47 38/31/27 46/34/28 58/55/39
f 49/65/48 37/27/25 45/30/26 57/57/41
f 61/66/49 49/65/48 57/57/41 69/67/50
f 62/68/51 50/63/47 58/55/39 70/69/52
f 63/70/53 51/62/46 59/53/37 71/71/54
f 64/72/55 52/61/45 49/64/48 61/73/49
f 65/74/56 53/60/44 50/63/47 62/68/51
f 66/75/57 54/58/42 60/59/43 72/76/58
f 67/77/59 55/56/40 51/62/46 63/70/53
f 68/78/60 56/54/38 52/61/45 64/72/55
f 72/76/58 60/59/43 53/60/44 65/74/56
f 69/67/50 57/57/41 54/58/42 66/75/57
f 70/69/52 58/55/39 55/56/40 67/77/59
f 71/71/54 59/53/37 56/54/38 68/78/60
f 95/79/61 71/71/54 68/78/60 92/80/62
f 94/81/63 70/69/52 67/77/59 91/82/64
f 93/83/65 69/67/50 66/75/57 90/84/66
f 96/85/67 72/76/58 65/74/56 89/86/68
f 92/80/62 68/78/60 64/72/55 88/87/69
f 91/82/64 67/77/59 63/70/53 87/88/70
f 90/84/66 66/75/57 72/76/58 96/85/67
f 89/86/68 65/74/56 62/68/51 86/89/71
f 88/87/69 64/72/55 61/73/49 85/90/72
f 87/88/70 63/70/53 71/71/54 95/79/61
f 86/89/71 62/68/51 70/69/52 94/81/63
f 85/91/72 61/66/49 69/67/50 93/83/65
f 14/92/23 74/93/73 73/94/74 13/95/10
f 16/96/21 76/97/75 75/98/76 15/99/6
f 18/100/19 78/101/77 77/102/78 17/103/2
f 19/104/17 79/105/79 74/106/73 14/107/23
f 20/108/15 80/109/80 76/97/75 16/96/21
f 22/110/11 82/111/81 81/112/82 21/113/14
f 23/114/7 83/115/83 78/101/77 18/100/19
f 24/116/3 84/117/84 79/105/79 19/104/17
f 21/113/14 81/112/82 80/109/80 20/108/15
f 13/95/10 73/94/74 82/111/81 22/110/11
f 15/99/6 75/98/76 83/115/83 23/114/7
f 17/103/2 77/102/78 84/117/84 24/116/3
f 4/118/85 85/91/72 93/83/65 3/119/86
f 11/120/87 86/89/71 94/81/63 10/121/88
f 8/122/89 87/88/70 95/79/61 7/123/90
f 5/124/91 88/87/69 85/90/72 4/125/85
f 12/126/92 89/86/68 86/89/71 11/120/87
f 2/127/93 90/84/66 96/85/67 1/128/94
f 9/129/95 91/82/64 87/88/70 8/122/89
f 6/130/96 92/80/62 88/87/69 5/124/91
f 1/128/94 96/85/67 89/86/68 12/126/92
f 3/119/86 93/83/65 90/84/66 2/127/93
f 10/121/88 94/81/63 91/82/64 9/129/95
f 7/123/90 95/79/61 92/80/62 6/130/96
f 109/131/97 101/132/98 97/133/99 117/134/100
f 110/135/101 102/136/102 98/137/103 118/138/104
f 111/139/105 103/140/106 99/141/107 119/142/108
f 112/143/109 104/144/110 101/145/98 109/146/97
f 113/147/111 105/148/112 102/136/102 110/135/101
f 114/149/113 106/150/114 100/151/115 120/152/116
f 115/153/117 107/154/118 103/140/106 111/139/105
f 116/155/119 108/156/120 104/144/110 112/143/109
f 120/152/116 100/151/115 105/148/112 113/147/111
f 117/134/100 97/133/99 106/150/114 114/149/113
f 118/138/104 98/137/103 107/154/118 115/153/117
f 119/142/108 99/141/107 108/156/120 116/155/119
f 77/102/78 119/157/108 116/158/119 84/117/84
f 75/98/76 118/159/104 115/160/117 83/115/83
f 73/94/74 117/161/100 114/162/113 82/111/81
f 81/112/82 120/163/116 113/164/111 80/109/80
f 84/117/84 116/158/119 112/165/109 79/105/79
f 83/115/83 115/160/117 111/166/105 78/101/77
f 82/111/81 114/162/113 120/163/116 81/112/82
f 80/109/80 113/164/111 110/167/101 76/97/75
f 79/105/79 112/165/109 109/168/97 74/106/73
f 78/101/77 111/166/105 119/157/108 77/102/78
f 76/97/75 110/167/101 118/159/104 75/98/76
f 74/93/73 109/169/97 117/161/100 73/94/74
