# Blender 4.5.3 LTS
# www.blender.org
mtllib borde6A.mtl
o Pillar.019
v -15.135236 9.003881 14.294141
v -15.135429 9.003881 10.294142
v -15.135236 8.003881 14.294141
v -15.135429 8.003881 10.294142
v -14.135236 9.003881 14.294093
v -14.135429 9.003881 10.294092
v -14.135236 8.003881 14.294093
v -14.135429 8.003881 10.294092
v -15.135433 9.003881 10.294140
v -15.135628 9.003881 6.294140
v -15.135433 8.003881 10.294140
v -15.135628 8.003881 6.294140
v -14.135433 9.003881 10.294092
v -14.135628 9.003881 6.294092
v -14.135433 8.003881 10.294092
v -14.135628 8.003881 6.294092
vn -1.0000 -0.0000 -0.0000
vn -0.0000 -1.0000 -0.0000
vn 1.0000 -0.0000 -0.0000
vn -0.0000 1.0000 -0.0000
vn -0.0000 -0.0000 1.0000
vn -0.0000 -0.0000 -1.0000
vt 0.061981 0.187981
s 1
usemtl Material.001
f 1/1/1 2/1/1 4/1/1 3/1/1
f 3/1/2 4/1/2 8/1/2 7/1/2
f 7/1/3 8/1/3 6/1/3 5/1/3
f 5/1/4 6/1/4 2/1/4 1/1/4
f 3/1/5 7/1/5 5/1/5 1/1/5
f 8/1/6 4/1/6 2/1/6 6/1/6
usemtl Material.181
f 9/1/1 10/1/1 12/1/1 11/1/1
f 11/1/2 12/1/2 16/1/2 15/1/2
f 15/1/3 16/1/3 14/1/3 13/1/3
f 13/1/4 14/1/4 10/1/4 9/1/4
f 11/1/5 15/1/5 13/1/5 9/1/5
f 16/1/6 12/1/6 10/1/6 14/1/6
