# Blender 4.5.3 LTS
# www.blender.org
mtllib borde1A.mtl
o Pillar.028
v 3.864765 9.003881 14.293221
v 0.864765 9.003881 14.293366
v 3.864765 8.003881 14.293221
v 0.864765 8.003881 14.293366
v 3.864716 9.003881 13.293221
v 0.864716 9.003881 13.293366
v 3.864716 8.003881 13.293221
v 0.864716 8.003881 13.293366
v -7.135285 9.003882 13.293759
v -3.135284 9.003882 13.293564
v -7.135284 8.003882 13.293759
v -3.135284 8.003882 13.293564
v -7.135237 9.003882 14.293759
v -3.135236 9.003882 14.293564
v -7.135236 8.003882 14.293759
v -3.135236 8.003882 14.293564
v -3.135283 9.003882 13.293561
v 0.864717 9.003882 13.293365
v -3.135283 8.003882 13.293561
v 0.864717 8.003882 13.293365
v -3.135234 9.003882 14.293561
v 0.864766 9.003882 14.293365
v -3.135234 8.003882 14.293561
v 0.864766 8.003882 14.293365
v -11.135284 9.003882 13.293951
v -7.135284 9.003882 13.293756
v -11.135283 8.003882 13.293951
v -7.135283 8.003882 13.293756
v -11.135236 9.003882 14.293951
v -7.135236 9.003882 14.293756
v -11.135235 8.003882 14.293951
v -7.135235 8.003882 14.293756
v -11.135236 9.003882 14.293951
v -14.135235 9.003881 14.294097
v -11.135235 8.003882 14.293951
v -14.135235 8.003882 14.294097
v -11.135284 9.003882 13.293951
v -14.135284 9.003881 13.294097
v -11.135283 8.003882 13.293951
v -14.135284 8.003882 13.294097
vn -0.0000 -0.0000 1.0000
vn -0.0000 -1.0000 -0.0000
vn -0.0000 -0.0000 -1.0000
vn -0.0000 1.0000 -0.0000
vn 1.0000 -0.0000 -0.0000
vn -1.0000 -0.0000 -0.0000
vt 0.061981 0.187981
s 1
usemtl Material.182
f 1/1/1 2/1/1 4/1/1 3/1/1
f 3/1/2 4/1/2 8/1/2 7/1/2
f 7/1/3 8/1/3 6/1/3 5/1/3
f 5/1/4 6/1/4 2/1/4 1/1/4
f 3/1/5 7/1/5 5/1/5 1/1/5
f 8/1/6 4/1/6 2/1/6 6/1/6
usemtl Material.001
f 9/1/3 10/1/3 12/1/3 11/1/3
f 11/1/2 12/1/2 16/1/2 15/1/2
f 15/1/1 16/1/1 14/1/1 13/1/1
f 13/1/4 14/1/4 10/1/4 9/1/4
f 11/1/6 15/1/6 13/1/6 9/1/6
f 16/1/5 12/1/5 10/1/5 14/1/5
f 17/1/3 18/1/3 20/1/3 19/1/3
f 19/1/2 20/1/2 24/1/2 23/1/2
f 23/1/1 24/1/1 22/1/1 21/1/1
f 21/1/4 22/1/4 18/1/4 17/1/4
f 19/1/6 23/1/6 21/1/6 17/1/6
f 24/1/5 20/1/5 18/1/5 22/1/5
usemtl Material.165
f 25/1/3 26/1/3 28/1/3 27/1/3
f 27/1/2 28/1/2 32/1/2 31/1/2
f 31/1/1 32/1/1 30/1/1 29/1/1
f 29/1/4 30/1/4 26/1/4 25/1/4
f 27/1/6 31/1/6 29/1/6 25/1/6
f 32/1/5 28/1/5 26/1/5 30/1/5
usemtl Material.167
f 33/1/1 34/1/1 36/1/1 35/1/1
f 35/1/2 36/1/2 40/1/2 39/1/2
f 39/1/3 40/1/3 38/1/3 37/1/3
f 37/1/4 38/1/4 34/1/4 33/1/4
f 35/1/5 39/1/5 37/1/5 33/1/5
f 40/1/6 36/1/6 34/1/6 38/1/6
