# Blender 4.5.3 LTS
# www.blender.org
mtllib borde4A.mtl
o Pillar.018
v -11.135623 9.003881 6.293947
v -11.135817 9.003881 2.293947
v -11.135623 8.003881 6.293947
v -11.135817 8.003881 2.293947
v -10.135623 9.003881 6.293898
v -10.135817 9.003881 2.293898
v -10.135623 8.003881 6.293898
v -10.135817 8.003881 2.293898
v -11.135817 9.003881 2.293946
v -11.136011 9.003881 -1.706053
v -11.135817 8.003881 2.293946
v -11.136011 8.003881 -1.706053
v -10.135817 9.003881 2.293898
v -10.136011 9.003881 -1.706101
v -10.135817 8.003881 2.293898
v -10.136011 8.003881 -1.706101
v -11.136011 9.003881 -1.706053
v -11.136205 9.003881 -5.706054
v -11.136011 8.003881 -1.706053
v -11.136205 8.003881 -5.706054
v -10.136011 9.003881 -1.706101
v -10.136205 9.003881 -5.706101
v -10.136011 8.003881 -1.706101
v -10.136205 8.003881 -5.706101
v -11.136205 9.003881 -5.706054
v -11.136398 9.003881 -9.706054
v -11.136205 8.003881 -5.706054
v -11.136398 8.003881 -9.706054
v -10.136205 9.003881 -5.706101
v -10.136398 9.003881 -9.706102
v -10.136205 8.003881 -5.706101
v -10.136398 8.003881 -9.706102
v -11.136402 9.003881 -9.706053
v -11.136597 9.003881 -13.706053
v -11.136402 8.003881 -9.706053
v -11.136597 8.003881 -13.706053
v -10.136402 9.003881 -9.706100
v -10.136597 9.003881 -13.706102
v -10.136402 8.003881 -9.706100
v -10.136597 8.003881 -13.706102
vn -1.0000 -0.0000 -0.0000
vn -0.0000 -1.0000 -0.0000
vn 1.0000 -0.0000 -0.0000
vn -0.0000 1.0000 -0.0000
vn -0.0000 -0.0000 1.0000
vn -0.0000 -0.0000 -1.0000
vt 0.061981 0.187981
s 1
usemtl Material.001
f 1/1/1 2/1/1 4/1/1 3/1/1
f 3/1/2 4/1/2 8/1/2 7/1/2
f 7/1/3 8/1/3 6/1/3 5/1/3
f 5/1/4 6/1/4 2/1/4 1/1/4
f 3/1/5 7/1/5 5/1/5 1/1/5
f 8/1/6 4/1/6 2/1/6 6/1/6
f 9/1/1 10/1/1 12/1/1 11/1/1
f 11/1/2 12/1/2 16/1/2 15/1/2
f 15/1/3 16/1/3 14/1/3 13/1/3
f 13/1/4 14/1/4 10/1/4 9/1/4
f 11/1/5 15/1/5 13/1/5 9/1/5
f 16/1/6 12/1/6 10/1/6 14/1/6
f 17/1/1 18/1/1 20/1/1 19/1/1
f 19/1/2 20/1/2 24/1/2 23/1/2
f 23/1/3 24/1/3 22/1/3 21/1/3
f 21/1/4 22/1/4 18/1/4 17/1/4
f 19/1/5 23/1/5 21/1/5 17/1/5
f 24/1/6 20/1/6 18/1/6 22/1/6
usemtl Material.162
f 25/1/1 26/1/1 28/1/1 27/1/1
f 27/1/2 28/1/2 32/1/2 31/1/2
f 31/1/3 32/1/3 30/1/3 29/1/3
f 29/1/4 30/1/4 26/1/4 25/1/4
f 27/1/5 31/1/5 29/1/5 25/1/5
f 32/1/6 28/1/6 26/1/6 30/1/6
usemtl Material.163
f 33/1/1 34/1/1 36/1/1 35/1/1
f 35/1/2 36/1/2 40/1/2 39/1/2
f 39/1/3 40/1/3 38/1/3 37/1/3
f 37/1/4 38/1/4 34/1/4 33/1/4
f 35/1/5 39/1/5 37/1/5 33/1/5
f 40/1/6 36/1/6 34/1/6 38/1/6
