# Blender 4.5.3 LTS
# www.blender.org
mtllib borde2A.mtl
o Pillar.021
v 3.863602 9.003881 -9.706779
v 3.863408 9.003881 -13.706778
v 3.863602 8.003881 -9.706779
v 3.863408 8.003881 -13.706778
v 4.863602 9.003881 -9.706826
v 4.863408 9.003881 -13.706827
v 4.863602 8.003881 -9.706826
v 4.863408 8.003881 -13.706827
v 3.864382 9.003881 6.293221
v 3.864188 9.003881 2.293221
v 3.864382 8.003881 6.293221
v 3.864188 8.003881 2.293221
v 4.864382 9.003881 6.293173
v 4.864188 9.003881 2.293173
v 4.864382 8.003881 6.293173
v 4.864188 8.003881 2.293173
v 3.864188 9.003881 2.293220
v 3.863994 9.003881 -1.706780
v 3.864188 8.003881 2.293220
v 3.863994 8.003881 -1.706780
v 4.864188 9.003881 2.293172
v 4.863994 9.003881 -1.706829
v 4.864188 8.003881 2.293172
v 4.863994 8.003881 -1.706829
v 3.863994 9.003881 -1.706779
v 3.863800 9.003881 -5.706779
v 3.863994 8.003881 -1.706779
v 3.863800 8.003881 -5.706779
v 4.863994 9.003881 -1.706828
v 4.863800 9.003881 -5.706828
v 4.863994 8.003881 -1.706828
v 4.863800 8.003881 -5.706828
v 3.864774 9.003881 14.293222
v 3.864579 9.003881 10.293222
v 3.864774 8.003881 14.293222
v 3.864579 8.003881 10.293222
v 4.864773 9.003881 14.293173
v 4.864580 9.003881 10.293173
v 4.864773 8.003881 14.293173
v 4.864580 8.003881 10.293173
v 3.863800 9.003881 -5.706779
v 3.863606 9.003881 -9.706779
v 3.863800 8.003881 -5.706779
v 3.863606 8.003881 -9.706779
v 4.863800 9.003881 -5.706828
v 4.863606 9.003881 -9.706827
v 4.863800 8.003881 -5.706828
v 4.863606 8.003881 -9.706827
v 3.864576 9.003881 10.293222
v 3.864382 9.003881 6.293222
v 3.864576 8.003881 10.293222
v 3.864382 8.003881 6.293222
v 4.864576 9.003881 10.293173
v 4.864382 9.003881 6.293174
v 4.864576 8.003881 10.293173
v 4.864382 8.003881 6.293174
vn -1.0000 -0.0000 -0.0000
vn -0.0000 -1.0000 -0.0000
vn 1.0000 -0.0000 -0.0000
vn -0.0000 1.0000 -0.0000
vn -0.0000 -0.0000 1.0000
vn -0.0000 -0.0000 -1.0000
vt 0.061981 0.187981
s 1
usemtl Material.001
f 1/1/1 2/1/1 4/1/1 3/1/1
f 3/1/2 4/1/2 8/1/2 7/1/2
f 7/1/3 8/1/3 6/1/3 5/1/3
f 5/1/4 6/1/4 2/1/4 1/1/4
f 3/1/5 7/1/5 5/1/5 1/1/5
f 8/1/6 4/1/6 2/1/6 6/1/6
f 9/1/1 10/1/1 12/1/1 11/1/1
f 11/1/2 12/1/2 16/1/2 15/1/2
f 15/1/3 16/1/3 14/1/3 13/1/3
f 13/1/4 14/1/4 10/1/4 9/1/4
f 11/1/5 15/1/5 13/1/5 9/1/5
f 16/1/6 12/1/6 10/1/6 14/1/6
f 17/1/1 18/1/1 20/1/1 19/1/1
f 19/1/2 20/1/2 24/1/2 23/1/2
f 23/1/3 24/1/3 22/1/3 21/1/3
f 21/1/4 22/1/4 18/1/4 17/1/4
f 19/1/5 23/1/5 21/1/5 17/1/5
f 24/1/6 20/1/6 18/1/6 22/1/6
f 25/1/1 26/1/1 28/1/1 27/1/1
f 27/1/2 28/1/2 32/1/2 31/1/2
f 31/1/3 32/1/3 30/1/3 29/1/3
f 29/1/4 30/1/4 26/1/4 25/1/4
f 27/1/5 31/1/5 29/1/5 25/1/5
f 32/1/6 28/1/6 26/1/6 30/1/6
usemtl Material.164
f 33/1/1 34/1/1 36/1/1 35/1/1
f 35/1/2 36/1/2 40/1/2 39/1/2
f 39/1/3 40/1/3 38/1/3 37/1/3
f 37/1/4 38/1/4 34/1/4 33/1/4
f 35/1/5 39/1/5 37/1/5 33/1/5
f 40/1/6 36/1/6 34/1/6 38/1/6
usemtl Material.171
f 41/1/1 42/1/1 44/1/1 43/1/1
f 43/1/2 44/1/2 48/1/2 47/1/2
f 47/1/3 48/1/3 46/1/3 45/1/3
f 45/1/4 46/1/4 42/1/4 41/1/4
f 43/1/5 47/1/5 45/1/5 41/1/5
f 48/1/6 44/1/6 42/1/6 46/1/6
usemtl Material.180
f 49/1/1 50/1/1 52/1/1 51/1/1
f 51/1/2 52/1/2 56/1/2 55/1/2
f 55/1/3 56/1/3 54/1/3 53/1/3
f 53/1/4 54/1/4 50/1/4 49/1/4
f 51/1/5 55/1/5 53/1/5 49/1/5
f 56/1/6 52/1/6 50/1/6 54/1/6
