# Blender 4.5.3 LTS
# www.blender.org
mtllib borde3A.mtl
o Pillar.029
v -7.136544 9.003881 -12.706245
v -10.136543 9.003881 -12.706100
v -7.136544 8.003881 -12.706245
v -10.136543 8.003881 -12.706100
v -7.136592 9.003881 -13.706245
v -10.136593 9.003881 -13.706100
v -7.136592 8.003881 -13.706245
v -10.136593 8.003881 -13.706100
v -7.136592 9.003881 -13.706245
v -3.136592 9.003881 -13.706441
v -7.136592 8.003881 -13.706245
v -3.136592 8.003881 -13.706441
v -7.136544 9.003881 -12.706245
v -3.136544 9.003881 -12.706441
v -7.136544 8.003881 -12.706245
v -3.136544 8.003881 -12.706441
v -3.136590 9.003881 -13.706442
v 0.863410 9.003881 -13.706637
v -3.136590 8.003881 -13.706442
v 0.863410 8.003881 -13.706637
v -3.136542 9.003881 -12.706442
v 0.863458 9.003881 -12.706637
v -3.136542 8.003881 -12.706442
v 0.863459 8.003881 -12.706637
v 3.863462 9.003881 -12.706782
v 0.863462 9.003881 -12.706636
v 3.863463 8.003881 -12.706782
v 0.863463 8.003881 -12.706636
v 3.863414 9.003881 -13.706782
v 0.863414 9.003881 -13.706636
v 3.863415 8.003881 -13.706782
v 0.863414 8.003881 -13.706636
vn -0.0000 -0.0000 1.0000
vn -0.0000 -1.0000 -0.0000
vn -0.0000 -0.0000 -1.0000
vn -0.0000 1.0000 -0.0000
vn 1.0000 -0.0000 -0.0000
vn -1.0000 -0.0000 -0.0000
vt 0.061981 0.187981
s 1
usemtl Material.185
f 1/1/1 2/1/1 4/1/1 3/1/1
f 3/1/2 4/1/2 8/1/2 7/1/2
f 7/1/3 8/1/3 6/1/3 5/1/3
f 5/1/4 6/1/4 2/1/4 1/1/4
f 3/1/5 7/1/5 5/1/5 1/1/5
f 8/1/6 4/1/6 2/1/6 6/1/6
usemtl Material.001
f 9/1/3 10/1/3 12/1/3 11/1/3
f 11/1/2 12/1/2 16/1/2 15/1/2
f 15/1/1 16/1/1 14/1/1 13/1/1
f 13/1/4 14/1/4 10/1/4 9/1/4
f 11/1/6 15/1/6 13/1/6 9/1/6
f 16/1/5 12/1/5 10/1/5 14/1/5
f 17/1/3 18/1/3 20/1/3 19/1/3
f 19/1/2 20/1/2 24/1/2 23/1/2
f 23/1/1 24/1/1 22/1/1 21/1/1
f 21/1/4 22/1/4 18/1/4 17/1/4
f 19/1/6 23/1/6 21/1/6 17/1/6
f 24/1/5 20/1/5 18/1/5 22/1/5
f 25/1/1 26/1/1 28/1/1 27/1/1
f 27/1/2 28/1/2 32/1/2 31/1/2
f 31/1/3 32/1/3 30/1/3 29/1/3
f 29/1/4 30/1/4 26/1/4 25/1/4
f 27/1/5 31/1/5 29/1/5 25/1/5
f 32/1/6 28/1/6 26/1/6 30/1/6
