# Blender 4.5.3 LTS
# www.blender.org
mtllib obj1b.mtl
o Cube.020
v 2.863699 8.003881 -7.706733
v 2.863699 10.003881 -7.706733
v 0.863699 8.003881 -7.706635
v 0.863699 10.003881 -7.706635
v 2.863602 8.003881 -9.706733
v 2.863602 10.003881 -9.706733
v 0.863602 8.003881 -9.706635
v 0.863602 10.003881 -9.706635
vn -0.0000 -0.0000 1.0000
vn -1.0000 -0.0000 -0.0000
vn -0.0000 -0.0000 -1.0000
vn 1.0000 -0.0000 -0.0000
vn -0.0000 -1.0000 -0.0000
vn -0.0000 1.0000 -0.0000
vt 0.071824 0.187980
s 1
usemtl Material.001
f 1/1/1 2/1/1 4/1/1 3/1/1
f 3/1/2 4/1/2 8/1/2 7/1/2
f 7/1/3 8/1/3 6/1/3 5/1/3
f 5/1/4 6/1/4 2/1/4 1/1/4
f 3/1/5 7/1/5 5/1/5 1/1/5
f 8/1/6 4/1/6 2/1/6 6/1/6
