# Blender 4.5.3 LTS
# www.blender.org
mtllib obj2a.mtl
o Wall.109
v -8.135865 8.003881 1.293800
v -8.135865 12.003881 1.293800
v -8.136060 8.003881 -2.706200
v -8.136060 12.003881 -2.706200
v -3.694986 7.991106 0.293585
v -3.695084 7.991107 -1.706415
v -3.576843 7.991106 0.293579
v -3.576940 7.991107 -1.706421
v -3.694986 11.003881 0.293585
v -3.695084 11.003881 -1.706415
v -3.576843 11.003881 0.293579
v -3.576940 11.003881 -1.706421
v -3.135867 12.003881 1.293558
v -3.135866 8.003881 1.293557
v -3.136060 8.003881 -2.706442
v -3.136060 12.003881 -2.706442
v -4.135866 8.003881 1.293606
v -4.135866 12.003881 1.293606
v -4.136060 12.003881 -2.706394
v -4.136060 8.003881 -2.706394
v -3.135915 11.003881 0.293558
v -3.135915 8.003881 0.293558
v -3.136012 8.003881 -1.706443
v -3.136012 11.003881 -1.706442
v -4.135915 8.003881 0.293606
v -4.135915 11.003881 0.293606
v -4.136012 11.003881 -1.706393
v -4.136011 8.003881 -1.706394
v -4.135863 12.003881 1.293608
v -4.136057 12.003881 -2.706392
v -8.135862 12.003882 1.293802
v -8.136057 12.003882 -2.706198
v -8.136057 8.003881 -2.706199
v -8.136056 12.003881 -2.706200
v -4.136057 8.003881 -2.706394
v -4.136056 12.003881 -2.706394
v -4.135865 8.003881 1.293608
v -4.135865 12.003881 1.293607
v -8.135865 8.003881 1.293801
v -8.135865 12.003881 1.293800
vn -1.0000 -0.0000 -0.0000
vn -0.0000 -0.0000 1.0000
vn -0.0000 -0.0000 -1.0000
vn -0.0000 1.0000 -0.0000
vn 1.0000 -0.0000 -0.0000
vn -0.0000 -1.0000 -0.0000
vn -0.0000 -1.0000 -0.0010
vn -0.0000 -1.0000 0.0010
vn -0.0000 -1.0000 -0.0071
vn -0.0000 -1.0000 0.0071
vt 0.061981 0.187981
vt 0.061981 0.187981
vt 0.061981 0.187981
vt 0.061981 0.187981
vt 0.061981 0.187980
vt 0.061981 0.187981
vt 0.061981 0.187981
s 1
usemtl Material.001
f 3/1/1 1/1/1 2/1/1 4/1/1
f 14/1/2 13/1/2 18/1/2 17/1/2
f 16/1/3 15/1/3 20/1/3 19/1/3
f 13/1/4 16/2/4 19/1/4 18/1/4
f 11/2/5 7/3/5 8/2/5 12/2/5
f 22/3/5 21/2/5 13/1/5 14/1/5
f 24/2/5 23/4/5 15/2/5 16/2/5
f 26/5/1 25/1/1 17/1/1 18/1/1
f 28/2/1 27/6/1 19/1/1 20/1/1
f 27/6/1 26/5/1 18/1/1 19/1/1
f 21/2/5 24/2/5 16/2/5 13/1/5
f 5/2/1 9/5/1 10/7/1 6/2/1
f 7/3/3 11/2/3 21/2/3 22/3/3
f 12/2/2 8/2/2 23/4/2 24/2/2
f 9/5/3 5/2/3 25/1/3 26/5/3
f 6/2/2 10/7/2 27/6/2 28/2/2
f 10/7/6 9/5/6 26/5/6 27/6/6
f 11/2/6 12/2/6 24/2/6 21/2/6
f 8/2/7 7/3/8 5/2/8 6/2/7
f 20/1/9 15/2/9 23/4/9 8/2/7 6/2/7 28/2/9
f 17/1/10 25/1/10 5/2/8 7/3/8 22/3/10 14/1/10
f 31/1/4 29/1/4 30/1/4 32/1/4
f 35/1/3 33/1/3 34/1/3 36/1/3
f 39/1/2 37/1/2 38/1/2 40/1/2
