# Blender 4.5.3 LTS
# www.blender.org
mtllib obj3a.mtl
o Cube.047
v -5.136301 8.003881 -7.706344
v -5.136302 10.003881 -7.706344
v -7.136301 8.003881 -7.706246
v -7.136302 10.003881 -7.706246
v -5.136398 8.003881 -9.706344
v -5.136398 10.003881 -9.706344
v -7.136398 8.003881 -9.706246
v -7.136398 10.003881 -9.706246
v -5.136302 10.003881 -7.706344
v -5.386314 12.003881 -7.956331
v -7.136302 10.003881 -7.706246
v -6.886314 12.003881 -7.956259
v -5.136398 10.003881 -9.706344
v -5.386387 12.003881 -9.456331
v -7.136398 10.003881 -9.706246
v -6.886387 12.003881 -9.456259
v -5.136302 12.003881 -7.706344
v -7.136302 12.003881 -7.706246
v -7.136399 12.003881 -9.706246
v -5.136399 12.003881 -9.706344
v -5.386314 11.003881 -7.956331
v -6.886314 11.003881 -7.956259
v -6.886386 11.003881 -9.456259
v -5.386386 11.003881 -9.456331
vn -0.0000 -0.0000 1.0000
vn -1.0000 -0.0000 -0.0000
vn -0.0000 -0.0000 -1.0000
vn 1.0000 -0.0000 -0.0000
vn -0.0000 -1.0000 -0.0000
vn -0.0000 1.0000 -0.0000
vt 0.071824 0.187980
vt 0.061981 0.187981
vt 0.061981 0.187981
s 1
usemtl Material.001
f 1/1/1 2/1/1 4/1/1 3/1/1
f 3/1/2 4/1/2 8/1/2 7/1/2
f 7/1/3 8/1/3 6/1/3 5/1/3
f 5/1/4 6/1/4 2/1/4 1/1/4
f 3/1/5 7/1/5 5/1/5 1/1/5
f 8/1/6 4/1/6 2/1/6 6/1/6
f 9/2/1 17/2/1 18/2/1 11/2/1
f 11/2/2 18/2/2 19/2/2 15/2/2
f 15/2/3 19/2/3 20/2/3 13/2/3
f 13/2/4 20/2/4 17/2/4 9/2/4
f 11/2/5 15/2/5 13/2/5 9/2/5
f 14/2/1 16/3/1 23/3/1 24/2/1
f 10/2/6 12/2/6 18/2/6 17/2/6
f 12/2/6 16/3/6 19/2/6 18/2/6
f 16/3/6 14/2/6 20/2/6 19/2/6
f 14/2/6 10/2/6 17/2/6 20/2/6
f 23/3/6 22/2/6 21/2/6 24/2/6
f 12/2/3 10/2/3 21/2/3 22/2/3
f 10/2/2 14/2/2 24/2/2 21/2/2
f 16/3/4 12/2/4 22/2/4 23/3/4
