# Blender 4.5.3 LTS
# www.blender.org
mtllib techoA.mtl
o Wall.009
v -7.135623 8.003869 6.293755
v -7.135429 8.003869 10.293755
v -7.135623 7.003869 6.293755
v -7.135429 7.003869 10.293755
v -11.135624 8.003869 6.293949
v -11.135429 8.003869 10.293949
v -11.135624 7.003869 6.293949
v -11.135429 7.003869 10.293949
v -7.136402 8.003869 -9.706245
v -10.136402 8.003869 -9.706099
v -7.136402 7.003869 -9.706245
v -10.136402 7.003869 -9.706099
v -7.136548 8.003869 -12.706245
v -10.136547 8.003869 -12.706099
v -7.136548 7.003869 -12.706245
v -10.136547 7.003869 -12.706099
v 0.863987 8.003869 -1.706635
v 0.864182 8.003869 2.293365
v 0.863987 7.003869 -1.706635
v 0.864182 7.003869 2.293365
v -3.136013 8.003869 -1.706440
v -3.135818 8.003869 2.293560
v -3.136013 7.003869 -1.706440
v -3.135818 7.003869 2.293560
v 0.864377 8.003869 6.293365
v 0.864571 8.003869 10.293365
v 0.864377 7.003869 6.293365
v 0.864571 7.003869 10.293365
v -3.135623 8.003869 6.293560
v -3.135429 8.003869 10.293560
v -3.135623 7.003869 6.293560
v -3.135429 7.003869 10.293560
v -3.136013 8.003869 -1.706440
v -3.135818 8.003869 2.293560
v -3.136013 7.003869 -1.706440
v -3.135818 7.003869 2.293560
v -7.136013 8.003869 -1.706245
v -7.135818 8.003869 2.293755
v -7.136013 7.003869 -1.706245
v -7.135818 7.003869 2.293755
v 0.864182 8.003869 2.293365
v 0.864376 8.003869 6.293366
v 0.864182 7.003869 2.293365
v 0.864376 7.003869 6.293366
v -3.135818 8.003869 2.293560
v -3.135623 8.003869 6.293560
v -3.135818 7.003869 2.293560
v -3.135623 7.003869 6.293560
v -3.135818 8.003869 2.293560
v -3.135624 8.003869 6.293560
v -3.135818 7.003869 2.293560
v -3.135624 7.003869 6.293560
v -7.135818 8.003869 2.293755
v -7.135623 8.003869 6.293755
v -7.135818 7.003869 2.293755
v -7.135623 7.003869 6.293755
v 0.863598 8.003869 -9.706635
v 0.863792 8.003869 -5.706635
v 0.863598 7.003869 -9.706635
v 0.863792 7.003869 -5.706635
v -3.136402 8.003869 -9.706440
v -3.136207 8.003869 -5.706440
v -3.136402 7.003869 -9.706440
v -3.136207 7.003869 -5.706440
v -3.136402 8.003869 -9.706440
v -3.136208 8.003869 -5.706440
v -3.136402 7.003869 -9.706440
v -3.136208 7.003869 -5.706440
v -7.136402 8.003869 -9.706245
v -7.136207 8.003869 -5.706245
v -7.136402 7.003869 -9.706245
v -7.136207 7.003869 -5.706245
v 0.863793 8.003869 -5.706635
v 0.863987 8.003869 -1.706635
v 0.863793 7.003869 -5.706635
v 0.863987 7.003869 -1.706635
v -3.136207 8.003869 -5.706440
v -3.136013 8.003869 -1.706440
v -3.136207 7.003869 -5.706440
v -3.136013 7.003869 -1.706440
v -3.136207 8.003869 -5.706440
v -3.136013 8.003869 -1.706440
v -3.136207 7.003869 -5.706440
v -3.136013 7.003869 -1.706440
v -7.136207 8.003869 -5.706245
v -7.136013 8.003869 -1.706245
v -7.136207 7.003869 -5.706245
v -7.136013 7.003869 -1.706245
v -3.135623 8.003869 6.293560
v -3.135429 8.003869 10.293560
v -3.135623 7.003869 6.293560
v -3.135429 7.003869 10.293560
v -7.135623 8.003869 6.293755
v -7.135429 8.003869 10.293755
v -7.135623 7.003869 6.293755
v -7.135429 7.003869 10.293755
v -11.135429 8.003869 10.293949
v -7.135429 8.003869 10.293755
v -11.135429 7.003869 10.293948
v -7.135429 7.003869 10.293755
v -11.135283 8.003869 13.293949
v -7.135283 8.003869 13.293755
v -11.135283 7.003869 13.293949
v -7.135283 7.003869 13.293755
v 0.864376 8.003869 6.293365
v 0.864182 8.003869 2.293365
v 0.864376 7.003869 6.293365
v 0.864182 7.003869 2.293365
v 3.864377 8.003869 6.293220
v 3.864182 8.003869 2.293220
v 3.864377 7.003869 6.293220
v 3.864182 7.003869 2.293220
v 0.864182 8.003869 2.293365
v 0.863987 8.003869 -1.706635
v 0.864182 7.003869 2.293365
v 0.863987 7.003869 -1.706635
v 3.864182 8.003869 2.293220
v 3.863987 8.003869 -1.706780
v 3.864182 7.003869 2.293220
v 3.863987 7.003869 -1.706780
v 0.863987 8.003869 -1.706635
v 0.863793 8.003869 -5.706635
v 0.863987 7.003869 -1.706635
v 0.863793 7.003869 -5.706635
v 3.863987 8.003869 -1.706780
v 3.863793 8.003869 -5.706781
v 3.863987 7.003869 -1.706780
v 3.863793 7.003869 -5.706781
v -3.136402 8.003869 -9.706440
v -7.136402 8.003869 -9.706245
v -3.136402 7.003869 -9.706440
v -7.136402 7.003869 -9.706245
v -3.136548 8.003869 -12.706440
v -7.136548 8.003869 -12.706245
v -3.136548 7.003869 -12.706440
v -7.136548 7.003869 -12.706245
v -7.136207 8.003869 -5.706245
v -7.136013 8.003869 -1.706245
v -7.136207 7.003869 -5.706245
v -7.136013 7.003869 -1.706245
v -10.136208 8.003869 -5.706100
v -10.136013 8.003869 -1.706100
v -10.136208 7.003869 -5.706100
v -10.136013 7.003869 -1.706100
v 0.863598 8.003869 -9.706635
v -3.136402 8.003869 -9.706440
v 0.863598 7.003869 -9.706635
v -3.136402 7.003869 -9.706440
v 0.863452 8.003869 -12.706635
v -3.136547 8.003869 -12.706440
v 0.863452 7.003869 -12.706635
v -3.136548 7.003869 -12.706440
v 0.863792 8.003869 -5.706635
v 0.863598 8.003869 -9.706635
v 0.863792 7.003869 -5.706635
v 0.863598 7.003869 -9.706635
v 3.863793 8.003869 -5.706781
v 3.863598 8.003869 -9.706781
v 3.863793 7.003869 -5.706781
v 3.863598 7.003869 -9.706781
v -7.136402 8.003869 -9.706245
v -7.136208 8.003869 -5.706245
v -7.136402 7.003869 -9.706245
v -7.136208 7.003869 -5.706245
v -10.136402 8.003869 -9.706099
v -10.136208 8.003869 -5.706100
v -10.136402 7.003869 -9.706099
v -10.136208 7.003869 -5.706100
v -7.135818 8.003869 2.293755
v -7.135624 8.003869 6.293754
v -7.135818 7.003869 2.293755
v -7.135623 7.003869 6.293754
v -10.135818 8.003869 2.293900
v -10.135624 8.003869 6.293900
v -10.135818 7.003869 2.293900
v -10.135624 7.003869 6.293900
v -7.136013 8.003869 -1.706245
v -7.135818 8.003869 2.293755
v -7.136013 7.003869 -1.706245
v -7.135818 7.003869 2.293755
v -10.136013 8.003869 -1.706100
v -10.135818 8.003869 2.293900
v -10.136013 7.003869 -1.706100
v -10.135818 7.003869 2.293900
v 3.863598 8.003869 -9.706781
v 0.863598 8.003869 -9.706635
v 3.863598 7.003869 -9.706781
v 0.863598 7.003869 -9.706635
v 3.863452 8.003869 -12.706781
v 0.863452 8.003869 -12.706635
v 3.863452 7.003869 -12.706781
v 0.863452 7.003869 -12.706635
v 0.864571 8.003869 10.293365
v 0.864377 8.003869 6.293366
v 0.864571 7.003869 10.293365
v 0.864377 7.003869 6.293366
v 3.864571 8.003869 10.293221
v 3.864377 8.003869 6.293221
v 3.864571 7.003869 10.293221
v 3.864377 7.003869 6.293221
v -3.135429 8.003869 10.293559
v 0.864571 8.003869 10.293365
v -3.135429 7.003869 10.293559
v 0.864571 7.003869 10.293365
v -3.135283 8.003869 13.293560
v 0.864717 8.003869 13.293365
v -3.135283 7.003869 13.293560
v 0.864717 7.003869 13.293365
v -7.135429 8.003869 10.293754
v -3.135429 8.003869 10.293560
v -7.135429 7.003869 10.293754
v -3.135429 7.003869 10.293560
v -7.135283 8.003869 13.293755
v -3.135283 8.003869 13.293560
v -7.135283 7.003869 13.293755
v -3.135283 7.003869 13.293560
v 3.864717 8.003869 13.293220
v 0.864717 8.003869 13.293365
v 3.864717 7.003869 13.293220
v 0.864717 7.003869 13.293365
v 3.864571 8.003869 10.293220
v 0.864571 8.003869 10.293365
v 3.864571 7.003869 10.293220
v 0.864571 7.003869 10.293365
vn -0.0000 -0.0000 -1.0000
vn -0.0000 -0.0000 1.0000
vn -0.0000 1.0000 -0.0000
vn -1.0000 -0.0000 -0.0000
vn -0.0000 -1.0000 -0.0000
vn 1.0000 -0.0000 -0.0000
vt 0.061981 0.187981
vt 0.061981 0.187981
s 1
usemtl Material.090
f 3/1/1 7/1/1 5/1/1 1/1/1
f 8/1/2 4/1/2 2/1/2 6/1/2
f 5/1/3 6/1/3 2/1/3 1/1/3
f 7/1/4 8/2/4 6/1/4 5/1/4
f 3/1/5 4/2/5 8/2/5 7/1/5
f 1/1/6 2/1/6 4/2/6 3/1/6
usemtl Material.128
f 11/1/6 15/1/6 13/1/6 9/1/6
f 16/1/4 12/1/4 10/1/4 14/1/4
f 13/1/3 14/1/3 10/1/3 9/1/3
f 15/1/1 16/2/1 14/1/1 13/1/1
f 11/1/5 12/2/5 16/2/5 15/1/5
f 9/1/2 10/1/2 12/2/2 11/1/2
usemtl Material.129
f 19/1/1 23/1/1 21/1/1 17/1/1
f 24/1/2 20/1/2 18/1/2 22/1/2
f 21/1/3 22/1/3 18/1/3 17/1/3
f 23/1/4 24/2/4 22/1/4 21/1/4
f 19/1/5 20/2/5 24/2/5 23/1/5
f 17/1/6 18/1/6 20/2/6 19/1/6
usemtl Material.130
f 27/1/1 31/1/1 29/1/1 25/1/1
f 32/1/2 28/1/2 26/1/2 30/1/2
f 29/1/3 30/1/3 26/1/3 25/1/3
f 31/1/4 32/2/4 30/1/4 29/1/4
f 27/1/5 28/2/5 32/2/5 31/1/5
f 25/1/6 26/1/6 28/2/6 27/1/6
usemtl Material.131
f 35/1/1 39/1/1 37/1/1 33/1/1
f 40/1/2 36/1/2 34/1/2 38/1/2
f 37/1/3 38/1/3 34/1/3 33/1/3
f 39/1/4 40/2/4 38/1/4 37/1/4
f 35/1/5 36/2/5 40/2/5 39/1/5
f 33/1/6 34/1/6 36/2/6 35/1/6
usemtl Material.132
f 43/1/1 47/1/1 45/1/1 41/1/1
f 48/1/2 44/1/2 42/1/2 46/1/2
f 45/1/3 46/1/3 42/1/3 41/1/3
f 47/1/4 48/2/4 46/1/4 45/1/4
f 43/1/5 44/2/5 48/2/5 47/1/5
f 41/1/6 42/1/6 44/2/6 43/1/6
usemtl Material.133
f 51/1/1 55/1/1 53/1/1 49/1/1
f 56/1/2 52/1/2 50/1/2 54/1/2
f 53/1/3 54/1/3 50/1/3 49/1/3
f 55/1/4 56/2/4 54/1/4 53/1/4
f 51/1/5 52/2/5 56/2/5 55/1/5
f 49/1/6 50/1/6 52/2/6 51/1/6
usemtl Material.134
f 59/1/1 63/1/1 61/1/1 57/1/1
f 64/1/2 60/1/2 58/1/2 62/1/2
f 61/1/3 62/1/3 58/1/3 57/1/3
f 63/1/4 64/2/4 62/1/4 61/1/4
f 59/1/5 60/2/5 64/2/5 63/1/5
f 57/1/6 58/1/6 60/2/6 59/1/6
usemtl Material.135
f 67/1/1 71/1/1 69/1/1 65/1/1
f 72/1/2 68/1/2 66/1/2 70/1/2
f 69/1/3 70/1/3 66/1/3 65/1/3
f 71/1/4 72/2/4 70/1/4 69/1/4
f 67/1/5 68/2/5 72/2/5 71/1/5
f 65/1/6 66/1/6 68/2/6 67/1/6
usemtl Material.136
f 75/1/1 79/1/1 77/1/1 73/1/1
f 80/1/2 76/1/2 74/1/2 78/1/2
f 77/1/3 78/1/3 74/1/3 73/1/3
f 79/1/4 80/2/4 78/1/4 77/1/4
f 75/1/5 76/2/5 80/2/5 79/1/5
f 73/1/6 74/1/6 76/2/6 75/1/6
usemtl Material.137
f 83/1/1 87/1/1 85/1/1 81/1/1
f 88/1/2 84/1/2 82/1/2 86/1/2
f 85/1/3 86/1/3 82/1/3 81/1/3
f 87/1/4 88/2/4 86/1/4 85/1/4
f 83/1/5 84/2/5 88/2/5 87/1/5
f 81/1/6 82/1/6 84/2/6 83/1/6
usemtl Material.138
f 91/1/1 95/1/1 93/1/1 89/1/1
f 96/1/2 92/1/2 90/1/2 94/1/2
f 93/1/3 94/1/3 90/1/3 89/1/3
f 95/1/4 96/2/4 94/1/4 93/1/4
f 91/1/5 92/2/5 96/2/5 95/1/5
f 89/1/6 90/1/6 92/2/6 91/1/6
usemtl Material.139
f 99/1/4 103/1/4 101/1/4 97/1/4
f 104/1/6 100/1/6 98/1/6 102/1/6
f 101/1/3 102/1/3 98/1/3 97/1/3
f 103/1/2 104/2/2 102/1/2 101/1/2
f 99/1/5 100/2/5 104/2/5 103/1/5
f 97/1/1 98/1/1 100/2/1 99/1/1
usemtl Material.140
f 107/1/2 111/1/2 109/1/2 105/1/2
f 112/1/1 108/1/1 106/1/1 110/1/1
f 109/1/3 110/1/3 106/1/3 105/1/3
f 111/1/6 112/2/6 110/1/6 109/1/6
f 107/1/5 108/2/5 112/2/5 111/1/5
f 105/1/4 106/1/4 108/2/4 107/1/4
usemtl Material.141
f 115/1/2 119/1/2 117/1/2 113/1/2
f 120/1/1 116/1/1 114/1/1 118/1/1
f 117/1/3 118/1/3 114/1/3 113/1/3
f 119/1/6 120/2/6 118/1/6 117/1/6
f 115/1/5 116/2/5 120/2/5 119/1/5
f 113/1/4 114/1/4 116/2/4 115/1/4
usemtl Material.142
f 123/1/2 127/1/2 125/1/2 121/1/2
f 128/1/1 124/1/1 122/1/1 126/1/1
f 125/1/3 126/1/3 122/1/3 121/1/3
f 127/1/6 128/2/6 126/1/6 125/1/6
f 123/1/5 124/2/5 128/2/5 127/1/5
f 121/1/4 122/1/4 124/2/4 123/1/4
usemtl Material.143
f 131/1/6 135/1/6 133/1/6 129/1/6
f 136/1/4 132/1/4 130/1/4 134/1/4
f 133/1/3 134/1/3 130/1/3 129/1/3
f 135/1/1 136/2/1 134/1/1 133/1/1
f 131/1/5 132/2/5 136/2/5 135/1/5
f 129/1/2 130/1/2 132/2/2 131/1/2
usemtl Material.144
f 139/1/1 143/1/1 141/1/1 137/1/1
f 144/1/2 140/1/2 138/1/2 142/1/2
f 141/1/3 142/1/3 138/1/3 137/1/3
f 143/1/4 144/2/4 142/1/4 141/1/4
f 139/1/5 140/2/5 144/2/5 143/1/5
f 137/1/6 138/1/6 140/2/6 139/1/6
usemtl Material.145
f 147/1/6 151/1/6 149/1/6 145/1/6
f 152/1/4 148/1/4 146/1/4 150/1/4
f 149/1/3 150/1/3 146/1/3 145/1/3
f 151/1/1 152/2/1 150/1/1 149/1/1
f 147/1/5 148/2/5 152/2/5 151/1/5
f 145/1/2 146/1/2 148/2/2 147/1/2
usemtl Material.147
f 155/1/2 159/1/2 157/1/2 153/1/2
f 160/1/1 156/1/1 154/1/1 158/1/1
f 157/1/3 158/1/3 154/1/3 153/1/3
f 159/1/6 160/2/6 158/1/6 157/1/6
f 155/1/5 156/2/5 160/2/5 159/1/5
f 153/1/4 154/1/4 156/2/4 155/1/4
usemtl Material.148
f 163/1/1 167/1/1 165/1/1 161/1/1
f 168/1/2 164/1/2 162/1/2 166/1/2
f 165/1/3 166/1/3 162/1/3 161/1/3
f 167/1/4 168/2/4 166/1/4 165/1/4
f 163/1/5 164/2/5 168/2/5 167/1/5
f 161/1/6 162/1/6 164/2/6 163/1/6
usemtl Material.149
f 171/1/1 175/1/1 173/1/1 169/1/1
f 176/1/2 172/1/2 170/1/2 174/1/2
f 173/1/3 174/1/3 170/1/3 169/1/3
f 175/1/4 176/2/4 174/1/4 173/1/4
f 171/1/5 172/2/5 176/2/5 175/1/5
f 169/1/6 170/1/6 172/2/6 171/1/6
usemtl Material.150
f 179/1/1 183/1/1 181/1/1 177/1/1
f 184/1/2 180/1/2 178/1/2 182/1/2
f 181/1/3 182/1/3 178/1/3 177/1/3
f 183/1/4 184/2/4 182/1/4 181/1/4
f 179/1/5 180/2/5 184/2/5 183/1/5
f 177/1/6 178/1/6 180/2/6 179/1/6
usemtl Material.151
f 187/1/6 191/1/6 189/1/6 185/1/6
f 192/1/4 188/1/4 186/1/4 190/1/4
f 189/1/3 190/1/3 186/1/3 185/1/3
f 191/1/1 192/2/1 190/1/1 189/1/1
f 187/1/5 188/2/5 192/2/5 191/1/5
f 185/1/2 186/1/2 188/2/2 187/1/2
usemtl Material.152
f 195/1/2 199/1/2 197/1/2 193/1/2
f 200/1/1 196/1/1 194/1/1 198/1/1
f 197/1/3 198/1/3 194/1/3 193/1/3
f 199/1/6 200/2/6 198/1/6 197/1/6
f 195/1/5 196/2/5 200/2/5 199/1/5
f 193/1/4 194/1/4 196/2/4 195/1/4
usemtl Material.153
f 203/1/4 207/1/4 205/1/4 201/1/4
f 208/1/6 204/1/6 202/1/6 206/1/6
f 205/1/3 206/1/3 202/1/3 201/1/3
f 207/1/2 208/2/2 206/1/2 205/1/2
f 203/1/5 204/2/5 208/2/5 207/1/5
f 201/1/1 202/1/1 204/2/1 203/1/1
usemtl Material.154
f 211/1/4 215/1/4 213/1/4 209/1/4
f 216/1/6 212/1/6 210/1/6 214/1/6
f 213/1/3 214/1/3 210/1/3 209/1/3
f 215/1/2 216/2/2 214/1/2 213/1/2
f 211/1/5 212/2/5 216/2/5 215/1/5
f 209/1/1 210/1/1 212/2/1 211/1/1
usemtl Material.155
f 219/1/6 223/1/6 221/1/6 217/1/6
f 224/1/4 220/1/4 218/1/4 222/1/4
f 221/1/3 222/1/3 218/1/3 217/1/3
f 223/1/1 224/2/1 222/1/1 221/1/1
f 219/1/5 220/2/5 224/2/5 223/1/5
f 217/1/2 218/1/2 220/2/2 219/1/2
