# Blender 4.5.3 LTS
# www.blender.org
mtllib techoB.mtl
o Wall.001
v -11.135283 8.003869 13.293948
v -14.135283 8.003869 13.294094
v -11.135283 7.003869 13.293948
v -14.135283 7.003869 13.294094
v -11.135429 8.003869 10.293948
v -14.135429 8.003869 10.294094
v -11.135429 7.003869 10.293948
v -14.135429 7.003869 10.294094
v -11.135429 8.003869 10.293948
v -14.135429 8.003869 10.294094
v -11.135429 7.003870 10.293948
v -14.135429 7.003870 10.294094
v -11.135576 8.003869 7.293948
v -14.135575 8.003869 7.294094
v -11.135576 7.003870 7.293948
v -14.135575 7.003870 7.294094
vn 1.0000 -0.0000 -0.0000
vn -1.0000 -0.0000 -0.0000
vn -0.0000 1.0000 -0.0000
vn -0.0000 -0.0000 -1.0000
vn -0.0000 -1.0000 -0.0000
vn -0.0000 -0.0000 1.0000
vt 0.061981 0.187981
vt 0.061981 0.187981
s 1
usemtl Material.194
f 3/1/1 7/1/1 5/1/1 1/1/1
f 8/1/2 4/1/2 2/1/2 6/1/2
f 5/1/3 6/1/3 2/1/3 1/1/3
f 7/1/4 8/2/4 6/1/4 5/1/4
f 3/1/5 4/2/5 8/2/5 7/1/5
f 1/1/6 2/1/6 4/2/6 3/1/6
usemtl Material.195
f 11/1/1 15/1/1 13/1/1 9/1/1
f 16/1/2 12/1/2 10/1/2 14/1/2
f 13/1/3 14/1/3 10/1/3 9/1/3
f 15/1/4 16/2/4 14/1/4 13/1/4
f 11/1/5 12/2/5 16/2/5 15/1/5
f 9/1/6 10/1/6 12/2/6 11/1/6
