# Blender 4.5.3 LTS
# www.blender.org
mtllib pared4c.mtl
o Wall.044
v -10.136011 0.003870 -1.706100
v -10.135817 0.003871 2.293900
v -11.136011 0.003870 -1.706052
v -11.135817 0.003871 2.293948
v -10.136011 4.003870 -1.706100
v -10.135817 4.003870 2.293899
v -11.136011 4.003870 -1.706052
v -11.135817 4.003870 2.293948
v -10.135817 0.003870 2.293900
v -10.135622 0.003871 6.293900
v -11.135817 0.003870 2.293948
v -11.135622 0.003871 6.293948
v -10.135817 4.003870 2.293900
v -10.135622 4.003870 6.293900
v -11.135817 4.003870 2.293948
v -11.135622 4.003870 6.293948
vn -0.0000 -0.0000 -1.0000
vn -0.0000 -0.0000 1.0000
vn 1.0000 -0.0000 -0.0000
vn -0.0000 1.0000 -0.0000
vn -1.0000 -0.0000 -0.0000
vn -0.0000 -1.0000 -0.0000
vt 0.061981 0.187981
vt 0.061981 0.187981
s 1
usemtl Material.106
f 3/1/1 7/1/1 5/1/1 1/1/1
f 8/1/2 4/1/2 2/1/2 6/1/2
f 5/1/3 6/1/3 2/1/3 1/1/3
f 7/1/4 8/2/4 6/1/4 5/1/4
f 3/1/5 4/2/5 8/2/5 7/1/5
f 1/1/6 2/1/6 4/2/6 3/1/6
usemtl Material.112
f 11/1/1 15/1/1 13/1/1 9/1/1
f 16/1/2 12/1/2 10/1/2 14/1/2
f 13/1/3 14/1/3 10/1/3 9/1/3
f 15/1/4 16/2/4 14/1/4 13/1/4
f 11/1/5 12/2/5 16/2/5 15/1/5
f 9/1/6 10/1/6 12/2/6 11/1/6
