# Blender 4.5.3 LTS
# www.blender.org
mtllib casa3ventanaB.mtl
o Ladder.013
v -38.000000 0.638609 0.400000
v -38.000000 2.938609 0.400000
v -38.000000 0.638609 0.600000
v -38.000000 2.938609 0.600000
v -40.000000 0.638609 0.400000
v -40.000000 2.938609 0.400000
v -40.000000 0.638609 0.600000
v -40.000000 2.938609 0.600000
v -39.733334 0.638609 0.600000
v -38.266666 0.638609 0.600000
v -38.266666 2.938609 0.600000
v -39.733334 2.938609 0.600000
v -38.266666 0.638609 0.400000
v -39.733334 0.638609 0.400000
v -39.733334 2.938609 0.400000
v -38.266666 2.938609 0.400000
v -38.000000 0.926109 0.400000
v -38.000000 1.213609 0.400000
v -38.000000 1.501109 0.400000
v -38.000000 1.788609 0.400000
v -38.000000 2.076109 0.400000
v -38.000000 2.363609 0.400000
v -38.000000 2.651109 0.400000
v -38.000000 2.651109 0.600000
v -38.000000 2.363609 0.600000
v -38.000000 2.076109 0.600000
v -38.000000 1.788609 0.600000
v -38.000000 1.501109 0.600000
v -38.000000 1.213609 0.600000
v -38.000000 0.926109 0.600000
v -40.000000 2.651109 0.600000
v -40.000000 2.363609 0.600000
v -40.000000 2.076109 0.600000
v -40.000000 1.788609 0.600000
v -40.000000 1.501109 0.600000
v -40.000000 1.213609 0.600000
v -40.000000 0.926109 0.600000
v -40.000000 2.651109 0.400000
v -40.000000 2.363609 0.400000
v -40.000000 2.076109 0.400000
v -40.000000 1.788609 0.400000
v -40.000000 1.501109 0.400000
v -40.000000 1.213609 0.400000
v -40.000000 0.926109 0.400000
v -39.733334 2.651109 0.400000
v -39.733334 2.363609 0.400000
v -39.733334 2.076109 0.400000
v -39.733334 1.788609 0.400000
v -39.733334 1.501109 0.400000
v -39.733334 1.213609 0.400000
v -39.733334 0.926109 0.400000
v -38.266666 2.651109 0.400000
v -38.266666 2.363609 0.400000
v -38.266666 2.076109 0.400000
v -38.266666 1.788609 0.400000
v -38.266666 1.501109 0.400000
v -38.266666 1.213609 0.400000
v -38.266666 0.926109 0.400000
v -38.266666 2.651109 0.600000
v -38.266666 2.363609 0.600000
v -38.266666 2.076109 0.600000
v -38.266666 1.788609 0.600000
v -38.266666 1.501109 0.600000
v -38.266666 1.213609 0.600000
v -38.266666 0.926109 0.600000
v -39.733334 2.651109 0.600000
v -39.733334 2.363609 0.600000
v -39.733334 2.076109 0.600000
v -39.733334 1.788609 0.600000
v -39.733334 1.501109 0.600000
v -39.733334 1.213609 0.600000
v -39.733334 0.926109 0.600000
vn 1.0000 -0.0000 -0.0000
vn -0.0000 -0.0000 1.0000
vn -1.0000 -0.0000 -0.0000
vn -0.0000 -0.0000 -1.0000
vn -0.0000 -1.0000 -0.0000
vn -0.0000 1.0000 -0.0000
vt 0.061981 0.187981
vt 0.061981 0.187981
s 1
usemtl Material.334
f 23/1/1 2/1/1 4/1/1 24/1/1
f 66/1/2 12/1/2 8/1/2 31/1/2
f 31/1/3 8/1/3 6/1/3 38/1/3
f 52/1/4 16/1/4 2/1/4 23/1/4
f 9/1/5 7/1/5 5/1/5 14/1/5
f 11/1/6 4/1/6 2/1/6 16/1/6
f 8/1/6 12/1/6 15/1/6 6/1/6
f 12/1/6 11/1/6 16/1/6 15/1/6
f 3/1/5 10/1/5 13/1/5 1/1/5
f 58/1/3 13/1/3 10/1/3 65/1/3
f 38/1/4 6/1/4 15/1/4 45/1/4
f 45/1/4 15/1/4 16/1/4 52/1/4
f 24/1/2 4/1/2 11/1/2 59/1/2
f 59/1/2 11/1/2 12/1/2 66/1/2
f 65/1/2 64/1/2 71/1/2 72/1/2
f 63/2/2 62/2/2 69/2/2 70/2/2
f 61/1/2 60/1/2 67/1/2 68/1/2
f 3/1/2 30/1/2 65/1/2 10/1/2
f 30/1/2 29/1/2 64/1/2 65/1/2
f 29/1/2 28/2/2 63/2/2 64/1/2
f 28/2/2 27/2/2 62/2/2 63/2/2
f 27/2/2 26/1/2 61/1/2 62/2/2
f 26/1/2 25/1/2 60/1/2 61/1/2
f 25/1/2 24/1/2 59/1/2 60/1/2
f 51/1/4 50/1/4 57/1/4 58/1/4
f 49/2/4 48/2/4 55/2/4 56/2/4
f 47/1/4 46/1/4 53/1/4 54/1/4
f 5/1/4 44/1/4 51/1/4 14/1/4
f 44/1/4 43/1/4 50/1/4 51/1/4
f 43/1/4 42/2/4 49/2/4 50/1/4
f 42/2/4 41/2/4 48/2/4 49/2/4
f 41/2/4 40/1/4 47/1/4 48/2/4
f 40/1/4 39/1/4 46/1/4 47/1/4
f 39/1/4 38/1/4 45/1/4 46/1/4
f 13/1/4 58/1/4 17/1/4 1/1/4
f 58/1/4 57/1/4 18/1/4 17/1/4
f 57/1/4 56/2/4 19/1/4 18/1/4
f 56/2/4 55/2/4 20/2/4 19/1/4
f 55/2/4 54/1/4 21/2/4 20/2/4
f 54/1/4 53/1/4 22/1/4 21/2/4
f 53/1/4 52/1/4 23/1/4 22/1/4
f 7/1/3 37/1/3 44/1/3 5/1/3
f 37/1/3 36/1/3 43/1/3 44/1/3
f 36/1/3 35/2/3 42/2/3 43/1/3
f 35/2/3 34/2/3 41/2/3 42/2/3
f 34/2/3 33/1/3 40/1/3 41/2/3
f 33/1/3 32/1/3 39/1/3 40/1/3
f 32/1/3 31/1/3 38/1/3 39/1/3
f 9/1/2 72/1/2 37/1/2 7/1/2
f 72/1/2 71/1/2 36/1/2 37/1/2
f 71/1/2 70/2/2 35/2/2 36/1/2
f 70/2/2 69/2/2 34/2/2 35/2/2
f 69/2/2 68/1/2 33/1/2 34/2/2
f 68/1/2 67/1/2 32/1/2 33/1/2
f 67/1/2 66/1/2 31/1/2 32/1/2
f 1/1/1 17/1/1 30/1/1 3/1/1
f 17/1/1 18/1/1 29/1/1 30/1/1
f 18/1/1 19/1/1 28/2/1 29/1/1
f 19/1/1 20/2/1 27/2/1 28/2/1
f 20/2/1 21/2/1 26/1/1 27/2/1
f 21/2/1 22/1/1 25/1/1 26/1/1
f 22/1/1 23/1/1 24/1/1 25/1/1
f 72/1/5 51/1/5 58/1/5 65/1/5
f 51/1/1 72/1/1 9/1/1 14/1/1
f 64/1/6 57/1/6 50/1/6 71/1/6
f 50/1/1 49/2/1 70/2/1 71/1/1
f 63/2/5 70/2/5 49/2/5 56/2/5
f 57/1/3 64/1/3 63/2/3 56/2/3
f 62/2/6 55/2/6 48/2/6 69/2/6
f 48/2/1 47/1/1 68/1/1 69/2/1
f 61/1/5 68/1/5 47/1/5 54/1/5
f 55/2/3 62/2/3 61/1/3 54/1/3
f 60/1/6 53/1/6 46/1/6 67/1/6
f 46/1/1 45/1/1 66/1/1 67/1/1
f 59/1/5 66/1/5 45/1/5 52/1/5
f 53/1/3 60/1/3 59/1/3 52/1/3
