# Blender 4.5.3 LTS
# www.blender.org
mtllib casa2paredD.mtl
o Wall.017
v -45.000000 0.000000 8.000000
v -45.000000 0.000000 12.000000
v -46.000000 0.000000 8.000000
v -46.000000 0.000000 12.000000
v -45.000000 4.000000 8.000000
v -45.000000 4.000000 12.000000
v -46.000000 4.000000 8.000000
v -46.000000 4.000000 12.000000
v -45.000000 0.000000 4.000000
v -45.000000 0.000000 8.000000
v -46.000000 0.000000 4.000000
v -46.000000 0.000000 8.000000
v -45.000000 4.000000 4.000000
v -45.000000 4.000000 8.000000
v -46.000000 4.000000 4.000000
v -46.000000 4.000000 8.000000
v -45.000000 0.000000 0.000000
v -45.000000 0.000000 4.000000
v -46.000000 0.000000 0.000000
v -46.000000 0.000000 4.000000
v -45.000000 4.000000 0.000000
v -45.000000 4.000000 4.000000
v -46.000000 4.000000 0.000000
v -46.000000 4.000000 4.000000
vn -0.0000 -0.0000 -1.0000
vn -0.0000 -0.0000 1.0000
vn 1.0000 -0.0000 -0.0000
vn -0.0000 1.0000 -0.0000
vn -1.0000 -0.0000 -0.0000
vn -0.0000 -1.0000 -0.0000
vt 0.061981 0.187981
vt 0.061981 0.187981
s 1
usemtl Material.277
f 3/1/1 7/1/1 5/1/1 1/1/1
f 8/1/2 4/1/2 2/1/2 6/1/2
f 5/1/3 6/1/3 2/1/3 1/1/3
f 7/1/4 8/2/4 6/1/4 5/1/4
f 3/1/5 4/2/5 8/2/5 7/1/5
f 1/1/6 2/1/6 4/2/6 3/1/6
usemtl Material.274
f 11/1/1 15/1/1 13/1/1 9/1/1
f 16/1/2 12/1/2 10/1/2 14/1/2
f 13/1/3 14/1/3 10/1/3 9/1/3
f 15/1/4 16/2/4 14/1/4 13/1/4
f 11/1/5 12/2/5 16/2/5 15/1/5
f 9/1/6 10/1/6 12/2/6 11/1/6
usemtl Material.276
f 19/1/1 23/1/1 21/1/1 17/1/1
f 24/1/2 20/1/2 18/1/2 22/1/2
f 21/1/3 22/1/3 18/1/3 17/1/3
f 23/1/4 24/2/4 22/1/4 21/1/4
f 19/1/5 20/2/5 24/2/5 23/1/5
f 17/1/6 18/1/6 20/2/6 19/1/6
