# Blender 4.5.3 LTS
# www.blender.org
mtllib casa2techoB.mtl
o Wall.020
v -37.000000 8.000000 7.000000
v -37.000000 8.000000 1.000000
v -37.000000 8.500000 7.000000
v -37.000000 8.500000 1.000000
v -45.000000 8.000001 7.000000
v -45.000000 8.000001 1.000001
v -45.000000 8.500001 7.000000
v -45.000000 8.500001 1.000001
vn -0.0000 -0.0000 1.0000
vn -0.0000 -0.0000 -1.0000
vn -0.0000 -1.0000 -0.0000
vn -1.0000 -0.0000 -0.0000
vn -0.0000 1.0000 -0.0000
vn 1.0000 -0.0000 -0.0000
vt 0.061981 0.187981
vt 0.061981 0.187981
s 1
usemtl Material.295
f 3/1/1 7/1/1 5/1/1 1/1/1
f 8/1/2 4/1/2 2/1/2 6/1/2
f 5/1/3 6/1/3 2/1/3 1/1/3
f 7/1/4 8/2/4 6/1/4 5/1/4
f 3/1/5 4/2/5 8/2/5 7/1/5
f 1/1/6 2/1/6 4/2/6 3/1/6
