# Blender 4.5.3 LTS
# www.blender.org
mtllib torreAnillos.mtl
o Cylinder.012
v -0.000606 38.500000 10.000000
v -0.000606 39.500000 10.000000
v -8.660558 38.500000 4.999475
v -8.660558 39.500000 4.999475
v -8.659950 38.500000 -5.000525
v -8.659950 39.500000 -5.000525
v 0.000607 38.500000 -10.000000
v 0.000607 39.500000 -10.000000
v 8.660558 38.500000 -4.999474
v 8.660558 39.500000 -4.999474
v 8.659951 38.500000 5.000524
v 8.659951 39.500000 5.000524
v -0.000505 37.500000 8.333333
v -0.000505 38.500000 8.333333
v -1.626248 37.500000 8.173112
v -1.626248 38.500000 8.173112
v -3.189496 37.500000 7.698802
v -3.189496 38.500000 7.698802
v -4.630172 37.500000 6.928632
v -4.630172 38.500000 6.928632
v -5.892913 37.500000 5.892199
v -5.892913 38.500000 5.892199
v -6.929194 37.500000 4.629332
v -6.929194 38.500000 4.629332
v -7.699189 37.500000 3.188562
v -7.699189 38.500000 3.188562
v -8.173308 37.500000 1.625257
v -8.173308 38.500000 1.625257
v -8.333333 37.500000 -0.000506
v -8.333333 38.500000 -0.000506
v -8.173112 37.500000 -1.626248
v -8.173112 38.500000 -1.626248
v -7.698802 37.500000 -3.189495
v -7.698802 38.500000 -3.189495
v -6.928633 37.500000 -4.630171
v -6.928633 38.500000 -4.630171
v -5.892199 37.500000 -5.892913
v -5.892199 38.500000 -5.892913
v -4.629331 37.500000 -6.929194
v -4.629331 38.500000 -6.929194
v -3.188562 37.500000 -7.699189
v -3.188562 38.500000 -7.699189
v -1.625257 37.500000 -8.173308
v -1.625257 38.500000 -8.173308
v 0.000506 37.500000 -8.333333
v 0.000506 38.500000 -8.333333
v 1.626248 37.500000 -8.173112
v 1.626248 38.500000 -8.173112
v 3.189495 37.500000 -7.698802
v 3.189495 38.500000 -7.698802
v 4.630172 37.500000 -6.928631
v 4.630172 38.500000 -6.928631
v 5.892913 37.500000 -5.892200
v 5.892913 38.500000 -5.892200
v 6.929193 37.500000 -4.629333
v 6.929193 38.500000 -4.629333
v 7.699189 37.500000 -3.188563
v 7.699189 38.500000 -3.188563
v 8.173308 37.500000 -1.625257
v 8.173308 38.500000 -1.625257
v 8.333333 37.500000 0.000505
v 8.333333 38.500000 0.000505
v 8.173112 37.500000 1.626249
v 8.173112 38.500000 1.626249
v 7.698802 37.500000 3.189497
v 7.698802 38.500000 3.189497
v 6.928633 37.500000 4.630171
v 6.928633 38.500000 4.630171
v 5.892200 37.500000 5.892913
v 5.892200 38.500000 5.892913
v 4.629332 37.500000 6.929194
v 4.629332 38.500000 6.929194
v 3.188562 37.500000 7.699190
v 3.188562 38.500000 7.699190
v 1.625256 37.500000 8.173308
v 1.625256 38.500000 8.173308
vn -0.5001 -0.0000 0.8660
vn -1.0000 -0.0000 -0.0001
vn -0.4999 -0.0000 -0.8661
vn 0.5001 -0.0000 -0.8660
vn -0.0000 1.0000 -0.0000
vn 1.0000 -0.0000 0.0001
vn 0.4999 -0.0000 0.8661
vn -0.0000 -1.0000 -0.0000
vn -0.0981 -0.0000 0.9952
vn -0.2903 -0.0000 0.9569
vn -0.4715 -0.0000 0.8819
vn -0.6344 -0.0000 0.7730
vn -0.7730 -0.0000 0.6343
vn -0.8820 -0.0000 0.4713
vn -0.9570 -0.0000 0.2902
vn -0.9952 -0.0000 0.0980
vn -0.9952 -0.0000 -0.0981
vn -0.9569 -0.0000 -0.2903
vn -0.8819 -0.0000 -0.4715
vn -0.7730 -0.0000 -0.6344
vn -0.6343 -0.0000 -0.7730
vn -0.4713 -0.0000 -0.8820
vn -0.2902 -0.0000 -0.9570
vn -0.0980 -0.0000 -0.9952
vn 0.0981 -0.0000 -0.9952
vn 0.2903 -0.0000 -0.9569
vn 0.4715 -0.0000 -0.8819
vn 0.6344 -0.0000 -0.7730
vn 0.7730 -0.0000 -0.6343
vn 0.8819 -0.0000 -0.4713
vn 0.9570 -0.0000 -0.2902
vn 0.9952 -0.0000 -0.0980
vn 0.9952 -0.0000 0.0981
vn 0.9569 -0.0000 0.2903
vn 0.8819 -0.0000 0.4715
vn 0.7730 -0.0000 0.6344
vn 0.6343 -0.0000 0.7730
vn 0.4713 -0.0000 0.8819
vn 0.2902 -0.0000 0.9570
vn 0.0980 -0.0000 0.9952
vt 0.076745 0.197902
vt 0.076745 0.197902
vt 0.071824 0.183137
s 1
usemtl Material.420
f 1/1/1 2/1/1 4/1/1 3/1/1
f 3/1/2 4/1/2 6/1/2 5/1/2
f 5/1/3 6/1/3 8/1/3 7/1/3
f 7/1/4 8/1/4 10/1/4 9/1/4
f 4/1/5 2/1/5 12/1/5 10/1/5 8/1/5 6/1/5
f 9/1/6 10/1/6 12/1/6 11/1/6
f 11/1/7 12/1/7 2/2/7 1/2/7
f 1/1/8 3/1/8 5/1/8 7/1/8 9/1/8 11/1/8
usemtl Material.414
f 13/3/9 14/3/9 16/3/9 15/3/9
f 15/3/10 16/3/10 18/3/10 17/3/10
f 17/3/11 18/3/11 20/3/11 19/3/11
f 19/3/12 20/3/12 22/3/12 21/3/12
f 21/3/13 22/3/13 24/3/13 23/3/13
f 23/3/14 24/3/14 26/3/14 25/3/14
f 25/3/15 26/3/15 28/3/15 27/3/15
f 27/3/16 28/3/16 30/3/16 29/3/16
f 29/3/17 30/3/17 32/3/17 31/3/17
f 31/3/18 32/3/18 34/3/18 33/3/18
f 33/3/19 34/3/19 36/3/19 35/3/19
f 35/3/20 36/3/20 38/3/20 37/3/20
f 37/3/21 38/3/21 40/3/21 39/3/21
f 39/3/22 40/3/22 42/3/22 41/3/22
f 41/3/23 42/3/23 44/3/23 43/3/23
f 43/3/24 44/3/24 46/3/24 45/3/24
f 45/3/25 46/3/25 48/3/25 47/3/25
f 47/3/26 48/3/26 50/3/26 49/3/26
f 49/3/27 50/3/27 52/3/27 51/3/27
f 51/3/28 52/3/28 54/3/28 53/3/28
f 53/3/29 54/3/29 56/3/29 55/3/29
f 55/3/30 56/3/30 58/3/30 57/3/30
f 57/3/31 58/3/31 60/3/31 59/3/31
f 59/3/32 60/3/32 62/3/32 61/3/32
f 61/3/33 62/3/33 64/3/33 63/3/33
f 63/3/34 64/3/34 66/3/34 65/3/34
f 65/3/35 66/3/35 68/3/35 67/3/35
f 67/3/36 68/3/36 70/3/36 69/3/36
f 69/3/37 70/3/37 72/3/37 71/3/37
f 71/3/38 72/3/38 74/3/38 73/3/38
f 16/3/5 14/3/5 76/3/5 74/3/5 72/3/5 70/3/5 68/3/5 66/3/5 64/3/5 62/3/5 60/3/5 58/3/5 56/3/5 54/3/5 52/3/5 50/3/5 48/3/5 46/3/5 44/3/5 42/3/5 40/3/5 38/3/5 36/3/5 34/3/5 32/3/5 30/3/5 28/3/5 26/3/5 24/3/5 22/3/5 20/3/5 18/3/5
f 73/3/39 74/3/39 76/3/39 75/3/39
f 75/3/40 76/3/40 14/3/40 13/3/40
f 13/3/8 15/3/8 17/3/8 19/3/8 21/3/8 23/3/8 25/3/8 27/3/8 29/3/8 31/3/8 33/3/8 35/3/8 37/3/8 39/3/8 41/3/8 43/3/8 45/3/8 47/3/8 49/3/8 51/3/8 53/3/8 55/3/8 57/3/8 59/3/8 61/3/8 63/3/8 65/3/8 67/3/8 69/3/8 71/3/8 73/3/8 75/3/8
