# Blender 4.5.3 LTS
# www.blender.org
mtllib torreBorde.mtl
o Cube.003
v -0.700000 40.000000 5.000000
v -0.700000 41.000000 5.000000
v -0.700000 40.000000 -5.000000
v -0.700000 41.000000 -5.000000
v 0.700000 40.000000 5.000000
v 0.700000 41.000000 5.000000
v 0.700000 40.000000 -5.000000
v 0.700000 41.000000 -5.000000
v -0.697105 41.000000 -2.998673
v -0.697105 42.000000 -2.998673
v -0.697105 41.000000 -4.998673
v -0.697105 42.000000 -4.998673
v 0.702895 41.000000 -2.998673
v 0.702895 42.000000 -2.998673
v 0.702895 41.000000 -4.998673
v 0.702895 42.000000 -4.998673
v -0.704369 41.000000 5.008584
v -0.704369 42.000000 5.008584
v -0.704369 41.000000 3.008584
v -0.704369 42.000000 3.008584
v 0.695631 41.000000 5.008584
v 0.695631 42.000000 5.008584
v 0.695631 41.000000 3.008584
v 0.695631 42.000000 3.008584
v -0.700021 41.000000 1.999977
v -0.700021 42.000000 1.999977
v -0.700021 41.000000 -2.000024
v -0.700021 42.000000 -2.000024
v 0.699979 41.000000 1.999977
v 0.699979 42.000000 1.999977
v 0.699979 41.000000 -2.000024
v 0.699979 42.000000 -2.000024
vn -1.0000 -0.0000 -0.0000
vn -0.0000 -0.0000 -1.0000
vn 1.0000 -0.0000 -0.0000
vn -0.0000 -0.0000 1.0000
vn -0.0000 -1.0000 -0.0000
vn -0.0000 1.0000 -0.0000
vt 0.071824 0.187980
s 1
usemtl Material.430
f 1/1/1 2/1/1 4/1/1 3/1/1
f 3/1/2 4/1/2 8/1/2 7/1/2
f 7/1/3 8/1/3 6/1/3 5/1/3
f 5/1/4 6/1/4 2/1/4 1/1/4
f 3/1/5 7/1/5 5/1/5 1/1/5
f 8/1/6 4/1/6 2/1/6 6/1/6
usemtl Material.431
f 9/1/1 10/1/1 12/1/1 11/1/1
f 11/1/2 12/1/2 16/1/2 15/1/2
f 15/1/3 16/1/3 14/1/3 13/1/3
f 13/1/4 14/1/4 10/1/4 9/1/4
f 11/1/5 15/1/5 13/1/5 9/1/5
f 16/1/6 12/1/6 10/1/6 14/1/6
usemtl Material.432
f 17/1/1 18/1/1 20/1/1 19/1/1
f 19/1/2 20/1/2 24/1/2 23/1/2
f 23/1/3 24/1/3 22/1/3 21/1/3
f 21/1/4 22/1/4 18/1/4 17/1/4
f 19/1/5 23/1/5 21/1/5 17/1/5
f 24/1/6 20/1/6 18/1/6 22/1/6
usemtl Material.433
f 25/1/1 26/1/1 28/1/1 27/1/1
f 27/1/2 28/1/2 32/1/2 31/1/2
f 31/1/3 32/1/3 30/1/3 29/1/3
f 29/1/4 30/1/4 26/1/4 25/1/4
f 27/1/5 31/1/5 29/1/5 25/1/5
f 32/1/6 28/1/6 26/1/6 30/1/6
