# Blender 4.5.3 LTS
# www.blender.org
mtllib torreVentana.mtl
o cone.009
v -1.006297 8.999998 5.197256
v -0.006297 9.999998 5.197317
v 0.993703 8.999998 5.197377
v -1.006418 8.999998 7.197256
v -0.006418 9.999998 7.197317
v 0.993582 8.999998 7.197377
v -1.006297 35.000000 5.197256
v -0.006297 36.000000 5.197317
v 0.993703 35.000000 5.197377
v -1.006418 35.000000 7.197256
v -0.006418 36.000000 7.197317
v 0.993582 35.000000 7.197377
v -1.006297 21.999998 5.197256
v -0.006297 22.999998 5.197317
v 0.993703 21.999998 5.197377
v -1.006418 21.999998 7.197256
v -0.006418 22.999998 7.197317
v 0.993582 21.999998 7.197377
v 0.498120 7.499998 7.197348
v -0.501880 7.499998 7.197287
v 0.498150 7.499998 6.697348
v -0.501850 7.499998 6.697287
v 0.498120 8.499998 7.197348
v -0.501880 8.499998 7.197287
v 0.498150 8.499998 6.697348
v -0.501850 8.499998 6.697287
v 0.998150 8.999998 6.697378
v 0.998150 6.999998 6.697378
v -1.001850 6.999998 6.697257
v -1.001850 8.999998 6.697257
v 0.998120 6.999998 7.197378
v 0.998120 8.999998 7.197378
v -1.001880 8.999998 7.197257
v -1.001881 6.999998 7.197257
v 0.498120 33.500000 7.197348
v -0.501880 33.500000 7.197287
v 0.498150 33.500000 6.697348
v -0.501850 33.500000 6.697287
v 0.498120 34.500000 7.197348
v -0.501880 34.500000 7.197287
v 0.498150 34.500000 6.697348
v -0.501850 34.500000 6.697287
v 0.998150 35.000000 6.697378
v 0.998150 33.000000 6.697378
v -1.001850 33.000000 6.697257
v -1.001850 35.000000 6.697257
v 0.998120 33.000000 7.197378
v 0.998120 35.000000 7.197378
v -1.001880 35.000000 7.197257
v -1.001881 33.000000 7.197257
v 0.498120 20.499998 7.197347
v -0.501880 20.499998 7.197287
v 0.498150 20.499998 6.697347
v -0.501850 20.499998 6.697287
v 0.498120 21.499998 7.197348
v -0.501880 21.499998 7.197287
v 0.498150 21.499998 6.697348
v -0.501850 21.499998 6.697287
v 0.998150 21.999998 6.697378
v 0.998150 19.999998 6.697378
v -1.001850 19.999998 6.697256
v -1.001850 21.999998 6.697257
v 0.998120 19.999998 7.197378
v 0.998120 21.999998 7.197378
v -1.001880 21.999998 7.197257
v -1.001881 19.999998 7.197256
vn 0.0001 -0.0000 -1.0000
vn 0.7071 0.7071 -0.0000
vn -0.0001 -0.0000 1.0000
vn -0.7071 0.7071 -0.0000
vn -0.0000 -1.0000 -0.0000
vn 1.0000 -0.0000 0.0001
vn -1.0000 -0.0000 -0.0001
vn -0.0000 1.0000 -0.0000
vt 0.061981 0.187981
vt 0.061981 0.187981
vt 0.061981 0.187981
vt 0.061981 0.187981
vt 0.061981 0.187980
vt 0.061981 0.187981
s 1
usemtl Material.160
f 1/1/1 2/1/1 3/1/1
f 3/1/2 2/1/2 5/1/2 6/1/2
f 6/1/3 5/1/3 4/1/3
f 4/1/4 5/1/4 2/1/4 1/1/4
f 3/1/5 6/1/5 4/1/5 1/1/5
usemtl Material.416
f 7/1/1 8/1/1 9/1/1
f 9/1/2 8/1/2 11/1/2 12/1/2
f 12/1/3 11/1/3 10/1/3
f 10/1/4 11/1/4 8/1/4 7/1/4
f 9/1/5 12/1/5 10/1/5 7/1/5
usemtl Material.126
f 13/1/1 14/1/1 15/1/1
f 15/1/2 14/1/2 17/1/2 18/1/2
f 18/1/3 17/1/3 16/1/3
f 16/1/4 17/1/4 14/1/4 13/1/4
f 15/1/5 18/1/5 16/1/5 13/1/5
usemtl Material.157
f 28/1/6 27/1/6 32/1/6 31/1/6
f 30/1/7 29/1/7 34/1/7 33/1/7
f 24/2/6 20/3/6 22/4/6 26/3/6
f 27/1/8 30/3/8 33/1/8 32/1/8
f 23/5/5 24/2/5 26/3/5 25/3/5
f 31/1/5 34/1/5 29/3/5 28/1/5
f 21/6/1 25/3/1 27/1/1 28/1/1
f 26/3/1 22/4/1 29/3/1 30/3/1
f 23/5/3 19/1/3 31/1/3 32/1/3
f 20/3/3 24/2/3 33/1/3 34/1/3
f 19/1/3 20/3/3 34/1/3 31/1/3
f 24/2/3 23/5/3 32/1/3 33/1/3
f 25/3/1 26/3/1 30/3/1 27/1/1
f 22/4/1 21/6/1 28/1/1 29/3/1
f 20/3/8 19/1/8 21/6/8 22/4/8
f 19/1/7 23/5/7 25/3/7 21/6/7
usemtl Material.415
f 44/1/6 43/1/6 48/1/6 47/1/6
f 46/1/7 45/1/7 50/1/7 49/1/7
f 40/2/6 36/3/6 38/4/6 42/3/6
f 43/1/8 46/3/8 49/1/8 48/1/8
f 39/5/5 40/2/5 42/3/5 41/3/5
f 47/1/5 50/1/5 45/3/5 44/1/5
f 37/6/1 41/3/1 43/1/1 44/1/1
f 42/3/1 38/4/1 45/3/1 46/3/1
f 39/5/3 35/1/3 47/1/3 48/1/3
f 36/3/3 40/2/3 49/1/3 50/1/3
f 35/1/3 36/3/3 50/1/3 47/1/3
f 40/2/3 39/5/3 48/1/3 49/1/3
f 41/3/1 42/3/1 46/3/1 43/1/1
f 38/4/1 37/6/1 44/1/1 45/3/1
f 36/3/8 35/1/8 37/6/8 38/4/8
f 35/1/7 39/5/7 41/3/7 37/6/7
usemtl Material.125
f 60/1/6 59/1/6 64/1/6 63/1/6
f 62/1/7 61/1/7 66/1/7 65/1/7
f 56/2/6 52/3/6 54/4/6 58/3/6
f 59/1/8 62/3/8 65/1/8 64/1/8
f 55/5/5 56/2/5 58/3/5 57/3/5
f 63/1/5 66/1/5 61/3/5 60/1/5
f 53/6/1 57/3/1 59/1/1 60/1/1
f 58/3/1 54/4/1 61/3/1 62/3/1
f 55/5/3 51/1/3 63/1/3 64/1/3
f 52/3/3 56/2/3 65/1/3 66/1/3
f 51/1/3 52/3/3 66/1/3 63/1/3
f 56/2/3 55/5/3 64/1/3 65/1/3
f 57/3/1 58/3/1 62/3/1 59/1/1
f 54/4/1 53/6/1 60/1/1 61/3/1
f 52/3/8 51/1/8 53/6/8 54/4/8
f 51/1/7 55/5/7 57/3/7 53/6/7
