# Blender 4.5.3 LTS
# www.blender.org
mtllib torreVentanaTecho.mtl
o cone.009
v -1.006297 8.999998 5.197256
v -0.006297 9.999998 5.197317
v 0.993703 8.999998 5.197377
v -1.006418 8.999998 7.197256
v -0.006418 9.999998 7.197317
v 0.993582 8.999998 7.197377
v -1.006297 35.000000 5.197256
v -0.006297 36.000000 5.197317
v 0.993703 35.000000 5.197377
v -1.006418 35.000000 7.197256
v -0.006418 36.000000 7.197317
v 0.993582 35.000000 7.197377
v -1.006297 21.999998 5.197256
v -0.006297 22.999998 5.197317
v 0.993703 21.999998 5.197377
v -1.006418 21.999998 7.197256
v -0.006418 22.999998 7.197317
v 0.993582 21.999998 7.197377
vn 0.0001 -0.0000 -1.0000
vn 0.7071 0.7071 -0.0000
vn -0.0001 -0.0000 1.0000
vn -0.7071 0.7071 -0.0000
vn -0.0000 -1.0000 -0.0000
vt 0.061981 0.187981
s 1
usemtl Material.160
f 1/1/1 2/1/1 3/1/1
f 3/1/2 2/1/2 5/1/2 6/1/2
f 6/1/3 5/1/3 4/1/3
f 4/1/4 5/1/4 2/1/4 1/1/4
f 3/1/5 6/1/5 4/1/5 1/1/5
usemtl Material.416
f 7/1/1 8/1/1 9/1/1
f 9/1/2 8/1/2 11/1/2 12/1/2
f 12/1/3 11/1/3 10/1/3
f 10/1/4 11/1/4 8/1/4 7/1/4
f 9/1/5 12/1/5 10/1/5 7/1/5
usemtl Material.126
f 13/1/1 14/1/1 15/1/1
f 15/1/2 14/1/2 17/1/2 18/1/2
f 18/1/3 17/1/3 16/1/3
f 16/1/4 17/1/4 14/1/4 13/1/4
f 15/1/5 18/1/5 16/1/5 13/1/5
