# Blender 4.5.3 LTS
# www.blender.org
mtllib torreViga.mtl
o Pillar.023
v 1.998071 3.600000 8.500000
v -2.001929 3.600000 8.499758
v 1.998192 3.600000 6.500000
v -2.001807 3.600000 6.499758
v 1.998071 4.100000 8.500000
v -2.001929 4.099999 8.499758
v 1.998192 4.100000 6.500000
v -2.001807 4.099999 6.499758
vn -0.0000 -1.0000 -0.0000
vn 0.0001 -0.0000 -1.0000
vn -0.0000 1.0000 -0.0000
vn -0.0001 -0.0000 1.0000
vn 1.0000 -0.0000 0.0001
vn -1.0000 -0.0000 -0.0001
vt 0.061981 0.187981
s 1
usemtl Material.005
f 1/1/1 2/1/1 4/1/1 3/1/1
f 3/1/2 4/1/2 8/1/2 7/1/2
f 7/1/3 8/1/3 6/1/3 5/1/3
f 5/1/4 6/1/4 2/1/4 1/1/4
f 3/1/5 7/1/5 5/1/5 1/1/5
f 8/1/6 4/1/6 2/1/6 6/1/6
