# Blender 4.5.3 LTS
# www.blender.org
mtllib llave.mtl
o Key.001
v -6.371835 1.221169 -10.832592
v -6.371835 1.199052 -10.794285
v -6.371835 1.154818 -10.794285
v -6.371835 1.132701 -10.832592
v -6.371835 1.154818 -10.870899
v -6.371835 1.199052 -10.870899
v -6.563372 1.110584 -10.832592
v -6.544219 1.099526 -10.794285
v -6.505911 1.077409 -10.794285
v -6.486757 1.066351 -10.832592
v -6.505911 1.077409 -10.870899
v -6.544219 1.099526 -10.870899
v -6.563372 0.889416 -10.832592
v -6.544219 0.900474 -10.794285
v -6.505911 0.922591 -10.794285
v -6.486757 0.933649 -10.832592
v -6.505911 0.922591 -10.870899
v -6.544219 0.900474 -10.870899
v -6.371835 0.778831 -10.832592
v -6.371835 0.800948 -10.794285
v -6.371835 0.845182 -10.794285
v -6.371835 0.867299 -10.832592
v -6.371835 0.845182 -10.870899
v -6.371835 0.800948 -10.870899
v -6.180297 0.889416 -10.832592
v -6.199450 0.900474 -10.794285
v -6.237758 0.922591 -10.794285
v -6.256912 0.933649 -10.832592
v -6.237758 0.922591 -10.870899
v -6.199450 0.900474 -10.870899
v -6.180297 1.110584 -10.832592
v -6.199450 1.099526 -10.794285
v -6.237758 1.077409 -10.794285
v -6.256912 1.066351 -10.832592
v -6.237758 1.077409 -10.870899
v -6.199450 1.099526 -10.870899
v -6.180297 0.941763 -10.832592
v -6.180297 1.058237 -10.832592
v -6.199450 0.947586 -10.794285
v -6.199450 1.052414 -10.794285
v -6.237758 0.959234 -10.794285
v -6.237758 1.040766 -10.794285
v -6.256912 0.965058 -10.832592
v -6.256912 1.034943 -10.832592
v -6.237758 0.959234 -10.870899
v -6.237758 1.040766 -10.870899
v -6.199450 0.947586 -10.870899
v -6.199450 1.052414 -10.870899
v -5.684879 0.941763 -10.832592
v -5.684879 1.058237 -10.832592
v -5.704033 0.947586 -10.794285
v -5.704033 1.052414 -10.794285
v -5.704033 0.947586 -10.870899
v -5.704033 1.052414 -10.870899
v -6.009054 1.058237 -10.832592
v -5.909970 1.058237 -10.832592
v -5.846274 1.058237 -10.832592
v -5.747190 1.058237 -10.832592
v -5.747190 1.052414 -10.870899
v -5.846274 1.052414 -10.870899
v -5.909970 1.052414 -10.870899
v -6.009054 1.052414 -10.870899
v -6.009054 0.941763 -10.832592
v -5.909970 0.941763 -10.832592
v -5.846274 0.941763 -10.832592
v -5.747190 0.941763 -10.832592
v -5.747190 0.947586 -10.794285
v -5.846274 0.947586 -10.794285
v -5.909970 0.947586 -10.794285
v -6.009054 0.947586 -10.794285
v -5.747190 0.947586 -10.870899
v -5.846274 0.947586 -10.870899
v -5.909970 0.947586 -10.870899
v -6.009054 0.947586 -10.870899
v -5.747190 1.052414 -10.794285
v -5.846274 1.052414 -10.794285
v -5.909970 1.052414 -10.794285
v -6.009054 1.052414 -10.794285
v -6.009054 0.870989 -10.832592
v -5.909970 0.870989 -10.832592
v -5.846274 0.835602 -10.832592
v -5.747190 0.835602 -10.832592
v -5.747190 0.841425 -10.794285
v -5.846274 0.841425 -10.794285
v -5.909970 0.876812 -10.794285
v -6.009054 0.876812 -10.794285
v -5.747190 0.841425 -10.870899
v -5.846274 0.841425 -10.870899
v -5.909970 0.876812 -10.870899
v -6.009054 0.876812 -10.870899
vn -0.4472 0.7746 0.4472
vn -0.0000 -0.0000 1.0000
vn 0.4472 -0.7746 0.4472
vn 0.4472 -0.7746 -0.4472
vn -0.0000 -0.0000 -1.0000
vn -0.4472 0.7746 -0.4472
vn -0.8944 -0.0000 0.4472
vn 0.8944 -0.0000 0.4472
vn 0.8944 -0.0000 -0.4472
vn -0.8944 -0.0000 -0.4472
vn -0.4472 -0.7746 0.4472
vn 0.4472 0.7746 0.4472
vn 0.4472 0.7746 -0.4472
vn -0.4472 -0.7746 -0.4472
vn -0.0000 -0.9886 0.1503
vn -0.0000 0.9886 -0.1503
vn -0.0000 0.9886 0.1503
vn -0.0000 -0.9886 -0.1503
vn 1.0000 -0.0000 -0.0000
vn -1.0000 -0.0000 -0.0000
vt 0.071824 0.197824
vt 0.071824 0.197824
vt 0.071824 0.197824
s 1
usemtl Material.336
f 1/1/1 7/1/1 8/1/1 2/1/1
f 2/1/2 8/1/2 9/1/2 3/1/2
f 3/1/3 9/1/3 10/1/3 4/1/3
f 4/1/4 10/1/4 11/1/4 5/1/4
f 5/1/5 11/1/5 12/1/5 6/1/5
f 6/1/6 12/1/6 7/1/6 1/1/6
f 7/1/7 13/1/7 14/1/7 8/1/7
f 8/1/2 14/1/2 15/1/2 9/1/2
f 9/1/8 15/1/8 16/1/8 10/1/8
f 10/1/9 16/1/9 17/1/9 11/1/9
f 11/1/5 17/1/5 18/1/5 12/1/5
f 12/1/10 18/1/10 13/1/10 7/1/10
f 13/1/11 19/1/11 20/1/11 14/1/11
f 14/1/2 20/1/2 21/1/2 15/1/2
f 15/1/12 21/1/12 22/1/12 16/1/12
f 16/1/13 22/1/13 23/1/13 17/1/13
f 17/1/5 23/1/5 24/1/5 18/1/5
f 18/1/14 24/1/14 19/1/14 13/1/14
f 19/1/3 25/1/3 26/1/3 20/1/3
f 20/1/2 26/1/2 27/1/2 21/1/2
f 21/1/1 27/1/1 28/1/1 22/1/1
f 22/1/6 28/1/6 29/1/6 23/1/6
f 23/1/5 29/1/5 30/1/5 24/1/5
f 24/1/4 30/1/4 25/1/4 19/1/4
f 38/1/8 31/1/8 32/1/8 40/1/8
f 40/1/2 32/1/2 33/1/2 42/1/2
f 42/1/7 33/1/7 34/1/7 44/1/7
f 44/1/10 34/1/10 35/1/10 46/1/10
f 46/1/5 35/1/5 36/1/5 48/1/5
f 48/1/9 36/1/9 31/1/9 38/1/9
f 31/1/12 1/1/12 2/1/12 32/1/12
f 32/1/2 2/1/2 3/1/2 33/1/2
f 33/1/11 3/1/11 4/1/11 34/1/11
f 34/1/14 4/1/14 5/1/14 35/1/14
f 35/1/5 5/1/5 6/1/5 36/1/5
f 36/1/13 6/1/13 1/1/13 31/1/13
f 30/1/9 47/1/9 37/1/9 25/1/9
f 67/1/15 66/2/15 49/1/15 51/1/15
f 29/1/5 45/1/5 47/1/5 30/1/5
f 45/1/5 46/1/5 48/1/5 47/1/5
f 28/1/10 43/1/10 45/1/10 29/1/10
f 43/1/10 44/1/10 46/1/10 45/1/10
f 27/1/7 41/1/7 43/1/7 28/1/7
f 41/1/7 42/1/7 44/1/7 43/1/7
f 26/1/2 39/1/2 41/1/2 27/1/2
f 39/1/2 40/1/2 42/1/2 41/1/2
f 25/1/8 37/1/8 39/1/8 26/1/8
f 59/1/16 58/2/16 50/1/16 54/1/16
f 53/1/9 54/1/9 50/1/9 49/1/9
f 49/1/8 50/1/8 52/1/8 51/1/8
f 71/1/5 59/1/5 54/1/5 53/1/5
f 75/1/2 67/1/2 51/1/2 52/1/2
f 58/2/17 75/1/17 52/1/17 50/1/17
f 66/2/18 71/1/18 53/1/18 49/1/18
f 37/1/18 47/1/18 74/1/18 63/1/18
f 71/1/19 66/2/19 82/2/19 87/1/19
f 64/2/18 73/1/18 72/1/18 65/2/18
f 70/1/20 63/1/20 79/1/20 86/1/20
f 38/1/17 40/1/17 78/3/17 55/1/17
f 55/1/17 78/3/17 77/1/17 56/2/17
f 56/2/17 77/1/17 76/1/17 57/2/17
f 57/2/17 76/1/17 75/1/17 58/2/17
f 40/1/2 39/1/2 70/1/2 78/3/2
f 78/3/2 70/1/2 69/1/2 77/1/2
f 77/1/2 69/1/2 68/1/2 76/1/2
f 76/1/2 68/1/2 67/1/2 75/1/2
f 47/1/5 48/1/5 62/2/5 74/1/5
f 74/1/5 62/2/5 61/1/5 73/1/5
f 73/1/5 61/1/5 60/1/5 72/1/5
f 72/1/5 60/1/5 59/1/5 71/1/5
f 48/1/16 38/1/16 55/1/16 62/2/16
f 62/2/16 55/1/16 56/2/16 61/1/16
f 61/1/16 56/2/16 57/2/16 60/1/16
f 60/1/16 57/2/16 58/2/16 59/1/16
f 39/1/15 37/1/15 63/1/15 70/1/15
f 67/1/2 68/1/2 84/1/2 83/1/2
f 69/1/15 64/2/15 65/2/15 68/1/15
f 66/2/19 67/1/19 83/1/19 82/2/19
f 79/1/18 90/1/18 89/1/18 80/2/18
f 81/2/18 88/1/18 87/1/18 82/2/18
f 86/1/15 79/1/15 80/2/15 85/1/15
f 84/1/15 81/2/15 82/2/15 83/1/15
f 72/1/5 71/1/5 87/1/5 88/1/5
f 63/1/20 74/1/20 90/1/20 79/1/20
f 64/2/19 69/1/19 85/1/19 80/2/19
f 73/1/19 64/2/19 80/2/19 89/1/19
f 69/1/2 70/1/2 86/1/2 85/1/2
f 68/1/20 65/2/20 81/2/20 84/1/20
f 74/1/5 73/1/5 89/1/5 90/1/5
f 65/2/20 72/1/20 88/1/20 81/2/20
