# Blender 4.5.3 LTS
# www.blender.org
mtllib pared3c.mtl
o Wall.008
v -6.134625 4.003870 -13.706295
v -10.134625 4.003870 -13.706100
v -6.134577 4.003870 -12.706295
v -10.134577 4.003870 -12.706100
v -6.134625 2.003870 -13.706295
v -10.134625 2.003870 -13.706100
v -6.134577 2.003870 -12.706295
v -10.134577 2.003870 -12.706100
v -6.134625 2.003870 -13.706296
v -10.134625 2.003870 -13.706100
v -6.134577 2.003870 -12.706296
v -10.134577 2.003870 -12.706100
v -6.134625 0.003870 -13.706296
v -10.134625 0.003870 -13.706100
v -6.134577 0.003870 -12.706296
v -10.134577 0.003870 -12.706100
v -3.134600 4.003870 -13.706246
v -6.134600 4.003870 -13.706100
v -3.134551 4.003870 -12.706246
v -6.134551 4.003870 -12.706100
v -3.134600 2.003870 -13.706245
v -6.134600 2.003870 -13.706100
v -3.134551 2.003870 -12.706245
v -6.134551 2.003870 -12.706100
v -3.134600 2.003870 -13.706246
v -6.134600 2.003870 -13.706100
v -3.134551 2.003870 -12.706246
v -6.134551 2.003870 -12.706100
v -3.134600 0.003870 -13.706246
v -6.134600 0.003870 -13.706100
v -3.134551 0.003870 -12.706246
v -6.134551 0.003870 -12.706100
vn 1.0000 -0.0000 -0.0000
vn -1.0000 -0.0000 -0.0000
vn -0.0000 -0.0000 -1.0000
vn -0.0000 -1.0000 -0.0000
vn -0.0000 -0.0000 1.0000
vn -0.0000 1.0000 -0.0000
vt 0.061981 0.187981
vt 0.061981 0.187981
s 1
usemtl Material.230
f 3/1/1 7/1/1 5/1/1 1/1/1
f 8/1/2 4/1/2 2/1/2 6/1/2
f 5/1/3 6/1/3 2/1/3 1/1/3
f 7/1/4 8/2/4 6/1/4 5/1/4
f 3/1/5 4/2/5 8/2/5 7/1/5
f 1/1/6 2/1/6 4/2/6 3/1/6
usemtl Material.231
f 11/1/1 15/1/1 13/1/1 9/1/1
f 16/1/2 12/1/2 10/1/2 14/1/2
f 13/1/3 14/1/3 10/1/3 9/1/3
f 15/1/4 16/2/4 14/1/4 13/1/4
f 11/1/5 12/2/5 16/2/5 15/1/5
f 9/1/6 10/1/6 12/2/6 11/1/6
usemtl Material.232
f 19/1/1 23/1/1 21/1/1 17/1/1
f 24/1/2 20/1/2 18/1/2 22/1/2
f 21/1/3 22/1/3 18/1/3 17/1/3
f 23/1/4 24/2/4 22/1/4 21/1/4
f 19/1/5 20/2/5 24/2/5 23/1/5
f 17/1/6 18/1/6 20/2/6 19/1/6
usemtl Material.233
f 27/1/1 31/1/1 29/1/1 25/1/1
f 32/1/2 28/1/2 26/1/2 30/1/2
f 29/1/3 30/1/3 26/1/3 25/1/3
f 31/1/4 32/2/4 30/1/4 29/1/4
f 27/1/5 28/2/5 32/2/5 31/1/5
f 25/1/6 26/1/6 28/2/6 27/1/6
