# Blender 4.5.3 LTS
# www.blender.org
mtllib pared3a.mtl
o Wall.068
v 3.863457 4.003867 -12.706745
v 0.863457 4.003867 -12.706600
v 3.863409 4.003867 -13.706745
v 0.863409 4.003867 -13.706600
v 3.863457 8.003866 -12.706745
v 0.863457 8.003866 -12.706600
v 3.863409 8.003866 -13.706745
v 0.863409 8.003866 -13.706600
v -10.136596 4.003870 -13.706070
v -7.136595 4.003870 -13.706215
v -10.136547 4.003870 -12.706070
v -7.136547 4.003870 -12.706215
v -10.136596 8.003870 -13.706070
v -7.136595 8.003870 -13.706215
v -10.136547 8.003870 -12.706070
v -7.136547 8.003870 -12.706215
v -7.136593 4.003866 -13.706215
v -3.136593 4.003867 -13.706408
v -7.136545 4.003866 -12.706215
v -3.136545 4.003867 -12.706408
v -7.136593 8.003866 -13.706215
v -3.136593 8.003866 -13.706408
v -7.136545 8.003866 -12.706215
v -3.136545 8.003866 -12.706408
v -3.136591 4.003866 -13.706408
v 0.863409 4.003867 -13.706601
v -3.136543 4.003866 -12.706408
v 0.863457 4.003867 -12.706601
v -3.136591 8.003866 -13.706408
v 0.863409 8.003866 -13.706601
v -3.136543 8.003866 -12.706408
v 0.863457 8.003866 -12.706601
vn 1.0000 -0.0000 -0.0000
vn -1.0000 -0.0000 -0.0000
vn -0.0000 -0.0000 1.0000
vn -0.0000 1.0000 -0.0000
vn -0.0000 -0.0000 -1.0000
vn -0.0000 -1.0000 -0.0000
vt 0.061981 0.187981
vt 0.061981 0.187981
s 1
usemtl Material.174
f 3/1/1 7/1/1 5/1/1 1/1/1
f 8/1/2 4/1/2 2/1/2 6/1/2
f 5/1/3 6/1/3 2/1/3 1/1/3
f 7/1/4 8/2/4 6/1/4 5/1/4
f 3/1/5 4/2/5 8/2/5 7/1/5
f 1/1/6 2/1/6 4/2/6 3/1/6
usemtl Material.097
f 11/1/2 15/1/2 13/1/2 9/1/2
f 16/1/1 12/1/1 10/1/1 14/1/1
f 13/1/5 14/1/5 10/1/5 9/1/5
f 15/1/4 16/2/4 14/1/4 13/1/4
f 11/1/3 12/2/3 16/2/3 15/1/3
f 9/1/6 10/1/6 12/2/6 11/1/6
usemtl Material.099
f 19/1/2 23/1/2 21/1/2 17/1/2
f 24/1/1 20/1/1 18/1/1 22/1/1
f 21/1/5 22/1/5 18/1/5 17/1/5
f 23/1/4 24/2/4 22/1/4 21/1/4
f 19/1/3 20/2/3 24/2/3 23/1/3
f 17/1/6 18/1/6 20/2/6 19/1/6
usemtl Material.166
f 27/1/2 31/1/2 29/1/2 25/1/2
f 32/1/1 28/1/1 26/1/1 30/1/1
f 29/1/5 30/1/5 26/1/5 25/1/5
f 31/1/4 32/2/4 30/1/4 29/1/4
f 27/1/3 28/2/3 32/2/3 31/1/3
f 25/1/6 26/1/6 28/2/6 27/1/6
