# Blender 4.5.3 LTS
# www.blender.org
mtllib puerta3.mtl
o Wall_door.005
v -2.136543 0.003867 -13.706454
v -0.136543 0.003867 -13.706552
v -2.136494 0.003867 -12.706454
v -0.136494 0.003868 -12.706552
v -2.136543 3.003867 -13.706454
v -0.136543 3.003867 -13.706552
v -2.136494 3.003867 -12.706455
v -0.136494 3.003867 -12.706553
v -3.136494 4.003867 -12.706407
v -3.136494 0.003867 -12.706406
v 0.863506 0.003868 -12.706600
v 0.863506 4.003867 -12.706601
v -3.136543 0.003867 -13.706406
v -3.136543 4.003867 -13.706407
v 0.863457 4.003867 -13.706601
v 0.863457 0.003867 -13.706600
vn -1.0000 -0.0000 -0.0000
vn 1.0000 -0.0000 -0.0000
vn -0.0000 1.0000 -0.0000
vn -0.0000 -1.0000 -0.0000
vn -0.0000 -0.0000 1.0000
vn -0.0000 -0.0000 -1.0000
vt 0.061981 0.187981
vt 0.061981 0.187981
vt 0.061981 0.187981
vt 0.061981 0.187981
vt 0.061981 0.187980
vt 0.061981 0.187981
s 1
usemtl Material.001
f 10/1/1 9/1/1 14/1/1 13/1/1
f 12/1/2 11/1/2 16/1/2 15/1/2
f 6/2/1 2/3/1 4/4/1 8/3/1
f 9/1/3 12/3/3 15/1/3 14/1/3
f 5/5/4 6/2/4 8/3/4 7/3/4
f 3/6/5 7/3/5 9/1/5 10/1/5
f 8/3/5 4/4/5 11/3/5 12/3/5
f 5/5/6 1/1/6 13/1/6 14/1/6
f 2/3/6 6/2/6 15/1/6 16/1/6
f 10/1/4 13/1/4 1/1/4 3/6/4
f 6/2/6 5/5/6 14/1/6 15/1/6
f 7/3/5 8/3/5 12/3/5 9/1/5
f 11/3/4 4/4/4 2/3/4 16/1/4
f 1/1/2 5/5/2 7/3/2 3/6/2
